<svg width="162" height="162" viewBox="0 0 162 162" fill="none" xmlns="http://www.w3.org/2000/svg">
<g clip-path="url(#clip0_90_626)">
<path d="M51.0546 89.1H24.5451C23.0539 89.1 21.8452 90.3086 21.8452 91.7999C21.8452 93.2911 23.0539 94.4998 24.5451 94.4998H51.0546C51.4092 94.4999 51.7604 94.4302 52.0881 94.2946C52.4158 94.1589 52.7135 93.96 52.9643 93.7093C53.2151 93.4585 53.4139 93.1608 53.5496 92.8331C53.6852 92.5054 53.755 92.1542 53.7548 91.7995C53.7549 91.445 53.6851 91.0938 53.5494 90.7662C53.4137 90.4386 53.2148 90.141 52.9641 89.8902C52.7133 89.6395 52.4156 89.4407 52.088 89.3051C51.7603 89.1695 51.4092 89.0998 51.0546 89.1ZM26.9998 83.6999C27.3544 83.7 27.7056 83.6303 28.0333 83.4947C28.361 83.359 28.6587 83.1601 28.9095 82.9094C29.1603 82.6586 29.3592 82.3609 29.4948 82.0332C29.6304 81.7055 29.7002 81.3543 29.7 80.9997V75.5996C29.7 74.8835 29.4155 74.1968 28.9092 73.6904C28.4029 73.1841 27.7162 72.8997 27.0001 72.8997C26.284 72.8997 25.5973 73.1841 25.091 73.6904C24.5847 74.1968 24.3002 74.8835 24.3002 75.5996V81C24.3001 81.3545 24.3698 81.7057 24.5054 82.0333C24.6411 82.3609 24.8399 82.6585 25.0906 82.9093C25.3413 83.16 25.6389 83.3589 25.9665 83.4945C26.2941 83.6302 26.6452 83.6999 26.9998 83.6999ZM48.5999 83.6999C48.9545 83.7 49.3057 83.6303 49.6334 83.4947C49.9611 83.359 50.2588 83.1601 50.5096 82.9094C50.7604 82.6586 50.9593 82.3609 51.0949 82.0332C51.2305 81.7055 51.3003 81.3543 51.3001 80.9997V75.5996C51.3001 74.8835 51.0157 74.1968 50.5093 73.6904C50.003 73.1841 49.3163 72.8997 48.6002 72.8997C47.8842 72.8997 47.1974 73.1841 46.6911 73.6904C46.1848 74.1968 45.9003 74.8835 45.9003 75.5996V81C45.9002 81.3545 45.9699 81.7057 46.1056 82.0333C46.2412 82.3609 46.44 82.6585 46.6907 82.9093C46.9414 83.16 47.2391 83.3589 47.5666 83.4945C47.8942 83.6302 48.2453 83.6999 48.5999 83.6999Z" fill="#9ACC32"/>
<path d="M56.7 105.3C61.1715 105.295 64.7953 101.671 64.8 97.2V96.9273C71.0854 95.6442 75.5999 90.1153 75.5999 83.7002C75.5999 77.2851 71.0854 71.7562 64.8 70.4732V70.2004C64.7953 65.729 61.1715 62.1052 56.7 62.1004H43.1996L47.5204 58.8598C48.0931 58.4303 48.4717 57.7911 48.5731 57.0825C48.6745 56.3739 48.4904 55.6541 48.0612 55.0813L44.5386 50.3833C46.8968 46.9923 46.4522 42.3927 43.4888 39.516C40.5253 36.6392 35.9146 36.3317 32.5952 38.7892C29.2758 41.2467 28.2244 45.7466 30.1111 49.4208C31.9978 53.0949 36.2674 54.8623 40.1988 53.5967L42.1209 56.1599L34.201 62.1004H18.8999C14.4284 62.1052 10.8046 65.729 10.7999 70.2004V70.4732C4.51448 71.7559 0 77.2851 0 83.6999C0 90.115 4.51448 95.6439 10.7999 96.9269V97.1997C10.8046 101.671 14.4284 105.295 18.8999 105.3H26.9999V116.1H10.7999C4.83785 116.106 0.00632812 120.938 0 126.9V153.9C0.00348047 156.881 2.41893 159.297 5.40011 159.3H11.5514C12.0216 160.118 12.6986 160.798 13.5144 161.272C14.3303 161.746 15.2565 161.997 16.2 162H59.3999C62.3808 161.997 64.7965 159.581 64.8 156.6H70.2001C73.181 156.596 75.5967 154.181 75.6002 151.2V126.9C75.5939 120.938 70.7624 116.106 64.8003 116.1H48.6003V105.3H56.7ZM64.8 76.0615C66.3791 76.6205 67.7462 77.6552 68.7131 79.0231C69.68 80.3911 70.1991 82.0251 70.1991 83.7002C70.1991 85.3754 69.68 87.0093 68.7131 88.3773C67.7462 89.7452 66.3791 90.7799 64.8 91.3389V76.0615ZM37.8001 48.6C37.2661 48.6 36.7441 48.4417 36.3001 48.145C35.8561 47.8483 35.5101 47.4267 35.3057 46.9333C35.1014 46.44 35.0479 45.8971 35.1521 45.3734C35.2563 44.8497 35.5134 44.3686 35.891 43.991C36.2686 43.6134 36.7497 43.3563 37.2734 43.2521C37.7971 43.1479 38.34 43.2014 38.8333 43.4057C39.3267 43.6101 39.7483 43.9561 40.045 44.4001C40.3417 44.8441 40.5 45.3661 40.5 45.9001C40.4992 46.6159 40.2146 47.3022 39.7084 47.8084C39.2022 48.3146 38.5159 48.5992 37.8001 48.6ZM10.7999 91.3386C9.22077 90.7796 7.8537 89.7449 6.88682 88.377C5.91994 87.009 5.40077 85.375 5.40077 83.6999C5.40077 82.0247 5.91994 80.3908 6.88682 79.0228C7.8537 77.6549 9.22077 76.6202 10.7999 76.0612V91.3386ZM10.7999 153.9H5.40011V126.9C5.40359 123.919 7.81935 121.503 10.8002 121.5L10.7999 153.9ZM64.8 121.5C67.7809 121.503 70.1966 123.919 70.2001 126.9V151.2H64.8V121.5ZM48.6 156.6H26.9999V132.3H48.6V156.6ZM59.3999 121.5L59.4034 153.882L59.3999 153.9L59.4034 153.918L59.4037 156.6H53.9998V132.3C53.9963 129.319 51.5805 126.903 48.5997 126.9H26.9999C24.019 126.903 21.6033 129.319 21.5998 132.3V156.6H16.2V121.5H59.3999ZM32.4 116.1V105.3H43.1999V116.1H32.4ZM18.8999 99.8999C18.184 99.8993 17.4976 99.6147 16.9914 99.1085C16.4852 98.6023 16.2006 97.9159 16.2 97.2V70.2001C16.2006 69.4842 16.4852 68.7978 16.9914 68.2916C17.4976 67.7854 18.184 67.5008 18.8999 67.5002H56.7C57.4159 67.5008 58.1023 67.7854 58.6085 68.2916C59.1147 68.7978 59.3993 69.4842 59.3999 70.2001V97.2C59.3993 97.9159 59.1147 98.6023 58.6085 99.1085C58.1023 99.6147 57.4159 99.8993 56.7 99.8999H18.8999ZM112.183 16.2316C107.453 16.0302 102.731 16.7881 98.3009 18.4597C93.8712 20.1314 89.8256 22.6822 86.4077 25.9586C82.9898 29.2349 80.2703 33.1691 78.413 37.5242C76.5556 41.8793 75.5988 46.5653 75.6002 51.2999C75.5778 56.7676 76.842 62.1638 79.2907 67.0525C81.7394 71.9412 85.3039 76.1853 89.6961 79.4417C91.1532 80.4759 92.3471 81.8379 93.1815 83.4179C94.0159 84.9979 94.4676 86.7518 94.5001 88.5384V92.2976C93.2432 92.7328 92.1142 93.4736 91.2146 94.4534C90.315 95.4332 89.6731 96.6212 89.3465 97.9106C89.0199 99.2 89.019 100.55 89.3437 101.84C89.6685 103.13 90.3088 104.319 91.207 105.3C90.1511 106.457 89.4553 107.897 89.2044 109.444C88.9534 110.99 89.1583 112.576 89.794 114.008C90.4296 115.44 91.4686 116.655 92.7838 117.506C94.0991 118.357 95.6337 118.807 97.2003 118.8H97.4731C98.7561 125.086 104.285 129.6 110.7 129.6C117.115 129.6 122.644 125.086 123.927 118.8H124.2C125.766 118.807 127.301 118.357 128.616 117.506C129.931 116.655 130.97 115.439 131.606 114.008C132.241 112.576 132.446 110.99 132.196 109.444C131.945 107.897 131.249 106.457 130.193 105.3C131.092 104.319 131.732 103.13 132.057 101.84C132.382 100.55 132.381 99.1999 132.054 97.9104C131.728 96.6209 131.086 95.4328 130.186 94.4531C129.286 93.4733 128.157 92.7326 126.9 92.2976V88.5251C126.919 86.7595 127.355 85.0235 128.172 83.4583C128.99 81.893 130.165 80.543 131.603 79.518C143.55 70.6586 148.62 55.2322 144.257 41.0123C139.893 26.793 127.044 16.8651 112.183 16.2316ZM110.7 124.2C109.03 124.195 107.403 123.673 106.042 122.706C104.681 121.739 103.652 120.375 103.098 118.8H118.303C117.748 120.375 116.719 121.739 115.358 122.706C113.997 123.673 112.37 124.195 110.7 124.2ZM124.2 113.4H97.2C95.7088 113.4 94.5001 112.191 94.5001 110.7C94.5001 109.209 95.7088 108 97.2 108H124.2C125.691 108 126.9 109.209 126.9 110.7C126.9 112.191 125.691 113.4 124.2 113.4ZM124.2 102.6H97.2C95.7088 102.6 94.5001 101.391 94.5001 99.9002C94.5001 98.409 95.7088 97.2003 97.2 97.2003H124.2C125.691 97.2003 126.9 98.409 126.9 99.9002C126.9 101.391 125.691 102.6 124.2 102.6ZM128.382 75.1835C126.265 76.708 124.538 78.7112 123.342 81.0298C122.146 83.3483 121.515 85.9166 121.5 88.5254V91.8002H99.8999V88.5387C99.8712 85.9122 99.2257 83.3291 98.0154 80.9979C96.8052 78.6667 95.064 76.6524 92.9323 75.1177C82.4865 67.323 78.3409 53.6302 82.7095 41.3505C87.0779 29.0708 98.9399 21.0727 111.962 21.6264C124.536 22.1665 135.406 30.5699 139.095 42.6032C142.785 54.6361 138.493 67.6882 128.382 75.1835ZM110.7 10.7999C111.416 10.7999 112.103 10.5154 112.609 10.0091C113.116 9.50279 113.4 8.81606 113.4 8.1V2.69989C113.4 1.20867 112.191 0 110.7 0C109.209 0 108 1.20867 108 2.69989V8.1C108 8.45457 108.07 8.80567 108.206 9.13325C108.341 9.46084 108.54 9.75849 108.791 10.0092C109.042 10.2599 109.339 10.4588 109.667 10.5945C109.994 10.7301 110.346 10.7999 110.7 10.7999ZM143.157 15.0268L139.337 18.8448C138.831 19.3511 138.547 20.0378 138.547 20.7539C138.547 21.4699 138.831 22.1566 139.337 22.6629C139.844 23.1692 140.53 23.4537 141.246 23.4537C141.962 23.4537 142.649 23.1692 143.155 22.6629L146.975 18.8448C147.474 18.337 147.752 17.6527 147.749 16.9408C147.745 16.229 147.461 15.5472 146.958 15.0438C146.454 14.5404 145.773 14.2562 145.061 14.253C144.349 14.2499 143.665 14.5279 143.157 15.0268ZM78.2447 22.6626C78.7526 23.1614 79.4369 23.4395 80.1488 23.4363C80.8606 23.4331 81.5424 23.1489 82.0458 22.6456C82.5491 22.1422 82.8333 21.4604 82.8365 20.7486C82.8397 20.0367 82.5616 19.3524 82.0628 18.8445L78.2435 15.0264C77.7356 14.5276 77.0513 14.2495 76.3394 14.2527C75.6276 14.2559 74.9458 14.5401 74.4424 15.0435C73.9391 15.5468 73.6549 16.2286 73.6517 16.9405C73.6485 17.6524 73.9266 18.3367 74.4254 18.8445L78.2447 22.6626ZM159.3 48.6H153.9C152.409 48.6 151.2 49.8087 151.2 51.2999C151.2 52.7911 152.409 53.9998 153.9 53.9998H159.3C160.791 53.9998 162 52.7911 162 51.2999C162 49.8087 160.791 48.6 159.3 48.6ZM62.1001 54.0001H67.5002C68.2163 54.0001 68.903 53.7157 69.4093 53.2093C69.9157 52.703 70.2001 52.0163 70.2001 51.3002C70.2001 50.5842 69.9157 49.8974 69.4093 49.3911C68.903 48.8848 68.2163 48.6003 67.5002 48.6003H62.1001C60.6089 48.6003 59.4002 49.809 59.4002 51.3002C59.4002 52.7914 60.6089 54.0001 62.1001 54.0001Z" fill="#9ACC32"/>
<path d="M110.7 26.9999C106.438 27.0111 102.254 28.1381 98.5631 30.2688C94.8723 32.3995 91.8038 35.4596 89.663 39.1445C89.3038 39.7643 89.2055 40.5014 89.3897 41.1936C89.5739 41.8859 90.0254 42.4767 90.6451 42.836C91.2646 43.195 92.0013 43.2933 92.6933 43.1094C93.3852 42.9255 93.9759 42.4743 94.3354 41.8552C95.9997 38.9871 98.3863 36.6051 101.257 34.9461C104.129 33.2872 107.384 32.4092 110.7 32.3997C111.416 32.3996 112.103 32.1151 112.609 31.6088C113.116 31.1024 113.4 30.4157 113.4 29.6996C113.4 28.9836 113.115 28.2968 112.609 27.7905C112.103 27.2842 111.416 26.9998 110.7 26.9999ZM91.7997 51.2999C91.7997 49.8087 90.591 48.6 89.0998 48.6C87.6086 48.6 86.3999 49.8087 86.3999 51.2999C86.3999 52.3143 86.4629 53.328 86.5885 54.3345C86.6286 54.6895 86.7388 55.033 86.9127 55.345C87.0865 55.6571 87.3206 55.9316 87.6013 56.1525C87.8819 56.3735 88.2037 56.5365 88.5478 56.6323C88.892 56.728 89.2517 56.7544 89.6062 56.7101C89.9607 56.6658 90.3028 56.5516 90.6128 56.3741C90.9228 56.1966 91.1945 55.9593 91.4122 55.6761C91.6298 55.3928 91.7891 55.0692 91.8808 54.7239C91.9724 54.3786 91.9947 54.0186 91.9462 53.6647C91.8487 52.8802 91.7997 52.0904 91.7997 51.2999Z" fill="#9ACC32"/>
</g>
<defs>
<clipPath id="clip0_90_626">
<rect width="162" height="162" fill="white"/>
</clipPath>
</defs>
</svg>
