<?xml version="1.0" encoding="UTF-8" standalone="no"?>
<!DOCTYPE svg PUBLIC "-//W3C//DTD SVG 1.1//EN" "http://www.w3.org/Graphics/SVG/1.1/DTD/svg11.dtd">
<svg width="100%" height="100%" viewBox="0 0 162 162" version="1.1" xmlns="http://www.w3.org/2000/svg" xmlns:xlink="http://www.w3.org/1999/xlink" xml:space="preserve" xmlns:serif="http://www.serif.com/" style="fill-rule:evenodd;clip-rule:evenodd;stroke-linejoin:round;stroke-miterlimit:2;">
    <g>
        <g>
            <path d="M159.627,118.178L152.982,118.178L152.982,54.106C152.979,51.799 152.061,49.588 150.43,47.957C148.799,46.325 146.588,45.408 144.281,45.404L137.162,45.404L137.162,28.793C137.16,27.325 136.577,25.918 135.538,24.88C134.5,23.841 133.093,23.258 131.625,23.256L30.375,23.256C28.907,23.258 27.5,23.841 26.462,24.88C25.424,25.918 24.84,27.325 24.838,28.793L24.838,45.404L17.719,45.404C15.412,45.408 13.201,46.325 11.57,47.957C9.939,49.588 9.021,51.799 9.018,54.106L9.018,118.178L2.373,118.178C1.744,118.178 1.14,118.428 0.695,118.873C0.25,119.318 0,119.921 0,120.551L0,130.043C0.003,132.35 0.921,134.561 2.552,136.192C4.183,137.823 6.395,138.741 8.701,138.744L153.299,138.744C155.605,138.741 157.817,137.823 159.448,136.192C161.079,134.561 161.997,132.35 162,130.043L162,120.551C162,119.921 161.75,119.318 161.305,118.873C160.86,118.428 160.256,118.178 159.627,118.178ZM29.584,40.658L132.416,40.658L132.416,101.566C132.416,101.776 132.333,101.977 132.184,102.126C132.036,102.274 131.835,102.357 131.625,102.357L30.375,102.357C30.165,102.357 29.964,102.274 29.816,102.126C29.667,101.977 29.584,101.776 29.584,101.566L29.584,40.658ZM30.375,28.002L131.625,28.002C131.835,28.002 132.036,28.085 132.184,28.234C132.333,28.382 132.416,28.583 132.416,28.793L132.416,35.912L29.584,35.912L29.584,28.793C29.584,28.583 29.667,28.382 29.816,28.234C29.964,28.085 30.165,28.002 30.375,28.002ZM13.764,54.106C13.765,53.057 14.183,52.052 14.924,51.311C15.665,50.569 16.67,50.152 17.719,50.15L24.838,50.15L24.838,101.566C24.84,103.034 25.424,104.442 26.462,105.48C27.5,106.518 28.907,107.102 30.375,107.104L131.625,107.104C133.093,107.102 134.5,106.518 135.538,105.48C136.577,104.442 137.16,103.034 137.162,101.566L137.162,50.15L144.281,50.15C145.33,50.152 146.335,50.569 147.076,51.311C147.817,52.052 148.235,53.057 148.236,54.106L148.236,118.178L13.764,118.178L13.764,54.106ZM157.254,130.043C157.252,131.091 156.835,132.096 156.094,132.838C155.352,133.579 154.347,133.996 153.299,133.998L8.701,133.998C7.653,133.996 6.648,133.579 5.906,132.838C5.165,132.096 4.748,131.091 4.746,130.043L4.746,122.924L157.254,122.924L157.254,130.043Z" style="fill:rgb(145,84,224);fill-rule:nonzero;"/>
            <path d="M56.083,94.447C56.712,94.447 57.316,94.197 57.761,93.752C58.206,93.307 58.456,92.704 58.456,92.074L58.456,50.941C58.456,50.312 58.206,49.708 57.761,49.263C57.316,48.818 56.712,48.568 56.083,48.568C55.454,48.568 54.85,48.818 54.405,49.263C53.96,49.708 53.71,50.312 53.71,50.941L53.71,92.074C53.71,92.704 53.96,93.307 54.405,93.752C54.85,94.197 55.454,94.447 56.083,94.447ZM37.89,58.06L45.8,58.06C46.429,58.06 47.033,57.81 47.478,57.365C47.923,56.92 48.173,56.317 48.173,55.688C48.173,55.058 47.923,54.455 47.478,54.01C47.033,53.565 46.429,53.315 45.8,53.315L37.89,53.315C37.26,53.315 36.657,53.565 36.212,54.01C35.767,54.455 35.517,55.058 35.517,55.688C35.517,56.317 35.767,56.92 36.212,57.365C36.657,57.81 37.26,58.06 37.89,58.06ZM37.89,68.606L45.8,68.606C46.429,68.606 47.033,68.356 47.478,67.911C47.923,67.466 48.173,66.863 48.173,66.233C48.173,65.604 47.923,65 47.478,64.555C47.033,64.11 46.429,63.86 45.8,63.86L37.89,63.86C37.26,63.86 36.657,64.11 36.212,64.555C35.767,65 35.517,65.604 35.517,66.233C35.517,66.863 35.767,67.466 36.212,67.911C36.657,68.356 37.26,68.606 37.89,68.606ZM37.89,79.155L45.8,79.155C46.429,79.155 47.033,78.905 47.478,78.46C47.923,78.015 48.173,77.412 48.173,76.782C48.173,76.153 47.923,75.549 47.478,75.104C47.033,74.659 46.429,74.409 45.8,74.409L37.89,74.409C37.578,74.409 37.269,74.471 36.981,74.59C36.694,74.709 36.432,74.884 36.212,75.104C35.991,75.325 35.817,75.586 35.697,75.874C35.578,76.162 35.517,76.471 35.517,76.782C35.517,77.094 35.578,77.403 35.697,77.69C35.817,77.978 35.991,78.24 36.212,78.46C36.432,78.681 36.694,78.856 36.981,78.975C37.269,79.094 37.578,79.155 37.89,79.155ZM37.89,89.701L45.8,89.701C46.429,89.701 47.033,89.451 47.478,89.006C47.923,88.561 48.173,87.958 48.173,87.328C48.173,86.699 47.923,86.095 47.478,85.65C47.033,85.205 46.429,84.955 45.8,84.955L37.89,84.955C37.26,84.955 36.657,85.205 36.212,85.65C35.767,86.095 35.517,86.699 35.517,87.328C35.517,87.958 35.767,88.561 36.212,89.006C36.657,89.451 37.26,89.701 37.89,89.701ZM67.157,89.701L124.11,89.701C124.74,89.701 125.343,89.451 125.788,89.006C126.233,88.561 126.483,87.958 126.483,87.328C126.483,86.699 126.233,86.095 125.788,85.65C125.343,85.205 124.74,84.955 124.11,84.955L121.737,84.955L121.737,68.344C121.737,67.714 121.487,67.111 121.042,66.666C120.597,66.221 119.994,65.971 119.364,65.971L109.872,65.971C109.243,65.971 108.639,66.221 108.194,66.666C107.749,67.111 107.499,67.714 107.499,68.344L107.499,84.955L102.753,84.955L102.753,55.688C102.753,55.058 102.503,54.455 102.058,54.01C101.613,53.565 101.009,53.315 100.38,53.315L90.888,53.315C90.258,53.315 89.655,53.565 89.21,54.01C88.765,54.455 88.515,55.058 88.515,55.688L88.515,84.955L83.769,84.955L83.769,65.18C83.769,64.55 83.519,63.947 83.074,63.502C82.629,63.057 82.025,62.807 81.396,62.807L71.903,62.807C71.274,62.807 70.67,63.057 70.225,63.502C69.78,63.947 69.53,64.55 69.53,65.18L69.53,84.955L67.157,84.955C66.528,84.955 65.924,85.205 65.479,85.65C65.034,86.095 64.784,86.699 64.784,87.328C64.784,87.958 65.034,88.561 65.479,89.006C65.924,89.451 66.528,89.701 67.157,89.701ZM112.245,70.717L116.991,70.717L116.991,84.955L112.245,84.955L112.245,70.717ZM93.261,58.06L98.007,58.06L98.007,84.955L93.261,84.955L93.261,58.06ZM74.276,67.553L79.022,67.553L79.022,84.955L74.276,84.955L74.276,67.553Z" style="fill:rgb(145,84,224);fill-rule:nonzero;"/>
        </g>
    </g>
</svg>
