<svg width="162" height="162" viewBox="0 0 162 162" fill="none" xmlns="http://www.w3.org/2000/svg">
<g clip-path="url(#clip0_72_164)">
<g clip-path="url(#clip1_72_164)">
<path d="M159.627 118.178H152.982V54.1055C152.979 51.7988 152.061 49.5876 150.43 47.9565C148.799 46.3254 146.588 45.4076 144.281 45.4043H137.162V28.793C137.16 27.325 136.577 25.9175 135.538 24.8795C134.5 23.8414 133.093 23.2575 131.625 23.2559H30.375C28.907 23.2575 27.4996 23.8414 26.4615 24.8795C25.4235 25.9175 24.8396 27.325 24.8379 28.793V45.4043H17.7188C15.4121 45.4076 13.2009 46.3254 11.5698 47.9565C9.93873 49.5876 9.02093 51.7988 9.01758 54.1055V118.178H2.37305C1.74368 118.178 1.14008 118.428 0.695049 118.873C0.250017 119.318 0 119.921 0 120.551L0 130.043C0.00334785 132.35 0.921151 134.561 2.55221 136.192C4.18327 137.823 6.39451 138.741 8.70117 138.744H153.299C155.605 138.741 157.817 137.823 159.448 136.192C161.079 134.561 161.997 132.35 162 130.043V120.551C162 119.921 161.75 119.318 161.305 118.873C160.86 118.428 160.256 118.178 159.627 118.178ZM29.584 40.6582H132.416V101.566C132.416 101.776 132.333 101.977 132.184 102.126C132.036 102.274 131.835 102.357 131.625 102.357H30.375C30.1652 102.357 29.964 102.274 29.8157 102.126C29.6673 101.977 29.584 101.776 29.584 101.566V40.6582ZM30.375 28.002H131.625C131.835 28.002 132.036 28.0853 132.184 28.2336C132.333 28.382 132.416 28.5832 132.416 28.793V35.9121H29.584V28.793C29.584 28.5832 29.6673 28.382 29.8157 28.2336C29.964 28.0853 30.1652 28.002 30.375 28.002ZM13.7637 54.1055C13.7653 53.057 14.1826 52.052 14.9239 51.3107C15.6653 50.5693 16.6703 50.1521 17.7188 50.1504H24.8379V101.566C24.8396 103.034 25.4235 104.442 26.4615 105.48C27.4996 106.518 28.907 107.102 30.375 107.104H131.625C133.093 107.102 134.5 106.518 135.538 105.48C136.577 104.442 137.16 103.034 137.162 101.566V50.1504H144.281C145.33 50.1521 146.335 50.5693 147.076 51.3107C147.817 52.052 148.235 53.057 148.236 54.1055V118.178H13.7637V54.1055ZM157.254 130.043C157.252 131.091 156.835 132.096 156.094 132.838C155.352 133.579 154.347 133.996 153.299 133.998H8.70117C7.65273 133.996 6.64772 133.579 5.90636 132.838C5.165 132.096 4.74777 131.091 4.74609 130.043V122.924H157.254V130.043Z" fill="#9ACC32"/>
<path d="M56.083 94.4473C56.7124 94.4473 57.316 94.1973 57.761 93.7522C58.206 93.3072 58.4561 92.7036 58.4561 92.0742V50.9414C58.4561 50.312 58.206 49.7084 57.761 49.2634C57.316 48.8184 56.7124 48.5684 56.083 48.5684C55.4536 48.5684 54.85 48.8184 54.405 49.2634C53.96 49.7084 53.71 50.312 53.71 50.9414V92.0742C53.71 92.7036 53.96 93.3072 54.405 93.7522C54.85 94.1973 55.4536 94.4473 56.083 94.4473ZM37.8896 58.0605H45.7998C46.4292 58.0605 47.0328 57.8105 47.4778 57.3655C47.9228 56.9205 48.1729 56.3169 48.1729 55.6875C48.1729 55.0581 47.9228 54.4545 47.4778 54.0095C47.0328 53.5645 46.4292 53.3145 45.7998 53.3145H37.8896C37.2603 53.3145 36.6567 53.5645 36.2117 54.0095C35.7666 54.4545 35.5166 55.0581 35.5166 55.6875C35.5166 56.3169 35.7666 56.9205 36.2117 57.3655C36.6567 57.8105 37.2603 58.0605 37.8896 58.0605ZM37.8896 68.6064H45.7998C46.4292 68.6064 47.0328 68.3564 47.4778 67.9113C47.9228 67.4663 48.1729 66.8627 48.1729 66.2333C48.1729 65.6039 47.9228 65.0004 47.4778 64.5553C47.0328 64.1103 46.4292 63.8603 45.7998 63.8603H37.8896C37.2603 63.8603 36.6567 64.1103 36.2117 64.5553C35.7666 65.0004 35.5166 65.6039 35.5166 66.2333C35.5166 66.8627 35.7666 67.4663 36.2117 67.9113C36.6567 68.3564 37.2603 68.6064 37.8896 68.6064ZM37.8896 79.1554H45.7998C46.4292 79.1554 47.0328 78.9053 47.4778 78.4603C47.9228 78.0153 48.1729 77.4117 48.1729 76.7823C48.1729 76.1529 47.9228 75.5493 47.4778 75.1043C47.0328 74.6593 46.4292 74.4093 45.7998 74.4093H37.8896C37.578 74.4093 37.2694 74.4706 36.9815 74.5899C36.6936 74.7092 36.432 74.8839 36.2117 75.1043C35.9913 75.3247 35.8165 75.5863 35.6972 75.8742C35.578 76.1621 35.5166 76.4707 35.5166 76.7823C35.5166 77.0939 35.578 77.4025 35.6972 77.6904C35.8165 77.9783 35.9913 78.2399 36.2117 78.4603C36.432 78.6807 36.6936 78.8555 36.9815 78.9747C37.2694 79.094 37.578 79.1554 37.8896 79.1554ZM37.8896 89.7012H45.7998C46.4292 89.7012 47.0328 89.4512 47.4778 89.0061C47.9228 88.5611 48.1729 87.9575 48.1729 87.3281C48.1729 86.6988 47.9228 86.0952 47.4778 85.6501C47.0328 85.2051 46.4292 84.9551 45.7998 84.9551H37.8896C37.2603 84.9551 36.6567 85.2051 36.2117 85.6501C35.7666 86.0952 35.5166 86.6988 35.5166 87.3281C35.5166 87.9575 35.7666 88.5611 36.2117 89.0061C36.6567 89.4512 37.2603 89.7012 37.8896 89.7012ZM67.1572 89.7012H124.11C124.74 89.7012 125.343 89.4512 125.788 89.0061C126.233 88.5611 126.483 87.9575 126.483 87.3281C126.483 86.6988 126.233 86.0952 125.788 85.6501C125.343 85.2051 124.74 84.9551 124.11 84.9551H121.737V68.3438C121.737 67.7144 121.487 67.1108 121.042 66.6658C120.597 66.2207 119.994 65.9707 119.364 65.9707H109.872C109.243 65.9707 108.639 66.2207 108.194 66.6658C107.749 67.1108 107.499 67.7144 107.499 68.3438V84.9551H102.753V55.6875C102.753 55.0581 102.503 54.4545 102.058 54.0095C101.613 53.5645 101.009 53.3145 100.38 53.3145H90.8877C90.2583 53.3145 89.6547 53.5645 89.2097 54.0095C88.7647 54.4545 88.5146 55.0581 88.5146 55.6875V84.9551H83.7686V65.1797C83.7686 64.5503 83.5185 63.9467 83.0735 63.5017C82.6285 63.0567 82.0249 62.8066 81.3955 62.8066H71.9033C71.2739 62.8066 70.6704 63.0567 70.2253 63.5017C69.7803 63.9467 69.5303 64.5503 69.5303 65.1797V84.9551H67.1572C66.5279 84.9551 65.9243 85.2051 65.4792 85.6501C65.0342 86.0952 64.7842 86.6988 64.7842 87.3281C64.7842 87.9575 65.0342 88.5611 65.4792 89.0061C65.9243 89.4512 66.5279 89.7012 67.1572 89.7012ZM112.245 70.7168H116.991V84.9551H112.245V70.7168ZM93.2607 58.0605H98.0068V84.9551H93.2607V58.0605ZM74.2764 67.5527H79.0225V84.9551H74.2764V67.5527Z" fill="#9ACC32"/>
</g>
</g>
<defs>
<clipPath id="clip0_72_164">
<rect width="162" height="162" fill="white"/>
</clipPath>
<clipPath id="clip1_72_164">
<rect width="162" height="162" fill="white"/>
</clipPath>
</defs>
</svg>
