<?xml version="1.0" encoding="UTF-8" standalone="no"?>
<!DOCTYPE svg PUBLIC "-//W3C//DTD SVG 1.1//EN" "http://www.w3.org/Graphics/SVG/1.1/DTD/svg11.dtd">
<svg width="100%" height="100%" viewBox="0 0 162 162" version="1.1" xmlns="http://www.w3.org/2000/svg" xmlns:xlink="http://www.w3.org/1999/xlink" xml:space="preserve" xmlns:serif="http://www.serif.com/" style="fill-rule:evenodd;clip-rule:evenodd;stroke-linejoin:round;stroke-miterlimit:2;">
    <path d="M151.809,24L93.106,24C91.359,24 89.942,25.073 89.942,26.396C89.942,27.72 91.359,28.793 93.106,28.793L151.809,28.793C153.939,28.793 155.672,30.104 155.672,31.716L155.672,95.228L6.328,95.228L6.328,31.716C6.328,30.104 8.061,28.793 10.191,28.793L65.287,28.793C67.035,28.793 68.451,27.72 68.451,26.396C68.451,25.073 67.035,24 65.287,24L10.191,24C4.572,24 0,27.462 0,31.716L0,108.533C0,112.79 4.572,116.252 10.191,116.252L61.96,116.252L60.009,128.932C59.557,131.936 56.208,134.199 52.217,134.199L52.208,134.199C52.181,134.203 52.123,134.2 52.08,134.201C52.046,134.202 52.013,134.206 51.979,134.207L47.678,134.207C45.931,134.207 44.514,135.28 44.514,136.604C44.514,137.927 45.931,139 47.678,139L114.323,139C116.07,139 117.487,137.927 117.487,136.604C117.487,135.28 116.07,134.207 114.323,134.207L110.021,134.207C109.988,134.205 109.954,134.202 109.921,134.201C109.879,134.199 109.837,134.199 109.795,134.199L109.783,134.199C105.793,134.199 102.444,131.936 101.992,128.932L101.991,128.926L100.041,116.252L151.809,116.252C157.428,116.252 162,112.79 162,108.533L162,31.716C162,27.462 157.428,24 151.809,24ZM95.705,129.479C95.957,131.17 96.738,132.79 97.983,134.207L64.019,134.207C65.263,132.791 66.043,131.171 66.295,129.481L68.331,116.252L93.67,116.252L95.705,129.479ZM155.672,108.533C155.672,110.147 153.939,111.459 151.809,111.459L10.191,111.459C8.061,111.459 6.328,110.147 6.328,108.533L6.328,100.021L155.672,100.021L155.672,108.533Z" style="fill:rgb(145,84,224);fill-rule:nonzero;"/>
    <path d="M137.527,79.443C143.244,75.112 146.393,69.355 146.393,63.233C146.393,50.593 132.815,40.309 116.125,40.309C99.437,40.309 85.86,50.593 85.86,63.233C85.86,75.872 99.437,86.155 116.125,86.155C124.21,86.155 131.811,83.772 137.527,79.443ZM140.039,64.071C139.821,67.752 138.099,71.323 135.139,74.246L119.289,62.241L119.289,45.265C131.016,46.446 140.066,54.272 140.066,63.234C140.066,63.514 140.055,63.793 140.039,64.071ZM92.189,63.233C92.189,54.048 101.254,46.442 112.961,45.265L112.961,63.233C112.961,63.869 113.294,64.478 113.888,64.928L130.664,77.634C126.51,80.05 121.452,81.362 116.125,81.362C102.927,81.363 92.189,73.23 92.189,63.233ZM51.492,63.232L51.492,81.251L42.611,81.251L42.611,45.153C42.611,43.83 41.194,42.757 39.447,42.757L23.81,42.757C22.063,42.757 20.646,43.83 20.646,45.153L20.646,81.251L18.318,81.251C16.571,81.251 15.154,82.324 15.154,83.647C15.154,84.97 16.571,86.044 18.318,86.044L75.565,86.044C77.312,86.044 78.729,84.97 78.729,83.647C78.729,82.324 77.312,81.251 75.565,81.251L73.457,81.251L73.457,63.232C73.457,61.909 72.04,60.836 70.293,60.836L54.656,60.836C52.909,60.836 51.492,61.909 51.492,63.232ZM26.974,81.251L26.974,47.55L36.283,47.55L36.283,81.251L26.974,81.251ZM57.82,65.629L67.129,65.629L67.129,81.251L57.82,81.251L57.82,65.629ZM76.444,27.312C77.107,28.517 78.981,29.11 80.576,28.609C82.167,28.108 82.948,26.685 82.287,25.479C81.628,24.274 79.747,23.682 78.155,24.182C76.566,24.682 75.78,26.107 76.444,27.312Z" style="fill:rgb(145,84,224);fill-rule:nonzero;"/>
</svg>
