<svg width="162" height="162" viewBox="0 0 162 162" fill="none" xmlns="http://www.w3.org/2000/svg">
<path d="M151.809 24H93.1057C91.3585 24 89.9416 25.0731 89.9416 26.3964C89.9416 27.7197 91.3585 28.7928 93.1057 28.7928H151.809C153.939 28.7928 155.672 30.1044 155.672 31.7164V95.2284H6.32812V31.7164C6.32812 30.1041 8.0614 28.7928 10.1914 28.7928H65.2873C67.0345 28.7928 68.4513 27.7197 68.4513 26.3964C68.4513 25.0731 67.0345 24 65.2873 24H10.1914C4.57175 24 0 27.4616 0 31.7164V108.533C0 112.79 4.57175 116.252 10.1914 116.252H61.9596L60.0087 128.932C59.5565 131.936 56.2077 134.199 52.2172 134.199H52.2083C52.1814 134.203 52.1226 134.2 52.0795 134.201C52.046 134.202 52.0128 134.206 51.9792 134.207H47.6777C45.9305 134.207 44.5136 135.28 44.5136 136.604C44.5136 137.927 45.9305 139 47.6777 139H114.323C116.07 139 117.487 137.927 117.487 136.604C117.487 135.28 116.07 134.207 114.323 134.207H110.021C109.988 134.205 109.954 134.202 109.921 134.201C109.879 134.199 109.837 134.199 109.795 134.199H109.783C105.793 134.199 102.444 131.936 101.992 128.932L101.991 128.926L100.041 116.252H151.809C157.428 116.252 162 112.79 162 108.533V31.7164C162 27.4616 157.428 24 151.809 24ZM95.7047 129.479C95.9571 131.17 96.7381 132.79 97.9828 134.207H64.0185C65.2629 132.791 66.0434 131.171 66.295 129.481L68.3305 116.252H93.6695L95.7047 129.479ZM155.672 108.533C155.672 110.147 153.939 111.459 151.809 111.459H10.1914C8.0614 111.459 6.32812 110.147 6.32812 108.533V100.021H155.672V108.533Z" fill="#9ACC32"/>
<path d="M137.527 79.4426C143.244 75.1121 146.393 69.3554 146.393 63.2333C146.393 50.5925 132.815 40.3085 116.125 40.3085C99.4371 40.3085 85.8604 50.5925 85.8604 63.2333C85.8604 75.8724 99.4371 86.1552 116.125 86.1552C124.21 86.1554 131.811 83.7715 137.527 79.4426ZM140.039 64.0711C139.821 67.7517 138.099 71.3231 135.139 74.2455L119.289 62.2407V45.2648C131.016 46.446 140.066 54.2722 140.066 63.2335C140.066 63.5137 140.055 63.7929 140.039 64.0711ZM92.1885 63.2333C92.1885 54.0483 101.254 46.4417 112.961 45.2646V63.2333C112.961 63.8688 113.294 64.4782 113.888 64.9278L130.664 77.634C126.51 80.0499 121.452 81.3624 116.125 81.3624C102.927 81.3626 92.1885 73.2297 92.1885 63.2333ZM51.492 63.2321V81.2507H42.6108V45.1534C42.6108 43.8301 41.194 42.757 39.4468 42.757H23.81C22.0628 42.757 20.6459 43.8301 20.6459 45.1534V81.2507H18.3181C16.5709 81.2507 15.1541 82.3238 15.1541 83.6471C15.1541 84.9704 16.5709 86.0435 18.3181 86.0435H75.5645C77.3117 86.0435 78.7286 84.9704 78.7286 83.6471C78.7286 82.3238 77.3117 81.2507 75.5645 81.2507H73.4573V63.2321C73.4573 61.9088 72.0404 60.8357 70.2932 60.8357H54.6564C52.9089 60.8357 51.492 61.9086 51.492 63.2321ZM26.974 81.2507V47.5498H36.2827V81.2507H26.974ZM57.8202 65.6285H67.1288V81.2507H57.8202V65.6285ZM76.4435 27.3121C77.1067 28.517 78.9805 29.1101 80.5761 28.6086C82.167 28.1084 82.9482 26.685 82.2875 25.4786C81.6275 24.2737 79.7471 23.6816 78.1553 24.1822C76.566 24.6821 75.7797 26.1067 76.4435 27.3121Z" fill="#9ACC32"/>
</svg>
