<svg width="162" height="162" viewBox="0 0 162 162" fill="none" xmlns="http://www.w3.org/2000/svg">
<path d="M81 20.9464C81.6294 20.9464 82.233 20.6964 82.678 20.2514C83.123 19.8064 83.373 19.2028 83.373 18.5734V6.94989C83.373 6.32052 83.123 5.71693 82.678 5.27189C82.233 4.82686 81.6294 4.57684 81 4.57684C80.3706 4.57684 79.767 4.82686 79.322 5.27189C78.877 5.71693 78.6269 6.32052 78.6269 6.94989V18.5734C78.6269 19.2028 78.877 19.8064 79.322 20.2514C79.767 20.6964 80.3706 20.9464 81 20.9464ZM26.0522 64.2704H37.6757C38.3051 64.2704 38.9087 64.0203 39.3537 63.5753C39.7988 63.1303 40.0488 62.5267 40.0488 61.8973C40.0488 61.2679 39.7988 60.6644 39.3537 60.2193C38.9087 59.7743 38.3051 59.5243 37.6757 59.5243H26.0522C25.4229 59.5243 24.8193 59.7743 24.3742 60.2193C23.9292 60.6644 23.6792 61.2679 23.6792 61.8973C23.6792 62.5267 23.9292 63.1303 24.3742 63.5753C24.8193 64.0203 25.4229 64.2704 26.0522 64.2704ZM124.324 64.2704H135.948C137.259 64.2704 138.321 63.2079 138.321 61.8973C138.321 60.5868 137.259 59.5243 135.948 59.5243H124.324C123.013 59.5243 121.951 60.5868 121.951 61.8973C121.951 63.2079 123.013 64.2704 124.324 64.2704ZM111.635 33.6359C111.947 33.6363 112.255 33.5751 112.543 33.4558C112.831 33.3365 113.093 33.1615 113.313 32.9408L121.532 24.7215C121.752 24.5011 121.927 24.2396 122.046 23.9516C122.166 23.6637 122.227 23.3551 122.227 23.0435C122.227 22.7319 122.166 22.4233 122.046 22.1354C121.927 21.8475 121.752 21.586 121.532 21.3657C121.311 21.1453 121.05 20.9704 120.762 20.8511C120.474 20.7319 120.165 20.6705 119.854 20.6705C119.542 20.6705 119.234 20.7319 118.946 20.8511C118.658 20.9704 118.396 21.1453 118.176 21.3657L109.957 29.585C109.736 29.8053 109.562 30.0669 109.442 30.3548C109.323 30.6427 109.262 30.9513 109.262 31.2629C109.262 31.5746 109.323 31.8831 109.443 32.171C109.562 32.4589 109.737 32.7205 109.957 32.9408C110.177 33.1615 110.439 33.3366 110.727 33.4559C111.014 33.5752 111.323 33.6364 111.635 33.6359ZM48.6873 32.9408C49.1505 33.404 49.758 33.6359 50.3652 33.6359C50.9724 33.6359 51.5799 33.4043 52.0431 32.9408C52.4881 32.4957 52.7381 31.8922 52.7381 31.2629C52.7381 30.6335 52.4881 30.03 52.0431 29.585L43.8238 21.3657C43.3788 20.9207 42.7753 20.6707 42.1459 20.6707C41.5166 20.6707 40.9131 20.9207 40.468 21.3657C40.0231 21.8107 39.7731 22.4143 39.7731 23.0436C39.7731 23.6729 40.0231 24.2765 40.468 24.7215L48.6873 32.9408ZM28.1601 130.518H52.8398C53.4692 130.518 54.0728 130.268 54.5178 129.823C54.9629 129.378 55.2129 128.774 55.2129 128.145C55.2129 127.515 54.9629 126.912 54.5178 126.467C54.0728 126.022 53.4692 125.772 52.8398 125.772H28.1601C27.5308 125.772 26.9272 126.022 26.4821 126.467C26.0371 126.912 25.7871 127.515 25.7871 128.145C25.7871 128.774 26.0371 129.378 26.4821 129.823C26.9272 130.268 27.5308 130.518 28.1601 130.518ZM28.1601 138.747H52.8398C53.4692 138.747 54.0728 138.497 54.5178 138.052C54.9629 137.607 55.2129 137.004 55.2129 136.374C55.2129 135.745 54.9629 135.141 54.5178 134.696C54.0728 134.251 53.4692 134.001 52.8398 134.001H28.1601C27.5308 134.001 26.9272 134.251 26.4821 134.696C26.0371 135.141 25.7871 135.745 25.7871 136.374C25.7871 137.004 26.0371 137.607 26.4821 138.052C26.9272 138.497 27.5308 138.747 28.1601 138.747Z" fill="#9ACC32"/>
<path d="M137.162 107.747H132.505C133.515 104.406 134.026 100.942 134.026 97.4101C134.026 83.9173 126.516 72.1467 115.458 66.0546C115.647 64.5792 115.746 63.0829 115.746 61.5717C115.746 54.569 113.67 47.8175 109.743 42.0469C109.569 41.7858 109.345 41.5618 109.084 41.3878C108.823 41.2137 108.53 41.0932 108.222 41.033C107.914 40.9729 107.598 40.9744 107.291 41.0374C106.983 41.1004 106.692 41.2237 106.432 41.4002C106.173 41.5767 105.951 41.8028 105.78 42.0655C105.608 42.3283 105.491 42.6223 105.434 42.9308C105.377 43.2392 105.382 43.5559 105.448 43.8625C105.514 44.1691 105.64 44.4596 105.819 44.7171C109.208 49.697 110.999 55.5252 110.999 61.5717C110.999 69.524 107.917 77.0165 102.32 82.6691C98.0524 86.9801 94.7282 92.0492 92.6089 97.4408H83.373V82.577C93.9176 81.3933 102.142 72.427 102.142 61.5717C102.142 49.914 92.6577 40.4298 81 40.4298C69.3423 40.4298 59.8581 49.914 59.8581 61.5717C59.8581 72.427 68.0827 81.3933 78.627 82.577V97.4408H69.3819C67.2151 91.9296 63.9504 86.9168 59.8482 82.8387C53.9261 76.951 50.7876 69.1054 51.0116 60.7472C51.217 53.0756 54.3532 45.8356 59.8419 40.3608C65.3306 34.886 72.5788 31.7681 80.2511 31.5815C86.9412 31.4198 93.3095 33.4087 98.6817 37.3356C98.9332 37.5217 99.2189 37.6562 99.5226 37.7314C99.8262 37.8066 100.142 37.8211 100.451 37.7739C100.76 37.7268 101.057 37.6189 101.324 37.4566C101.592 37.2944 101.824 37.0808 102.009 36.8283C102.194 36.5757 102.326 36.2892 102.4 35.9851C102.473 35.6811 102.486 35.3655 102.437 35.0565C102.388 34.7476 102.278 34.4514 102.115 34.1849C101.951 33.9185 101.736 33.687 101.482 33.504C95.2576 28.9543 87.8695 26.6465 80.1356 26.837C71.2414 27.0534 62.844 30.6626 56.4899 37.0006C50.1358 43.3385 46.5051 51.7267 46.2671 60.6203C46.1535 64.8668 46.7895 68.9994 48.1184 72.8763C36.4127 76.8877 27.9738 87.9999 27.9738 101.048C27.9738 103.314 28.2294 105.557 28.736 107.748H24.8379C11.1422 107.748 0 118.89 0 132.586C0 146.282 11.1422 157.424 24.8379 157.424H43.6941C44.3235 157.424 44.9271 157.174 45.3721 156.729C45.8172 156.284 46.0672 155.68 46.0672 155.051C46.0672 154.421 45.8172 153.818 45.3721 153.373C44.9271 152.928 44.3235 152.678 43.6941 152.678H24.8379C13.7592 152.678 4.74609 143.665 4.74609 132.586C4.74609 121.507 13.7592 112.494 24.8379 112.494H31.8919C32.271 112.494 32.6447 112.403 32.9815 112.229C33.3183 112.055 33.6085 111.803 33.8278 111.493C34.047 111.184 34.189 110.827 34.2418 110.451C34.2945 110.076 34.2566 109.693 34.1311 109.335C33.1959 106.672 32.7188 103.871 32.7202 101.048C32.7202 89.961 39.9722 80.5438 49.9792 77.2677C51.635 80.526 53.821 83.5392 56.5026 86.2049C60.0283 89.71 62.8579 94.0008 64.7832 98.7245C62.5178 100.175 61.0117 102.712 61.0117 105.596C61.0117 107.853 61.9343 109.899 63.4217 111.377C61.9343 112.855 61.0117 114.901 61.0117 117.158C61.0117 121.435 64.3225 124.952 68.5156 125.285L69.3898 129.336C70.5668 134.789 75.4705 138.748 81.0497 138.748C83.4408 138.748 85.7012 138.023 87.5996 136.769C91.4234 141.996 97.5987 145.4 104.557 145.4C113.946 145.4 122.263 139.087 124.783 130.048C124.952 129.441 124.873 128.793 124.564 128.245C124.255 127.696 123.741 127.294 123.134 127.124C122.834 127.041 122.52 127.017 122.211 127.054C121.902 127.092 121.603 127.19 121.331 127.343C121.06 127.496 120.821 127.701 120.629 127.946C120.437 128.192 120.295 128.473 120.211 128.773C118.261 135.768 111.824 140.654 104.557 140.654C95.5936 140.654 88.3017 133.362 88.3017 124.399C88.3017 115.436 95.5936 108.144 104.557 108.144C111.492 108.144 117.669 112.55 119.926 119.108C120.026 119.404 120.184 119.678 120.39 119.913C120.596 120.149 120.847 120.341 121.127 120.479C121.408 120.617 121.713 120.698 122.026 120.718C122.338 120.737 122.651 120.695 122.947 120.593C123.243 120.492 123.515 120.332 123.749 120.125C123.983 119.917 124.174 119.665 124.31 119.383C124.447 119.102 124.526 118.796 124.544 118.484C124.561 118.171 124.517 117.858 124.413 117.563C121.497 109.09 113.517 103.397 104.556 103.397C103.265 103.397 102.002 103.521 100.775 103.745C100.285 101.642 98.9795 99.8493 97.2101 98.7191C99.1003 94.0951 101.998 89.7401 105.693 86.0078C109.909 81.7493 112.892 76.589 114.463 70.9671C123.344 76.4321 129.28 86.2391 129.28 97.4095C129.28 101.489 128.495 105.461 126.949 109.216C126.8 109.577 126.743 109.968 126.782 110.356C126.821 110.744 126.954 111.116 127.171 111.44C127.388 111.764 127.681 112.03 128.025 112.213C128.369 112.397 128.753 112.493 129.143 112.493H137.162C148.241 112.493 157.254 121.506 157.254 132.585C157.254 143.663 148.241 152.676 137.162 152.676H54.7683C54.139 152.676 53.5354 152.926 53.0903 153.372C52.6453 153.817 52.3953 154.42 52.3953 155.05C52.3953 155.679 52.6453 156.282 53.0903 156.728C53.5354 157.173 54.139 157.423 54.7683 157.423H137.162C150.858 157.423 162 146.28 162 132.585C162 118.89 150.858 107.747 137.162 107.747ZM81 67.3784C77.7983 67.3784 75.1933 64.7734 75.1933 61.5717C75.1933 58.37 77.7983 55.765 81 55.765C84.2017 55.765 86.807 58.37 86.807 61.5717C86.807 64.7734 84.2017 67.3784 81 67.3784ZM64.6041 61.5717C64.6041 52.531 71.9593 45.1759 81 45.1759C90.0407 45.1759 97.3959 52.531 97.3959 61.5717C97.3959 69.8065 91.293 76.6403 83.373 77.7939V71.8521C88.0524 70.7722 91.5531 66.5744 91.5531 61.5717C91.5531 55.753 86.819 51.0189 81 51.0189C75.1813 51.0189 70.4472 55.753 70.4472 61.5717C70.4472 66.5744 73.9476 70.7722 78.627 71.8521V77.7939C70.707 76.6403 64.6041 69.8062 64.6041 61.5717ZM81.0497 134.001C77.6904 134.001 74.7377 131.618 74.0289 128.334L73.3768 125.313H83.5787C83.6848 127.834 84.2479 130.316 85.2405 132.636C84.0495 133.498 82.5953 134.001 81.0497 134.001ZM83.9122 120.566H69.1658C67.2866 120.566 65.7574 119.037 65.7574 117.158C65.7574 115.279 67.2866 113.75 69.1658 113.75H86.4666C85.2219 115.854 84.3573 118.162 83.9122 120.566ZM90.2925 109.004H69.1655C67.2863 109.004 65.7571 107.474 65.7571 105.595C65.7571 103.716 67.2863 102.187 69.1655 102.187H92.8342C94.5567 102.187 95.9809 103.472 96.2077 105.133C94.0321 106.081 92.0322 107.389 90.2925 109.004Z" fill="#9ACC32"/>
<path d="M111.297 118.386L103.373 126.31L97.8152 120.752C97.3696 120.311 96.767 120.063 96.1394 120.065C95.5119 120.066 94.9104 120.316 94.4666 120.76C94.0228 121.203 93.7729 121.805 93.7715 122.432C93.7701 123.06 94.0173 123.662 94.4591 124.108L101.695 131.344C101.915 131.564 102.177 131.739 102.465 131.859C102.753 131.978 103.062 132.039 103.373 132.039C103.685 132.039 103.994 131.978 104.282 131.859C104.569 131.739 104.831 131.564 105.051 131.344L114.654 121.741C115.099 121.296 115.349 120.693 115.349 120.064C115.349 119.434 115.099 118.831 114.654 118.386C114.209 117.941 113.605 117.691 112.976 117.691C112.346 117.691 111.743 117.941 111.297 118.386Z" fill="#9ACC32"/>
</svg>
