<svg width="162" height="162" viewBox="0 0 162 162" fill="none" xmlns="http://www.w3.org/2000/svg">
<path d="M81.0005 20.9465C81.6298 20.9465 82.2334 20.6965 82.6785 20.2514C83.1235 19.8064 83.3735 19.2028 83.3735 18.5735V6.94995C83.3735 6.32058 83.1235 5.71699 82.6785 5.27195C82.2334 4.82692 81.6298 4.5769 81.0005 4.5769C80.3711 4.5769 79.7675 4.82692 79.3225 5.27195C78.8774 5.71699 78.6274 6.32058 78.6274 6.94995V18.5735C78.6274 19.2028 78.8774 19.8064 79.3225 20.2514C79.7675 20.6965 80.3711 20.9465 81.0005 20.9465ZM26.0527 64.2704H37.6762C38.3056 64.2704 38.9092 64.0204 39.3542 63.5754C39.7993 63.1303 40.0493 62.5268 40.0493 61.8974C40.0493 61.268 39.7993 60.6644 39.3542 60.2194C38.9092 59.7743 38.3056 59.5243 37.6762 59.5243H26.0527C25.4234 59.5243 24.8198 59.7743 24.3747 60.2194C23.9297 60.6644 23.6797 61.268 23.6797 61.8974C23.6797 62.5268 23.9297 63.1303 24.3747 63.5754C24.8198 64.0204 25.4234 64.2704 26.0527 64.2704ZM124.325 64.2704H135.948C137.259 64.2704 138.321 63.2079 138.321 61.8974C138.321 60.5868 137.259 59.5243 135.948 59.5243H124.325C123.014 59.5243 121.952 60.5868 121.952 61.8974C121.952 63.2079 123.014 64.2704 124.325 64.2704ZM111.635 33.636C111.947 33.6364 112.256 33.5752 112.544 33.4559C112.832 33.3366 113.093 33.1615 113.313 32.9408L121.532 24.7215C121.753 24.5012 121.928 24.2396 122.047 23.9517C122.166 23.6638 122.228 23.3552 122.227 23.0436C122.227 22.7319 122.166 22.4234 122.047 22.1355C121.927 21.8476 121.753 21.586 121.532 21.3657C121.312 21.1453 121.05 20.9705 120.762 20.8512C120.474 20.7319 120.166 20.6705 119.854 20.6705C119.543 20.6705 119.234 20.7319 118.946 20.8512C118.658 20.9705 118.397 21.1453 118.176 21.3657L109.957 29.585C109.737 29.8054 109.562 30.0669 109.443 30.3549C109.324 30.6428 109.262 30.9514 109.262 31.263C109.262 31.5746 109.324 31.8832 109.443 32.1711C109.562 32.459 109.737 32.7205 109.958 32.9408C110.178 33.1616 110.439 33.3366 110.727 33.4559C111.015 33.5752 111.324 33.6364 111.635 33.636ZM48.6878 32.9408C49.151 33.404 49.7585 33.636 50.3657 33.636C50.9729 33.636 51.5804 33.4044 52.0436 32.9408C52.4886 32.4958 52.7386 31.8922 52.7386 31.2629C52.7386 30.6336 52.4886 30.03 52.0436 29.585L43.8243 21.3657C43.3793 20.9208 42.7757 20.6708 42.1464 20.6708C41.5171 20.6708 40.9135 20.9208 40.4685 21.3657C40.0235 21.8108 39.7736 22.4143 39.7736 23.0436C39.7736 23.673 40.0235 24.2765 40.4685 24.7215L48.6878 32.9408ZM28.1606 130.518H52.8403C53.4697 130.518 54.0733 130.268 54.5183 129.823C54.9634 129.378 55.2134 128.774 55.2134 128.145C55.2134 127.515 54.9634 126.912 54.5183 126.467C54.0733 126.022 53.4697 125.772 52.8403 125.772H28.1606C27.5313 125.772 26.9277 126.022 26.4826 126.467C26.0376 126.912 25.7876 127.515 25.7876 128.145C25.7876 128.774 26.0376 129.378 26.4826 129.823C26.9277 130.268 27.5313 130.518 28.1606 130.518ZM28.1606 138.747H52.8403C53.4697 138.747 54.0733 138.497 54.5183 138.052C54.9634 137.607 55.2134 137.004 55.2134 136.374C55.2134 135.745 54.9634 135.141 54.5183 134.696C54.0733 134.251 53.4697 134.001 52.8403 134.001H28.1606C27.5313 134.001 26.9277 134.251 26.4826 134.696C26.0376 135.141 25.7876 135.745 25.7876 136.374C25.7876 137.004 26.0376 137.607 26.4826 138.052C26.9277 138.497 27.5313 138.747 28.1606 138.747Z" fill="#9154E0"/>
<path d="M137.162 107.748H132.505C133.515 104.406 134.026 100.943 134.026 97.4102C134.026 83.9174 126.516 72.1468 115.458 66.0547C115.647 64.5793 115.746 63.083 115.746 61.5718C115.746 54.5691 113.67 47.8177 109.743 42.047C109.569 41.786 109.345 41.5619 109.084 41.3879C108.823 41.2139 108.53 41.0933 108.222 41.0331C107.914 40.973 107.598 40.9745 107.291 41.0375C106.983 41.1006 106.692 41.2239 106.432 41.4003C106.173 41.5768 105.951 41.803 105.78 42.0657C105.608 42.3284 105.491 42.6225 105.434 42.9309C105.377 43.2393 105.382 43.556 105.448 43.8626C105.514 44.1692 105.64 44.4597 105.819 44.7172C109.208 49.6971 110.999 55.5253 110.999 61.5718C110.999 69.5241 107.917 77.0166 102.32 82.6692C98.0524 86.9802 94.7282 92.0494 92.6089 97.4409H83.373V82.5771C93.9176 81.3934 102.142 72.4271 102.142 61.5718C102.142 49.9142 92.6577 40.4299 81 40.4299C69.3423 40.4299 59.8581 49.9142 59.8581 61.5718C59.8581 72.4271 68.0827 81.3934 78.627 82.5771V97.4409H69.3819C67.2151 91.9298 63.9504 86.9169 59.8482 82.8388C53.9261 76.9511 50.7876 69.1055 51.0116 60.7473C51.217 53.0757 54.3532 45.8357 59.8419 40.3609C65.3306 34.8861 72.5788 31.7683 80.2511 31.5816C86.9412 31.4199 93.3095 33.4088 98.6817 37.3358C98.9332 37.5218 99.2189 37.6563 99.5226 37.7315C99.8262 37.8067 100.142 37.8212 100.451 37.774C100.76 37.7269 101.057 37.6191 101.324 37.4568C101.592 37.2945 101.824 37.0809 102.009 36.8284C102.194 36.5758 102.326 36.2893 102.4 35.9852C102.473 35.6812 102.486 35.3656 102.437 35.0567C102.388 34.7477 102.278 34.4515 102.115 34.1851C101.951 33.9186 101.736 33.6872 101.482 33.5041C95.2576 28.9545 87.8695 26.6466 80.1356 26.8371C71.2414 27.0535 62.844 30.6627 56.4899 37.0007C50.1358 43.3386 46.5051 51.7269 46.2671 60.6204C46.1535 64.8669 46.7895 68.9995 48.1184 72.8764C36.4127 76.8878 27.9738 88 27.9738 101.049C27.9738 103.314 28.2294 105.557 28.736 107.748H24.8379C11.1422 107.748 0 118.89 0 132.586C0 146.282 11.1422 157.424 24.8379 157.424H43.6941C44.3235 157.424 44.9271 157.174 45.3721 156.729C45.8172 156.284 46.0672 155.68 46.0672 155.051C46.0672 154.422 45.8172 153.818 45.3721 153.373C44.9271 152.928 44.3235 152.678 43.6941 152.678H24.8379C13.7592 152.678 4.74609 143.665 4.74609 132.586C4.74609 121.507 13.7592 112.494 24.8379 112.494H31.8919C32.271 112.494 32.6447 112.403 32.9815 112.229C33.3183 112.055 33.6085 111.803 33.8278 111.493C34.047 111.184 34.189 110.827 34.2418 110.451C34.2945 110.076 34.2566 109.693 34.1311 109.335C33.1959 106.673 32.7188 103.871 32.7202 101.049C32.7202 89.9611 39.9722 80.5439 49.9792 77.2678C51.635 80.5262 53.821 83.5393 56.5026 86.205C60.0283 89.7102 62.8579 94.001 64.7832 98.7246C62.5178 100.175 61.0117 102.712 61.0117 105.596C61.0117 107.853 61.9343 109.899 63.4217 111.377C61.9343 112.855 61.0117 114.901 61.0117 117.158C61.0117 121.436 64.3225 124.952 68.5156 125.285L69.3898 129.336C70.5668 134.79 75.4705 138.748 81.0497 138.748C83.4408 138.748 85.7012 138.023 87.5996 136.769C91.4234 141.996 97.5987 145.4 104.557 145.4C113.946 145.4 122.263 139.087 124.783 130.048C124.952 129.442 124.873 128.793 124.564 128.245C124.255 127.697 123.741 127.294 123.134 127.125C122.834 127.041 122.52 127.017 122.211 127.054C121.902 127.092 121.603 127.19 121.331 127.343C121.06 127.496 120.821 127.701 120.629 127.947C120.437 128.192 120.295 128.473 120.211 128.773C118.261 135.768 111.824 140.654 104.557 140.654C95.5936 140.654 88.3017 133.362 88.3017 124.399C88.3017 115.436 95.5936 108.144 104.557 108.144C111.492 108.144 117.669 112.55 119.926 119.108C120.026 119.405 120.184 119.678 120.39 119.914C120.596 120.149 120.847 120.341 121.127 120.479C121.408 120.617 121.713 120.698 122.026 120.718C122.338 120.738 122.651 120.695 122.947 120.593C123.243 120.492 123.515 120.332 123.749 120.125C123.983 119.917 124.174 119.665 124.31 119.384C124.447 119.102 124.526 118.796 124.544 118.484C124.561 118.171 124.517 117.859 124.413 117.563C121.497 109.09 113.517 103.398 104.556 103.398C103.265 103.398 102.002 103.521 100.775 103.745C100.285 101.642 98.9795 99.8494 97.2101 98.7192C99.1003 94.0952 101.998 89.7402 105.693 86.0079C109.909 81.7494 112.892 76.5891 114.463 70.9672C123.344 76.4322 129.28 86.2392 129.28 97.4096C129.28 101.489 128.495 105.461 126.949 109.216C126.8 109.577 126.743 109.968 126.782 110.356C126.821 110.744 126.954 111.116 127.171 111.44C127.388 111.764 127.681 112.03 128.025 112.213C128.369 112.397 128.753 112.493 129.143 112.493H137.162C148.241 112.493 157.254 121.506 157.254 132.585C157.254 143.663 148.241 152.677 137.162 152.677H54.7683C54.139 152.677 53.5354 152.927 53.0903 153.372C52.6453 153.817 52.3953 154.42 52.3953 155.05C52.3953 155.679 52.6453 156.283 53.0903 156.728C53.5354 157.173 54.139 157.423 54.7683 157.423H137.162C150.858 157.423 162 146.28 162 132.585C162 118.89 150.858 107.748 137.162 107.748ZM81 67.3785C77.7983 67.3785 75.1933 64.7736 75.1933 61.5718C75.1933 58.3701 77.7983 55.7652 81 55.7652C84.2017 55.7652 86.807 58.3701 86.807 61.5718C86.807 64.7736 84.2017 67.3785 81 67.3785ZM64.6041 61.5718C64.6041 52.5312 71.9593 45.176 81 45.176C90.0407 45.176 97.3959 52.5312 97.3959 61.5718C97.3959 69.8066 91.293 76.6404 83.373 77.794V71.8522C88.0524 70.7723 91.5531 66.5745 91.5531 61.5718C91.5531 55.7531 86.819 51.0191 81 51.0191C75.1813 51.0191 70.4472 55.7531 70.4472 61.5718C70.4472 66.5745 73.9476 70.7723 78.627 71.8522V77.794C70.707 76.6404 64.6041 69.8063 64.6041 61.5718ZM81.0497 134.001C77.6904 134.001 74.7377 131.618 74.0289 128.334L73.3768 125.313H83.5787C83.6848 127.834 84.2479 130.316 85.2405 132.636C84.0495 133.498 82.5953 134.001 81.0497 134.001ZM83.9122 120.566H69.1658C67.2866 120.566 65.7574 119.038 65.7574 117.158C65.7574 115.279 67.2866 113.75 69.1658 113.75H86.4666C85.2219 115.855 84.3573 118.162 83.9122 120.566ZM90.2925 109.004H69.1655C67.2863 109.004 65.7571 107.474 65.7571 105.595C65.7571 103.716 67.2863 102.187 69.1655 102.187H92.8342C94.5567 102.187 95.9809 103.472 96.2077 105.133C94.0321 106.081 92.0322 107.39 90.2925 109.004Z" fill="#9154E0"/>
<path d="M111.297 118.386L103.373 126.31L97.8152 120.752C97.3696 120.311 96.767 120.063 96.1394 120.065C95.5119 120.066 94.9104 120.316 94.4666 120.76C94.0228 121.203 93.7729 121.805 93.7715 122.432C93.7701 123.06 94.0173 123.662 94.4591 124.108L101.695 131.344C101.915 131.565 102.177 131.739 102.465 131.859C102.753 131.978 103.062 132.039 103.373 132.039C103.685 132.039 103.994 131.978 104.282 131.859C104.569 131.739 104.831 131.565 105.051 131.344L114.654 121.741C115.099 121.296 115.349 120.693 115.349 120.064C115.349 119.434 115.099 118.831 114.654 118.386C114.209 117.941 113.605 117.691 112.976 117.691C112.346 117.691 111.743 117.941 111.297 118.386Z" fill="#9154E0"/>
</svg>
