<svg width="162" height="162" viewBox="0 0 162 162" fill="none" xmlns="http://www.w3.org/2000/svg">
<g clip-path="url(#clip0_90_617)">
<path d="M91.8141 73.1523C91.8141 67.1424 86.9396 62.253 80.948 62.253C74.9561 62.253 70.0815 67.1424 70.0815 73.1523C70.0815 78.2069 73.5296 82.4677 78.1899 83.6955L78.2449 95.2446C78.2522 96.7694 79.4907 97.9615 81.0138 97.9615H81.0273C82.5566 97.9615 83.7903 96.7631 83.7834 95.2338L83.7283 83.6889C88.3775 82.4535 91.8141 78.1986 91.8141 73.1523ZM80.9484 78.5136C78.0105 78.5136 75.6204 76.1085 75.6204 73.1523C75.6204 70.1962 78.0102 67.7915 80.9484 67.7915C83.8858 67.7915 86.276 70.1962 86.276 73.1523C86.276 76.1085 83.8858 78.5136 80.9484 78.5136Z" fill="#9ACC32"/>
<path d="M151.605 69.9251C146.834 69.9251 142.805 73.0384 141.589 77.5384H122.949C124.043 72.3461 124.838 67.1538 125.456 61.6154H138.981C140.51 61.6154 141.577 60.4831 141.577 58.9538V32.5076C146.077 31.2985 149.304 27.2703 149.304 22.4979C149.304 16.7729 144.685 12.1154 138.953 12.1154C133.221 12.1154 128.493 16.7729 128.493 22.4979C128.493 27.2596 131.885 31.2802 136.038 32.4993V56.0769H126.029C126.431 51.9231 126.752 47.449 127.05 43.0387C127.17 41.2709 125.577 39.9233 123.861 40.1898C120.573 40.8188 117.248 41.2927 113.893 41.2927C102.751 41.292 92.512 36.2395 82.7592 26.0006C81.3725 24.8192 80.0086 24.8445 78.668 26.0764C68.311 38.2268 53.9398 43.2779 38.1406 40.1888C36.4188 39.852 34.7265 41.2705 34.8463 43.0394C35.1498 47.5196 35.4693 51.9231 35.8595 56.0769H26.6538V32.4993C30.8077 31.2802 34.235 27.2599 34.235 22.4979C34.235 16.7729 29.5574 12.1154 23.8258 12.1154C18.0942 12.1154 13.4529 16.7729 13.4529 22.4979C13.4529 27.2707 16.6154 31.2985 21.1154 32.5076V58.9534C21.1154 60.4827 22.2965 61.615 23.8258 61.615H36.4195C37.0315 67.1535 37.8121 72.3458 38.889 77.5381H20.4113C19.1946 73.0381 15.1667 69.9248 10.395 69.9248C4.66304 69.9251 0 74.583 0 80.308C0 86.0327 4.66304 90.6902 10.3947 90.6902C15.1664 90.6902 19.1942 87.5769 20.411 83.0769H40.2096C41.6925 88.6275 43.7888 93.7758 46.1243 99H23.8258C22.2965 99 21.1154 100.133 21.1154 101.662V129.496C16.6154 130.71 13.4609 134.735 13.4609 139.502C13.4609 145.227 18.109 149.885 23.8407 149.885C29.5726 149.885 34.2575 145.227 34.2575 139.502C34.2575 134.735 31.1538 130.71 26.6538 129.496V104.538H49.2944C56.3864 115.615 66.5249 123.417 80.0194 128.449C80.6568 128.645 81.3378 128.646 81.9762 128.454C95.3457 123.339 105.413 115.269 112.482 104.538H136.038V129.496C131.885 130.71 128.5 134.735 128.5 139.502C128.5 145.227 133.206 149.885 138.938 149.885C144.67 149.885 149.267 145.227 149.267 139.502C149.267 134.735 146.077 130.71 141.577 129.496V101.662C141.577 100.133 140.51 99.0003 138.981 99.0003H115.67C118.051 93.7918 120.142 88.6209 121.622 83.0773H141.589C142.805 87.5773 146.833 90.6906 151.605 90.6906C157.337 90.6902 162 86.0327 162 80.3077C162 74.5826 157.337 69.9251 151.605 69.9251ZM134.14 22.4979C134.14 19.8266 136.319 17.6538 138.996 17.6538C141.674 17.6538 143.852 19.8266 143.852 22.4979C143.852 25.1692 141.674 27.342 138.996 27.342C136.319 27.342 134.14 25.1692 134.14 22.4979ZM18.9547 22.4979C18.9547 19.8266 21.1334 17.6538 23.8109 17.6538C26.4884 17.6538 28.6671 19.8266 28.6671 22.4979C28.6671 25.1692 26.4884 27.342 23.8109 27.342C21.1334 27.342 18.9547 25.1692 18.9547 22.4979ZM10.3947 85.1518C7.71715 85.1518 5.53846 82.9789 5.53846 80.308C5.53846 77.6368 7.71715 75.4639 10.3947 75.4639C13.0722 75.4639 15.2508 77.6368 15.2508 80.308C15.2512 82.9789 13.0725 85.1518 10.3947 85.1518ZM28.682 139.502C28.682 142.173 26.5033 144.346 23.8258 144.346C21.1483 144.346 18.9699 142.173 18.9699 139.502C18.9699 136.831 21.1483 134.658 23.8258 134.658C26.5033 134.658 28.682 136.831 28.682 139.502ZM143.837 139.502C143.837 142.173 141.659 144.346 138.981 144.346C136.304 144.346 134.125 142.173 134.125 139.502C134.125 136.831 136.304 134.658 138.981 134.658C141.659 134.658 143.837 136.831 143.837 139.502ZM40.6163 46.197C55.558 48.1226 70.8241 43.4679 80.8823 31.9566C91.7678 42.5108 105.964 48.7305 121.282 46.1759C118.693 81.7636 113.359 109.929 80.9744 122.833C48.5706 110.233 43.2232 81.9664 40.6163 46.197ZM151.605 85.1518C148.928 85.1518 146.749 82.9789 146.749 80.308C146.749 77.6368 148.928 75.4639 151.605 75.4639C154.283 75.4639 156.462 77.6368 156.462 80.308C156.462 82.9789 154.283 85.1518 151.605 85.1518Z" fill="#9ACC32"/>
</g>
<defs>
<clipPath id="clip0_90_617">
<rect width="162" height="162" fill="white"/>
</clipPath>
</defs>
</svg>
