<svg width="162" height="162" viewBox="0 0 162 162" fill="none" xmlns="http://www.w3.org/2000/svg">
<g clip-path="url(#clip0_40_253)">
<path d="M91.8146 73.1525C91.8146 67.1426 86.9401 62.2532 80.9485 62.2532C74.9566 62.2532 70.082 67.1426 70.082 73.1525C70.082 78.2071 73.5301 82.4679 78.1903 83.6957L78.2454 95.2448C78.2527 96.7696 79.4912 97.9617 81.0143 97.9617H81.0278C82.5571 97.9617 83.7908 96.7633 83.7838 95.234L83.7288 83.6891C88.378 82.4537 91.8146 78.1988 91.8146 73.1525ZM80.9488 78.5138C78.011 78.5138 75.6208 76.1087 75.6208 73.1525C75.6208 70.1964 78.0107 67.7916 80.9488 67.7916C83.8863 67.7916 86.2765 70.1964 86.2765 73.1525C86.2765 76.1087 83.8863 78.5138 80.9488 78.5138Z" fill="#9154E0"/>
<path d="M151.605 69.9253C146.834 69.9253 142.805 73.0386 141.589 77.5386H122.949C124.043 72.3463 124.838 67.1539 125.456 61.6155H138.981C140.51 61.6155 141.577 60.4832 141.577 58.9539V32.5078C146.077 31.2986 149.304 27.2704 149.304 22.498C149.304 16.773 144.685 12.1155 138.953 12.1155C133.221 12.1155 128.493 16.773 128.493 22.498C128.493 27.2597 131.885 31.2803 136.038 32.4994V56.077H126.029C126.431 51.9232 126.752 47.4491 127.05 43.0388C127.17 41.271 125.577 39.9234 123.861 40.1899C120.573 40.8189 117.248 41.2928 113.893 41.2928C102.751 41.2921 92.512 36.2396 82.7592 26.0007C81.3725 24.8193 80.0086 24.8446 78.668 26.0766C68.311 38.2269 53.9398 43.278 38.1406 40.1889C36.4188 39.8521 34.7265 41.2706 34.8463 43.0395C35.1498 47.5198 35.4693 51.9232 35.8595 56.077H26.6538V32.4994C30.8077 31.2803 34.235 27.2601 34.235 22.498C34.235 16.773 29.5574 12.1155 23.8258 12.1155C18.0942 12.1155 13.4529 16.773 13.4529 22.498C13.4529 27.2708 16.6154 31.2986 21.1154 32.5078V58.9536C21.1154 60.4829 22.2965 61.6151 23.8258 61.6151H36.4195C37.0315 67.1536 37.8121 72.3459 38.889 77.5382H20.4113C19.1946 73.0382 15.1667 69.9249 10.395 69.9249C4.66304 69.9253 0 74.5831 0 80.3081C0 86.0328 4.66304 90.6903 10.3947 90.6903C15.1664 90.6903 19.1942 87.577 20.411 83.077H40.2096C41.6925 88.6276 43.7888 93.7759 46.1243 99.0001H23.8258C22.2965 99.0001 21.1154 100.133 21.1154 101.662V129.497C16.6154 130.711 13.4609 134.735 13.4609 139.502C13.4609 145.227 18.109 149.885 23.8407 149.885C29.5726 149.885 34.2575 145.227 34.2575 139.502C34.2575 134.735 31.1538 130.711 26.6538 129.497V104.539H49.2944C56.3864 115.615 66.5249 123.417 80.0194 128.449C80.6568 128.645 81.3378 128.646 81.9762 128.454C95.3457 123.339 105.413 115.269 112.482 104.539H136.038V129.497C131.885 130.711 128.5 134.735 128.5 139.502C128.5 145.227 133.206 149.885 138.938 149.885C144.67 149.885 149.267 145.227 149.267 139.502C149.267 134.735 146.077 130.711 141.577 129.497V101.662C141.577 100.133 140.51 99.0005 138.981 99.0005H115.67C118.051 93.7919 120.142 88.621 121.622 83.0774H141.589C142.805 87.5774 146.833 90.6907 151.605 90.6907C157.337 90.6903 162 86.0328 162 80.3078C162 74.5828 157.337 69.9253 151.605 69.9253ZM134.14 22.498C134.14 19.8267 136.319 17.6539 138.996 17.6539C141.674 17.6539 143.852 19.8267 143.852 22.498C143.852 25.1693 141.674 27.3421 138.996 27.3421C136.319 27.3421 134.14 25.1693 134.14 22.498ZM18.9547 22.498C18.9547 19.8267 21.1334 17.6539 23.8109 17.6539C26.4884 17.6539 28.6671 19.8267 28.6671 22.498C28.6671 25.1693 26.4884 27.3421 23.8109 27.3421C21.1334 27.3421 18.9547 25.1693 18.9547 22.498ZM10.3947 85.1519C7.71715 85.1519 5.53846 82.9791 5.53846 80.3081C5.53846 77.6369 7.71715 75.4641 10.3947 75.4641C13.0722 75.4641 15.2508 77.6369 15.2508 80.3081C15.2512 82.9791 13.0725 85.1519 10.3947 85.1519ZM28.682 139.502C28.682 142.173 26.5033 144.346 23.8258 144.346C21.1483 144.346 18.9699 142.173 18.9699 139.502C18.9699 136.831 21.1483 134.658 23.8258 134.658C26.5033 134.658 28.682 136.831 28.682 139.502ZM143.837 139.502C143.837 142.173 141.659 144.346 138.981 144.346C136.304 144.346 134.125 142.173 134.125 139.502C134.125 136.831 136.304 134.658 138.981 134.658C141.659 134.658 143.837 136.831 143.837 139.502ZM40.6163 46.1971C55.558 48.1227 70.8241 43.468 80.8823 31.9567C91.7678 42.5109 105.964 48.7306 121.282 46.176C118.693 81.7637 113.359 109.929 80.9744 122.833C48.5706 110.233 43.2232 81.9666 40.6163 46.1971ZM151.605 85.1519C148.928 85.1519 146.749 82.9791 146.749 80.3081C146.749 77.6369 148.928 75.4641 151.605 75.4641C154.283 75.4641 156.462 77.6369 156.462 80.3081C156.462 82.9791 154.283 85.1519 151.605 85.1519Z" fill="#9154E0"/>
</g>
<defs>
<clipPath id="clip0_40_253">
<rect width="162" height="162" fill="white"/>
</clipPath>
</defs>
</svg>
