<svg width="162" height="162" viewBox="0 0 162 162" fill="none" xmlns="http://www.w3.org/2000/svg">
<path d="M146.799 23H15.4814C12.7001 23.0038 10.0341 23.9807 8.06895 25.7163C6.10377 27.4518 5 29.8042 5 32.2567V129.224C5 131.676 6.10377 134.029 8.06895 135.764C10.0341 137.5 12.7001 138.477 15.4814 138.48H146.799C149.58 138.477 152.246 137.5 154.211 135.764C156.176 134.029 157.28 131.676 157.28 129.224V32.2567C157.28 29.8042 156.176 27.4518 154.211 25.7163C152.246 23.9807 149.58 23.0038 146.799 23ZM152.566 129.224C152.566 130.574 151.959 131.869 150.878 132.825C149.797 133.781 148.33 134.32 146.799 134.323H15.4814C13.9504 134.32 12.4835 133.781 11.4024 132.825C10.3213 131.869 9.71419 130.574 9.7142 129.224V42.8134H152.566V129.224ZM152.566 38.6564H9.7142V32.2567C9.71419 30.9066 10.3213 29.6117 11.4024 28.6557C12.4835 27.6997 13.9504 27.1607 15.4814 27.1569H146.799C148.33 27.1607 149.797 27.6997 150.878 28.6557C151.959 29.6117 152.566 30.9066 152.566 32.2567V38.6564Z" fill="#9ACC32"/>
<path d="M56.9212 76.1689L84.7366 83.9257C84.9663 83.9936 85.2072 84.0274 85.4494 84.0257C85.9475 84.027 86.4334 83.8896 86.8377 83.6331C87.2421 83.3766 87.5443 83.0141 87.7012 82.5972C88.6647 79.8831 89.1563 77.0559 89.1592 74.2119C89.1378 66.8489 85.808 59.7936 79.8991 54.5912C73.9902 49.3889 65.984 46.4635 57.634 46.456C57.3255 46.4484 57.0183 46.4945 56.73 46.5916C56.4417 46.6887 56.178 46.835 55.9538 47.022C55.7296 47.2091 55.5495 47.4333 55.4236 47.6818C55.2977 47.9302 55.2286 48.1982 55.2202 48.4702V74.1833C55.2215 74.6321 55.3881 75.0684 55.6949 75.4265C56.0016 75.7846 56.432 76.0451 56.9212 76.1689ZM59.983 50.6415C63.7833 50.9381 67.4681 51.9459 70.7916 53.5978C74.1151 55.2498 77.0008 57.5077 79.2561 60.2211C81.5114 62.9345 83.0845 66.0408 83.8703 69.3328C84.6562 72.6249 84.6367 76.0268 83.8132 79.3116L59.983 72.6691V50.6415Z" fill="#9ACC32"/>
<path d="M48.4646 107.71C55.1684 107.729 61.7028 105.855 67.1106 102.361C72.5184 98.8678 76.5153 93.939 78.5157 88.297C78.6111 88.0381 78.6474 87.7652 78.6224 87.4939C78.5974 87.2226 78.5116 86.9584 78.37 86.7166C78.2283 86.4748 78.0337 86.2601 77.7973 86.0851C77.5609 85.9101 77.2875 85.7782 76.9928 85.6971L50.8137 78.3974V54.1985C50.8009 53.6567 50.5478 53.1407 50.1087 52.7615C49.6695 52.3823 49.0793 52.17 48.4646 52.1701C40.1036 52.1701 32.0851 55.0989 26.173 60.3121C20.2608 65.5254 16.9395 72.5961 16.9395 79.9688C16.9395 87.3415 20.2608 94.4122 26.173 99.6254C32.0851 104.839 40.1036 107.767 48.4646 107.767V107.71ZM46.0995 56.3556V79.9116C46.098 80.3509 46.2538 80.7793 46.5447 81.1359C46.8356 81.4924 47.2467 81.7589 47.7195 81.8973L73.1859 89.0398C71.3505 92.9035 68.3839 96.2678 64.5896 98.7885C60.7954 101.309 56.3098 102.896 51.5918 103.385C46.8739 103.875 42.0931 103.251 37.7387 101.576C33.3842 99.9017 29.6126 97.237 26.8097 93.8548C24.0068 90.4727 22.2733 86.4946 21.7867 82.3276C21.3001 78.1607 22.0777 73.9545 24.0401 70.1397C26.0025 66.3248 29.0791 63.0382 32.9551 60.6162C36.8311 58.1943 41.3673 56.7239 46.0995 56.3556ZM84.9957 129.395H101.682V102.353H84.9957V129.395ZM89.7099 106.539H96.9674V125.238H89.7099V106.539ZM106.833 129.395H123.503V95.2538H106.833V129.395ZM111.547 99.3965H118.805V125.238H111.547V99.3965ZM128.655 129.395H145.341V84.8685H128.655V129.395ZM133.369 89.0255H140.626V125.238H133.369V89.0255ZM104.808 46.3989H142.992V50.5559H104.808V46.3989ZM104.808 58.0984H142.992V62.2553H104.808V58.0984ZM19.2885 113.539H57.4719V117.696H19.2885V113.539ZM19.2885 125.238H57.4719V129.395H19.2885V125.238ZM19.2885 29.8282H30.6933V33.9852H19.2885V29.8282ZM104.808 70.7692H142.992V74.9262H104.808V70.7692Z" fill="#9ACC32"/>
</svg>
