<?xml version="1.0" encoding="UTF-8" standalone="no"?>
<!DOCTYPE svg PUBLIC "-//W3C//DTD SVG 1.1//EN" "http://www.w3.org/Graphics/SVG/1.1/DTD/svg11.dtd">
<svg width="100%" height="100%" viewBox="0 0 162 162" version="1.1" xmlns="http://www.w3.org/2000/svg" xmlns:xlink="http://www.w3.org/1999/xlink" xml:space="preserve" xmlns:serif="http://www.serif.com/" style="fill-rule:evenodd;clip-rule:evenodd;stroke-linejoin:round;stroke-miterlimit:2;">
    <path d="M146.799,23L15.481,23C12.7,23.004 10.034,23.981 8.069,25.716C6.104,27.452 5,29.804 5,32.257L5,129.224C5,131.676 6.104,134.029 8.069,135.764C10.034,137.5 12.7,138.477 15.481,138.48L146.799,138.48C149.58,138.477 152.246,137.5 154.211,135.764C156.176,134.029 157.28,131.676 157.28,129.224L157.28,32.257C157.28,29.804 156.176,27.452 154.211,25.716C152.246,23.981 149.58,23.004 146.799,23ZM152.566,129.224C152.566,130.574 151.959,131.869 150.878,132.825C149.797,133.781 148.33,134.32 146.799,134.323L15.481,134.323C13.95,134.32 12.484,133.781 11.402,132.825C10.321,131.869 9.714,130.574 9.714,129.224L9.714,42.813L152.566,42.813L152.566,129.224ZM152.566,38.656L9.714,38.656L9.714,32.257C9.714,30.907 10.321,29.612 11.402,28.656C12.484,27.7 13.95,27.161 15.481,27.157L146.799,27.157C148.33,27.161 149.797,27.7 150.878,28.656C151.959,29.612 152.566,30.907 152.566,32.257L152.566,38.656Z" style="fill:rgb(145,84,224);fill-rule:nonzero;"/>
    <path d="M56.921,76.169L84.737,83.926C84.966,83.994 85.207,84.027 85.449,84.026C85.948,84.027 86.433,83.89 86.838,83.633C87.242,83.377 87.544,83.014 87.701,82.597C88.665,79.883 89.156,77.056 89.159,74.212C89.138,66.849 85.808,59.794 79.899,54.591C73.99,49.389 65.984,46.464 57.634,46.456C57.326,46.448 57.018,46.495 56.73,46.592C56.442,46.689 56.178,46.835 55.954,47.022C55.73,47.209 55.55,47.433 55.424,47.682C55.298,47.93 55.229,48.198 55.22,48.47L55.22,74.183C55.222,74.632 55.388,75.068 55.695,75.427C56.002,75.785 56.432,76.045 56.921,76.169ZM59.983,50.642C63.783,50.938 67.468,51.946 70.792,53.598C74.115,55.25 77.001,57.508 79.256,60.221C81.511,62.935 83.085,66.041 83.87,69.333C84.656,72.625 84.637,76.027 83.813,79.312L59.983,72.669L59.983,50.642Z" style="fill:rgb(145,84,224);fill-rule:nonzero;"/>
    <path d="M48.465,107.71C55.168,107.729 61.703,105.855 67.111,102.361C72.518,98.868 76.515,93.939 78.516,88.297C78.611,88.038 78.647,87.765 78.622,87.494C78.597,87.223 78.512,86.958 78.37,86.717C78.228,86.475 78.034,86.26 77.797,86.085C77.561,85.91 77.287,85.778 76.993,85.697L50.814,78.397L50.814,54.199C50.801,53.657 50.548,53.141 50.109,52.762C49.67,52.382 49.079,52.17 48.465,52.17C40.104,52.17 32.085,55.099 26.173,60.312C20.261,65.525 16.94,72.596 16.94,79.969C16.94,87.342 20.261,94.412 26.173,99.625C32.085,104.839 40.104,107.767 48.465,107.767L48.465,107.71ZM46.1,56.356L46.1,79.912C46.098,80.351 46.254,80.779 46.545,81.136C46.836,81.492 47.247,81.759 47.719,81.897L73.186,89.04C71.351,92.903 68.384,96.268 64.59,98.789C60.795,101.309 56.31,102.896 51.592,103.385C46.874,103.875 42.093,103.251 37.739,101.576C33.384,99.902 29.613,97.237 26.81,93.855C24.007,90.473 22.273,86.495 21.787,82.328C21.3,78.161 22.078,73.955 24.04,70.14C26.003,66.325 29.079,63.038 32.955,60.616C36.831,58.194 41.367,56.724 46.1,56.356ZM84.996,129.395L101.682,129.395L101.682,102.353L84.996,102.353L84.996,129.395ZM89.71,106.539L96.967,106.539L96.967,125.238L89.71,125.238L89.71,106.539ZM106.833,129.395L123.503,129.395L123.503,95.254L106.833,95.254L106.833,129.395ZM111.547,99.397L118.805,99.397L118.805,125.238L111.547,125.238L111.547,99.397ZM128.655,129.395L145.341,129.395L145.341,84.869L128.655,84.869L128.655,129.395ZM133.369,89.025L140.626,89.025L140.626,125.238L133.369,125.238L133.369,89.025ZM104.808,46.399L142.992,46.399L142.992,50.556L104.808,50.556L104.808,46.399ZM104.808,58.098L142.992,58.098L142.992,62.255L104.808,62.255L104.808,58.098ZM19.289,113.539L57.472,113.539L57.472,117.696L19.289,117.696L19.289,113.539ZM19.289,125.238L57.472,125.238L57.472,129.395L19.289,129.395L19.289,125.238ZM19.289,29.828L30.693,29.828L30.693,33.985L19.289,33.985L19.289,29.828ZM104.808,70.769L142.992,70.769L142.992,74.926L104.808,74.926L104.808,70.769Z" style="fill:rgb(145,84,224);fill-rule:nonzero;"/>
</svg>
