<svg width="162" height="162" viewBox="0 0 162 162" fill="none" xmlns="http://www.w3.org/2000/svg">
<path d="M74.0337 56.3241C74.0337 57.1445 73.7407 57.8492 73.156 58.4339C72.5703 59.0183 71.8533 59.3113 71.0079 59.3113C70.1615 59.3113 69.4445 59.0183 68.8598 58.4339C68.2754 57.8492 67.9824 57.1322 67.9824 56.2855V34.8442C67.9824 34.0481 68.2878 33.3315 68.8968 32.6974C69.5075 32.0621 70.2232 31.7444 71.0452 31.7444C71.8669 31.7444 72.5703 32.0497 73.156 32.6588C73.7407 33.2695 74.0337 33.9988 74.0337 34.8442V56.3241ZM85.0177 49.9033V55.9915C85.0177 56.8136 84.7184 57.5229 84.1204 58.121C83.5233 58.7193 82.8137 59.017 81.9919 59.017C81.1702 59.017 80.4605 58.7193 79.8625 58.121C79.2645 57.5226 78.9665 56.7889 78.9665 55.9175V34.9246C78.9665 34.0273 79.2702 33.2745 79.8809 32.6639C80.4903 32.0548 81.2319 31.7494 82.1033 31.7494H89.2003C92.0132 31.7494 94.3046 32.5962 96.0733 34.2892C97.8407 35.9826 98.7257 38.1874 98.7257 40.9005C98.7257 43.59 97.8904 45.7637 96.2229 47.4188C94.5542 49.0752 92.3381 49.9033 89.5734 49.9033H85.0177ZM85.0177 37.1654V44.5984H88.864C89.8353 44.5984 90.682 44.2377 91.4038 43.5156C92.1268 42.7927 92.4878 41.9336 92.4878 40.9376C92.4878 39.8918 92.1454 39.0021 91.4607 38.2665C90.7747 37.5324 89.923 37.1654 88.901 37.1654H85.0177Z" fill="#9154E0"/>
<path d="M142.339 113.561C141.304 112.152 139.323 111.848 137.913 112.883C136.504 113.918 136.2 115.9 137.236 117.309C141.816 123.547 145.28 130.388 147.563 137.618C140.785 130.663 130.728 124.875 118.425 120.944C118.103 119.928 117.764 118.918 117.409 117.913C113.571 107.128 108.294 98.2752 102.05 92.084L102.144 91.9679C108.951 94.1627 115.381 97.3882 121.21 101.532C121.744 101.913 122.384 102.117 123.041 102.116C123.546 102.117 124.045 101.997 124.495 101.765C124.945 101.533 125.332 101.197 125.625 100.784C126.637 99.3579 126.302 97.3813 124.876 96.3691C119.13 92.2894 112.905 89.0462 106.32 86.6966C116.736 73.1354 125.402 58.3757 125.402 44.8345C125.402 20.1127 105.291 0 80.5703 0C55.8495 0 35.7384 20.1127 35.7384 44.8348C35.7384 54.4678 40.1444 65.61 49.2078 78.8975C51.0012 81.5268 52.9044 84.1296 54.8636 86.688C41.0123 91.6404 28.6376 100.654 19.6621 112.417C9.41593 125.844 4 141.896 4 158.834C4 160.583 5.4175 162 7.16533 162H153.974C155.723 162 157.141 160.583 157.141 158.833C157.141 142.404 152.022 126.749 142.339 113.561ZM111.008 118.867C106.097 117.677 100.897 116.768 95.4686 116.169C94.8545 112.304 92.7434 108.837 89.6619 106.499C92.3527 103.472 95.1658 100.28 97.9825 96.9649C103.256 102.335 107.69 109.899 111.008 118.867ZM42.07 44.8348C42.07 23.6045 59.3414 6.33192 80.5703 6.33192C101.799 6.33192 119.071 23.6045 119.071 44.8345C119.071 63.966 97.199 88.5219 82.7257 104.77C81.9878 105.598 81.2699 106.404 80.5716 107.191C79.8967 106.431 79.2034 105.652 78.4928 104.854C63.9887 88.558 42.07 63.9318 42.07 44.8348ZM71.4834 106.5C68.4048 108.837 66.295 112.303 65.6805 116.169C60.2475 116.766 55.0452 117.677 50.1298 118.869C53.4521 109.892 57.889 102.323 63.1689 96.9513C66.0144 100.309 68.8301 103.51 71.4834 106.5ZM37.1325 155.668H10.5964C12.443 144.599 23.8618 134.627 40.624 128.394C38.5364 136.979 37.3486 146.211 37.1325 155.668V155.668ZM13.6849 137.507C20.5063 116.297 37.2265 98.982 59.0313 91.9628L59.1116 92.0619C52.8576 98.2527 47.5739 107.112 43.7324 117.906C43.3765 118.913 43.0366 119.927 42.7129 120.945C30.4769 124.856 20.4604 130.602 13.6849 137.507ZM77.4037 155.668H43.4628C43.7175 145.172 45.2379 135.085 47.7951 126.051C53.4508 124.443 59.5676 123.232 66.0194 122.5C67.4913 127.927 71.8926 132.096 77.405 133.267V155.668H77.4037ZM81.4626 127.22C81.0022 127.266 80.5389 127.276 80.077 127.25C75.4844 126.992 71.8258 123.176 71.8258 118.52C71.8258 115.567 73.3275 112.849 75.7068 111.251C76.5376 112.186 77.3656 113.123 78.1909 114.062C78.4881 114.4 78.8541 114.672 79.2644 114.857C79.6747 115.043 80.1199 115.139 80.5703 115.139C81.0207 115.139 81.4659 115.043 81.8763 114.857C82.2866 114.672 82.6525 114.4 82.9497 114.062C83.7442 113.156 84.5773 112.215 85.4363 111.249C87.8192 112.848 89.3221 115.567 89.3221 118.52C89.3198 119.695 89.0832 120.857 88.626 121.939C87.4053 124.8 84.6994 126.884 81.4812 127.217C81.4749 127.217 81.4686 127.219 81.4626 127.22C81.4689 127.219 81.3341 127.233 81.4626 127.22C81.4689 127.219 81.0016 127.267 81.4626 127.22ZM83.7369 155.668V133.267C89.0715 132.133 93.3651 128.191 94.9681 123.019C94.9817 122.977 94.9927 122.934 95.0051 122.892C95.0446 122.762 95.0842 122.632 95.1199 122.5C101.573 123.232 107.69 124.442 113.344 126.05C115.903 135.085 117.423 145.174 117.677 155.668L83.7369 155.668ZM124.008 155.668C123.792 146.211 122.603 136.979 120.515 128.393C137.278 134.627 148.698 144.598 150.544 155.668H124.008Z" fill="#9154E0"/>
<path d="M80.5711 76.5022C63.401 76.5022 49.4336 62.5335 49.4336 45.3634C49.4336 28.1886 63.401 14.2161 80.5711 14.2161C97.7447 14.2161 111.718 28.1886 111.718 45.3634C111.718 62.5335 97.745 76.5022 80.5711 76.5022ZM80.5711 20.5467C66.8929 20.5467 55.7655 31.6788 55.7655 45.3634C55.7655 59.0417 66.8929 70.1703 80.5711 70.1703C94.2544 70.1703 105.386 59.042 105.386 45.3634C105.386 31.6788 94.2544 20.5464 80.5711 20.5464V20.5467ZM132.472 110.099C131.996 110.1 131.527 109.994 131.099 109.788C130.67 109.582 130.294 109.282 129.997 108.91L129.962 108.866C128.87 107.5 129.091 105.508 130.456 104.415C131.822 103.323 133.814 103.545 134.907 104.909L134.942 104.955C136.034 106.32 135.813 108.312 134.448 109.405C133.888 109.855 133.19 110.1 132.472 110.099Z" fill="#9154E0"/>
</svg>
