<svg width="162" height="162" viewBox="0 0 162 162" fill="none" xmlns="http://www.w3.org/2000/svg">
<path d="M150.306 104.49L147.446 103.073C145.952 102.313 144.484 101.68 143.016 101.123V39.8925C143.041 17.8959 125.145 0 103.123 0C81.1016 0 63.2309 17.8959 63.2309 39.8925V98.01H11.0112C9.18875 98.01 7.44218 98.7947 6.2525 100.136C5.0375 101.528 4.48062 103.351 4.73375 105.148L11.5175 156.431C11.9478 159.621 14.6816 162 17.8456 162H151.04C152.705 162 154.302 161.339 155.479 160.161C156.656 158.984 157.317 157.387 157.317 155.723V115.855C157.313 113.498 156.655 111.188 155.418 109.182C154.18 107.176 152.411 105.552 150.306 104.49ZM143.218 134.258C141.331 135.134 139.733 136.531 138.612 138.284C137.492 140.037 136.894 142.074 136.89 144.155V158.001H102.415C102.592 157.545 102.744 157.064 102.82 156.558L109.072 115.147L109.198 114.337C115.096 109.603 119.728 104.794 123.297 99.6806C123.323 99.7059 123.348 99.7059 123.373 99.7313C124.209 100.187 125.145 100.541 126.133 100.769L135.27 102.845C137.169 103.275 138.839 103.756 140.257 104.262C140.409 104.338 140.561 104.389 140.637 104.389C142.383 105.022 144.104 105.781 145.75 106.616L148.585 108.034C151.546 109.527 153.394 112.539 153.394 115.83V129.549L143.218 134.258ZM9.26468 102.769C9.695 102.262 10.3278 101.984 11.0366 101.984H64.8762C64.9775 102.009 65.0787 102.035 65.2306 102.035C65.3825 102.035 65.4837 102.009 65.585 101.984H104.262C104.946 101.984 105.579 102.288 106.034 102.794C106.389 103.224 106.591 103.756 106.591 104.288C106.591 104.414 106.591 104.541 106.566 104.667L105.174 113.982L105.148 114.286L98.8709 155.976C98.6937 157.14 97.6812 158.026 96.4916 158.026H17.8456C16.6559 158.026 15.6434 157.14 15.4916 155.95L8.6825 104.667C8.60656 103.984 8.83437 103.3 9.26468 102.769ZM103.123 3.94875C122.918 3.94875 139.042 20.0728 139.042 39.8925V46.5497C138.561 46.1194 138.029 45.765 137.498 45.4359C135.903 27.3122 128.157 15.0609 115.096 10.0491C111.377 8.64056 107.43 7.9284 103.452 7.94813C99.5544 7.94813 95.5297 8.58094 91.4797 9.84656C75.0012 15.0103 67.1037 27.1603 67.9391 45.9675C67.6859 46.17 67.4328 46.3725 67.205 46.575V39.9178C67.205 20.0728 83.3291 3.94875 103.123 3.94875ZM130.714 70.2422C130.967 70.3434 131.22 70.4194 131.499 70.4194C131.752 70.4194 132.005 70.3687 132.258 70.3687V70.9763C132.258 73.4822 130.562 75.6591 128.157 76.3172L127.778 76.4184C128.816 74.5453 129.777 72.495 130.714 70.2422ZM76.7478 49.9922C90.6191 48.0938 102.541 42.8794 112.236 34.4503C117.121 42.0187 122.867 47.4609 129.499 50.7516V61.7119C127.525 68.3184 125.095 73.6088 122.133 77.9119L108.085 81.6581C107.831 81.7234 107.594 81.8383 107.385 81.9961C107.176 82.1539 107.001 82.3515 106.869 82.5775C106.737 82.8034 106.652 83.0533 106.617 83.3126C106.582 83.5719 106.599 83.8355 106.667 84.0881C106.895 84.9488 107.68 85.5562 108.591 85.5562C108.768 85.5562 108.945 85.5309 109.097 85.4803L117.881 83.1263C117.324 83.6831 116.742 84.24 116.159 84.7462C114.438 86.2144 112.565 87.5053 110.641 88.5178C107.882 89.9606 104.845 90.72 101.832 90.72C98.8962 90.72 96.0866 89.9859 93.7072 88.5938C91.9606 87.5559 90.2647 86.2397 88.67 84.6703C80.57 76.6209 77.1781 63.9394 76.7478 62.2181V49.9922ZM136.106 98.9719L126.968 96.8962C126.107 96.6937 125.247 96.3141 124.512 95.8331L124.259 95.6053H124.183C123.019 94.7194 122.158 93.555 121.652 92.2134L119.678 86.8472C121.399 85.2778 123.044 83.43 124.588 81.3544L129.119 80.1394C131.136 79.5975 132.918 78.4064 134.19 76.7501C135.462 75.0938 136.153 73.0646 136.156 70.9763V69.3562C137.194 68.9006 138.131 68.2931 138.991 67.5591V99.7566C138.105 99.4781 137.143 99.225 136.106 98.9719ZM67.205 67.5591C69.2806 69.3816 71.9637 70.4194 74.7734 70.4194C74.9253 70.4194 75.0519 70.3688 75.2037 70.3434C77.0516 75.2034 80.2663 81.7847 85.4047 87.0244C85.5313 87.1763 85.7084 87.3281 85.835 87.48C85.2275 92.2641 83.4303 95.7572 80.3422 98.0353H67.205V67.5591Z" fill="#9154E0"/>
<path d="M40.4246 134.03H42.5002C42.8546 135.371 43.3862 136.662 44.0696 137.852L42.6015 139.32C42.0446 139.877 42.0446 140.763 42.6015 141.32L46.3224 145.066C46.8793 145.598 47.7652 145.598 48.3221 145.041L49.7902 143.573C51.0052 144.281 52.2709 144.813 53.6124 145.142V147.243C53.6124 148.028 54.2452 148.635 55.0046 148.635H60.2696C61.0543 148.635 61.6618 148.002 61.6618 147.243V145.142C63.0034 144.788 64.269 144.256 65.484 143.573L66.9521 145.041C67.509 145.598 68.3949 145.598 68.9518 145.041L72.698 141.32C73.2296 140.763 73.2296 139.877 72.6727 139.32L71.2046 137.852C71.9134 136.662 72.4449 135.397 72.774 134.03H74.8496C75.6596 134.03 76.2671 133.397 76.2671 132.638V127.398C76.2671 126.588 75.6343 125.98 74.8496 125.98H72.774C72.4196 124.639 71.888 123.373 71.2046 122.158L72.6727 120.69C72.9005 120.462 73.103 120.007 73.103 119.678C73.103 119.348 72.9005 118.893 72.6727 118.665L68.9518 114.944C68.8211 114.812 68.6654 114.707 68.4938 114.635C68.3222 114.563 68.138 114.526 67.952 114.526C67.7659 114.526 67.5817 114.563 67.4101 114.635C67.2385 114.707 67.0828 114.812 66.9521 114.944L65.484 116.438C64.269 115.729 63.0287 115.197 61.6618 114.868V112.793C61.6652 112.608 61.6316 112.424 61.5632 112.252C61.4947 112.08 61.3927 111.924 61.2631 111.792C61.1335 111.66 60.9789 111.555 60.8083 111.483C60.6377 111.412 60.4546 111.375 60.2696 111.375H55.0046C54.8196 111.375 54.6365 111.412 54.4659 111.483C54.2954 111.555 54.1407 111.66 54.0111 111.792C53.8815 111.924 53.7795 112.08 53.711 112.252C53.6426 112.424 53.6091 112.608 53.6124 112.793V114.868C52.2709 115.223 51.0052 115.754 49.7902 116.438L48.3221 114.969C48.1914 114.837 48.0358 114.732 47.8641 114.66C47.6925 114.588 47.5083 114.551 47.3223 114.551C47.1362 114.551 46.9521 114.588 46.7804 114.66C46.6088 114.732 46.4531 114.837 46.3224 114.969L42.6015 118.69C42.3737 118.918 42.1712 119.374 42.1712 119.703C42.1712 120.032 42.3737 120.488 42.6015 120.715L44.0696 122.183C43.3609 123.398 42.8293 124.664 42.5002 126.006H40.4246C39.6146 126.006 39.0071 126.638 39.0071 127.423V132.663C38.9818 133.422 39.6146 134.03 40.4246 134.03ZM50.1446 130.005C50.1446 125.879 53.5112 122.513 57.6371 122.513C61.763 122.513 65.1296 125.879 65.1296 130.005C65.1296 134.131 61.763 137.498 57.6371 137.498C53.5112 137.498 50.1446 134.131 50.1446 130.005ZM14.2262 61.1044H16.3271C16.6815 62.4459 17.213 63.7116 17.8965 64.9266L16.403 66.3947C15.8715 66.9516 15.8715 67.8375 16.403 68.3944L20.1493 72.1153C20.7062 72.6722 21.5921 72.6722 22.149 72.1153L23.6171 70.6472C24.8068 71.3559 26.0724 71.8875 27.414 72.2166V74.2922C27.414 75.1022 28.0721 75.7097 28.8315 75.7097H34.0712C34.8812 75.7097 35.4887 75.0769 35.4887 74.2922V72.2166C36.8302 71.8622 38.0959 71.3306 39.3109 70.6472L40.779 72.1153C41.3359 72.6722 42.1965 72.6722 42.7787 72.1153L46.4996 68.3944C47.0565 67.8375 47.0565 66.9516 46.4996 66.3947L45.0315 64.9266C45.7149 63.7116 46.2465 62.4459 46.6009 61.1044H48.6765C49.4612 61.1044 50.094 60.4716 50.094 59.6869V54.4472C50.094 53.6625 49.4359 53.055 48.6765 53.055H46.6009C46.2212 51.7134 45.6896 50.4225 45.0315 49.2328L46.4996 47.7647C47.0565 47.1825 47.0565 46.3219 46.4996 45.765L42.7787 42.0441C42.6471 41.9085 42.4897 41.8006 42.3159 41.7267C42.142 41.6528 41.9551 41.6144 41.7662 41.6138C41.4371 41.6138 40.9815 41.7909 40.7537 42.0441L39.2855 43.5122C38.094 42.8071 36.8066 42.2785 35.4634 41.9428V39.8419C35.4634 39.6569 35.4266 39.4738 35.355 39.3032C35.2835 39.1326 35.1787 38.978 35.0467 38.8484C34.9147 38.7188 34.7582 38.6168 34.5864 38.5483C34.4146 38.4799 34.2308 38.4463 34.0459 38.4497H28.8568C28.0721 38.4497 27.4393 39.0825 27.4393 39.8419V41.9428C26.0977 42.2972 24.8321 42.8288 23.6424 43.5122L22.149 42.0188C22.0174 41.8832 21.8601 41.7753 21.6862 41.7014C21.5123 41.6275 21.3254 41.5891 21.1365 41.5884C20.8074 41.5884 20.3518 41.7656 20.0987 42.0188L16.3777 45.7397C15.8462 46.2966 15.8209 47.1572 16.3777 47.7394L17.8712 49.2075C17.1624 50.3972 16.6309 51.6628 16.3018 53.0297H14.2262C13.4415 53.0297 12.834 53.6625 12.834 54.4219V59.6616C12.834 60.4969 13.4668 61.1044 14.2262 61.1044ZM23.9715 57.0797C23.9715 52.9538 27.3634 49.5619 31.4893 49.5619C35.6152 49.5619 38.9818 52.9538 38.9818 57.0797C38.9818 61.2056 35.6152 64.5722 31.4893 64.5722C27.3634 64.5722 23.9715 61.2056 23.9715 57.0797Z" fill="#9154E0"/>
</svg>
