<svg width="162" height="162" viewBox="0 0 162 162" fill="none" xmlns="http://www.w3.org/2000/svg">
<path d="M150.305 104.49L147.445 103.073C145.952 102.313 144.484 101.68 143.015 101.123V39.8925C143.041 17.8959 125.145 0 103.123 0C81.1011 0 63.2304 17.8959 63.2304 39.8925V98.01H11.0108C9.18826 98.01 7.4417 98.7947 6.25201 100.136C5.03701 101.528 4.48013 103.351 4.73326 105.148L11.517 156.431C11.9473 159.621 14.6811 162 17.8451 162H151.04C152.704 162 154.301 161.339 155.478 160.161C156.656 158.984 157.317 157.387 157.317 155.723V115.855C157.312 113.498 156.655 111.188 155.417 109.182C154.179 107.176 152.41 105.552 150.305 104.49ZM143.218 134.258C141.331 135.134 139.733 136.531 138.612 138.284C137.491 140.037 136.894 142.074 136.89 144.155V158.001H102.414C102.591 157.545 102.743 157.064 102.819 156.558L109.071 115.147L109.198 114.337C115.096 109.603 119.728 104.794 123.297 99.6806C123.322 99.7059 123.348 99.7059 123.373 99.7313C124.208 100.187 125.145 100.541 126.132 100.769L135.27 102.845C137.168 103.275 138.839 103.756 140.256 104.262C140.408 104.338 140.56 104.389 140.636 104.389C142.383 105.022 144.104 105.781 145.749 106.616L148.584 108.034C151.546 109.527 153.394 112.539 153.394 115.83V129.549L143.218 134.258ZM9.2642 102.769C9.69451 102.262 10.3273 101.984 11.0361 101.984H64.8758C64.977 102.009 65.0783 102.035 65.2301 102.035C65.382 102.035 65.4833 102.009 65.5845 101.984H104.262C104.945 101.984 105.578 102.288 106.034 102.794C106.388 103.224 106.591 103.756 106.591 104.288C106.591 104.414 106.591 104.541 106.565 104.667L105.173 113.982L105.148 114.286L98.8704 155.976C98.6933 157.14 97.6808 158.026 96.4911 158.026H17.8451C16.6554 158.026 15.6429 157.14 15.4911 155.95L8.68201 104.667C8.60607 103.984 8.83388 103.3 9.2642 102.769ZM103.123 3.94875C122.917 3.94875 139.041 20.0728 139.041 39.8925V46.5497C138.56 46.1194 138.029 45.765 137.497 45.4359C135.903 27.3122 128.157 15.0609 115.096 10.0491C111.376 8.64056 107.429 7.9284 103.452 7.94813C99.5539 7.94813 95.5292 8.58094 91.4792 9.84656C75.0008 15.0103 67.1033 27.1603 67.9386 45.9675C67.6854 46.17 67.4323 46.3725 67.2045 46.575V39.9178C67.2045 20.0728 83.3286 3.94875 103.123 3.94875ZM130.714 70.2422C130.967 70.3434 131.22 70.4194 131.498 70.4194C131.751 70.4194 132.005 70.3687 132.258 70.3687V70.9763C132.258 73.4822 130.562 75.6591 128.157 76.3172L127.777 76.4184C128.815 74.5453 129.777 72.495 130.714 70.2422ZM76.7473 49.9922C90.6186 48.0938 102.541 42.8794 112.235 34.4503C117.121 42.0187 122.867 47.4609 129.499 50.7516V61.7119C127.524 68.3184 125.094 73.6088 122.133 77.9119L108.084 81.6581C107.831 81.7234 107.593 81.8383 107.384 81.9961C107.176 82.1539 107 82.3515 106.869 82.5775C106.737 82.8034 106.651 83.0533 106.616 83.3126C106.582 83.5719 106.599 83.8355 106.667 84.0881C106.895 84.9488 107.679 85.5562 108.59 85.5562C108.768 85.5562 108.945 85.5309 109.097 85.4803L117.88 83.1263C117.323 83.6831 116.741 84.24 116.159 84.7462C114.438 86.2144 112.565 87.5053 110.641 88.5178C107.882 89.9606 104.844 90.72 101.832 90.72C98.8958 90.72 96.0861 89.9859 93.7067 88.5938C91.9601 87.5559 90.2642 86.2397 88.6695 84.6703C80.5695 76.6209 77.1776 63.9394 76.7473 62.2181V49.9922ZM136.105 98.9719L126.967 96.8962C126.107 96.6937 125.246 96.3141 124.512 95.8331L124.259 95.6053H124.183C123.019 94.7194 122.158 93.555 121.652 92.2134L119.677 86.8472C121.399 85.2778 123.044 83.43 124.588 81.3544L129.119 80.1394C131.136 79.5975 132.918 78.4064 134.19 76.7501C135.462 75.0938 136.153 73.0646 136.156 70.9763V69.3562C137.194 68.9006 138.13 68.2931 138.991 67.5591V99.7566C138.105 99.4781 137.143 99.225 136.105 98.9719ZM67.2045 67.5591C69.2801 69.3816 71.9633 70.4194 74.7729 70.4194C74.9248 70.4194 75.0514 70.3688 75.2033 70.3434C77.0511 75.2034 80.2658 81.7847 85.4042 87.0244C85.5308 87.1763 85.7079 87.3281 85.8345 87.48C85.227 92.2641 83.4298 95.7572 80.3417 98.0353H67.2045V67.5591Z" fill="#9ACC32"/>
<path d="M40.4241 134.03H42.4997C42.8541 135.371 43.3857 136.662 44.0691 137.852L42.601 139.32C42.0441 139.877 42.0441 140.763 42.601 141.32L46.3219 145.066C46.8788 145.598 47.7647 145.598 48.3216 145.041L49.7897 143.573C51.0047 144.281 52.2704 144.813 53.6119 145.142V147.243C53.6119 148.028 54.2447 148.635 55.0041 148.635H60.2691C61.0538 148.635 61.6613 148.002 61.6613 147.243V145.142C63.0029 144.788 64.2685 144.256 65.4835 143.573L66.9516 145.041C67.5085 145.598 68.3944 145.598 68.9513 145.041L72.6976 141.32C73.2291 140.763 73.2291 139.877 72.6722 139.32L71.2041 137.852C71.9129 136.662 72.4444 135.397 72.7735 134.03H74.8491C75.6591 134.03 76.2666 133.397 76.2666 132.638V127.398C76.2666 126.588 75.6338 125.98 74.8491 125.98H72.7735C72.4191 124.639 71.8876 123.373 71.2041 122.158L72.6722 120.69C72.9001 120.462 73.1026 120.007 73.1026 119.678C73.1026 119.348 72.9001 118.893 72.6722 118.665L68.9513 114.944C68.8206 114.812 68.6649 114.707 68.4933 114.635C68.3217 114.563 68.1375 114.526 67.9515 114.526C67.7654 114.526 67.5813 114.563 67.4096 114.635C67.238 114.707 67.0823 114.812 66.9516 114.944L65.4835 116.438C64.2685 115.729 63.0282 115.197 61.6613 114.868V112.793C61.6647 112.608 61.6311 112.424 61.5627 112.252C61.4942 112.08 61.3922 111.924 61.2626 111.792C61.133 111.66 60.9784 111.555 60.8078 111.483C60.6372 111.412 60.4541 111.375 60.2691 111.375H55.0041C54.8191 111.375 54.636 111.412 54.4654 111.483C54.2949 111.555 54.1403 111.66 54.0106 111.792C53.881 111.924 53.779 112.08 53.7106 112.252C53.6421 112.424 53.6086 112.608 53.6119 112.793V114.868C52.2704 115.223 51.0047 115.754 49.7897 116.438L48.3216 114.969C48.1909 114.837 48.0353 114.732 47.8636 114.66C47.692 114.588 47.5078 114.551 47.3218 114.551C47.1357 114.551 46.9516 114.588 46.7799 114.66C46.6083 114.732 46.4526 114.837 46.3219 114.969L42.601 118.69C42.3732 118.918 42.1707 119.374 42.1707 119.703C42.1707 120.032 42.3732 120.488 42.601 120.715L44.0691 122.183C43.3604 123.398 42.8288 124.664 42.4997 126.006H40.4241C39.6141 126.006 39.0066 126.638 39.0066 127.423V132.663C38.9813 133.422 39.6141 134.03 40.4241 134.03ZM50.1441 130.005C50.1441 125.879 53.5107 122.513 57.6366 122.513C61.7626 122.513 65.1291 125.879 65.1291 130.005C65.1291 134.131 61.7626 137.498 57.6366 137.498C53.5107 137.498 50.1441 134.131 50.1441 130.005ZM14.2257 61.1044H16.3266C16.681 62.4459 17.2126 63.7116 17.896 64.9266L16.4026 66.3947C15.871 66.9516 15.871 67.8375 16.4026 68.3944L20.1488 72.1153C20.7057 72.6722 21.5916 72.6722 22.1485 72.1153L23.6166 70.6472C24.8063 71.3559 26.0719 71.8875 27.4135 72.2166V74.2922C27.4135 75.1022 28.0716 75.7097 28.831 75.7097H34.0707C34.8807 75.7097 35.4882 75.0769 35.4882 74.2922V72.2166C36.8297 71.8622 38.0954 71.3306 39.3104 70.6472L40.7785 72.1153C41.3354 72.6722 42.196 72.6722 42.7782 72.1153L46.4991 68.3944C47.056 67.8375 47.056 66.9516 46.4991 66.3947L45.031 64.9266C45.7144 63.7116 46.246 62.4459 46.6004 61.1044H48.676C49.4607 61.1044 50.0935 60.4716 50.0935 59.6869V54.4472C50.0935 53.6625 49.4354 53.055 48.676 53.055H46.6004C46.2207 51.7134 45.6891 50.4225 45.031 49.2328L46.4991 47.7647C47.056 47.1825 47.056 46.3219 46.4991 45.765L42.7782 42.0441C42.6466 41.9085 42.4893 41.8006 42.3154 41.7267C42.1415 41.6528 41.9546 41.6144 41.7657 41.6138C41.4366 41.6138 40.981 41.7909 40.7532 42.0441L39.2851 43.5122C38.0935 42.8071 36.8061 42.2785 35.4629 41.9428V39.8419C35.4629 39.6569 35.4261 39.4738 35.3545 39.3032C35.283 39.1326 35.1782 38.978 35.0462 38.8484C34.9142 38.7188 34.7578 38.6168 34.5859 38.5483C34.4141 38.4799 34.2303 38.4463 34.0454 38.4497H28.8563C28.0716 38.4497 27.4388 39.0825 27.4388 39.8419V41.9428C26.0972 42.2972 24.8316 42.8288 23.6419 43.5122L22.1485 42.0188C22.0169 41.8832 21.8596 41.7753 21.6857 41.7014C21.5118 41.6275 21.3249 41.5891 21.136 41.5884C20.8069 41.5884 20.3513 41.7656 20.0982 42.0188L16.3772 45.7397C15.8457 46.2966 15.8204 47.1572 16.3772 47.7394L17.8707 49.2075C17.1619 50.3972 16.6304 51.6628 16.3013 53.0297H14.2257C13.441 53.0297 12.8335 53.6625 12.8335 54.4219V59.6616C12.8335 60.4969 13.4663 61.1044 14.2257 61.1044ZM23.971 57.0797C23.971 52.9538 27.3629 49.5619 31.4888 49.5619C35.6147 49.5619 38.9813 52.9538 38.9813 57.0797C38.9813 61.2056 35.6147 64.5722 31.4888 64.5722C27.3629 64.5722 23.971 61.2056 23.971 57.0797Z" fill="#9ACC32"/>
</svg>
