<svg width="162" height="162" viewBox="0 0 162 162" fill="none" xmlns="http://www.w3.org/2000/svg">
<path d="M158.564 126.409L153.655 122.482C153.901 120.273 153.901 118.064 153.655 115.855L158.564 111.927C159.301 111.191 159.791 110.209 159.301 109.227L154.637 98.1819C154.146 97.2 153.164 96.7091 152.182 96.7091L146.046 97.4455C144.573 95.7273 143.101 94.2546 141.382 92.7819L142.119 86.6455C142.119 85.6637 141.628 84.6819 140.646 84.191L138.191 83.2091C138.928 79.2819 139.419 75.1091 139.419 70.9364C139.173 33.1364 108.491 2.45459 70.6914 2.45459C33.1369 2.45459 2.45508 33.1364 2.45508 70.691C2.45508 108.245 33.1369 138.927 70.6914 138.927C74.8642 138.927 79.0369 138.436 82.9642 137.7L84.1914 140.645C84.6824 141.627 85.6642 142.118 86.646 142.118L92.7824 141.382C94.2551 143.1 95.7278 144.573 97.446 146.046L96.9551 152.182C96.9551 153.164 97.446 154.146 98.4278 154.636L109.719 159.3C109.964 159.3 110.21 159.546 110.701 159.546C111.437 159.546 112.173 159.3 112.664 158.564L116.591 153.655C118.801 153.9 121.01 153.9 123.219 153.655L127.146 158.564C127.882 159.3 128.864 159.791 129.846 159.3L141.628 154.391C142.61 153.9 143.346 152.918 143.101 151.691C142.855 150.464 142.364 147.764 141.873 145.8C143.591 144.327 145.064 142.855 146.537 141.136L152.673 141.873C153.655 141.873 154.637 141.382 155.128 140.4L159.791 129.109C159.791 128.127 159.546 127.146 158.564 126.409ZM129.11 79.5273C128.128 79.0364 126.901 79.5273 126.41 80.2637L122.728 85.1728C120.519 84.9273 118.31 84.9273 116.101 85.1728L112.173 80.2637C111.437 79.5273 110.455 79.0364 109.473 79.5273L108.491 80.0182C108.737 77.8091 108.737 75.3546 108.737 73.1455H134.264C134.264 75.8455 134.019 78.5455 133.528 81.2455L129.11 79.5273ZM97.446 93.0273C95.7278 94.5 94.2551 95.9728 92.7824 97.691L86.646 96.9546C85.6642 96.9546 84.6824 97.4455 84.1914 98.4273L83.946 98.9182C80.5096 98.4273 76.8278 98.1819 73.146 98.1819V73.1455H103.828C103.828 76.091 103.582 79.2819 103.337 82.2273L98.1824 84.191C97.2005 84.6819 96.7096 85.6637 96.7096 86.6455L97.446 93.0273ZM108.737 68.4819C108.491 57.4364 106.773 46.8819 104.073 37.8C109.719 35.591 114.873 32.891 119.291 29.7C128.128 40.2546 133.773 53.7546 134.264 68.4819H108.737ZM103.828 68.4819H73.146V43.4455C82.2278 43.2 91.3096 41.7273 99.4096 39.0273C102.11 47.8637 103.582 57.6819 103.828 68.4819ZM73.146 38.7819V7.36368C83.4551 8.83641 92.5369 19.1455 97.9369 34.6091C90.3278 37.0637 81.7369 38.5364 73.146 38.7819ZM68.4824 7.36368V38.7819C59.8914 38.5364 51.3005 37.0637 43.6914 34.6091C49.0914 19.1455 58.1733 8.83641 68.4824 7.36368ZM68.4824 43.4455V68.2364H37.5551C37.8005 57.6819 39.2733 47.6182 41.9733 39.0273C50.3187 41.7273 59.1551 43.2 68.4824 43.4455ZM32.8914 68.4819H7.36417C7.85508 53.7546 13.5005 40.2546 22.3369 29.7C26.7551 32.891 31.9096 35.591 37.3096 37.5546C34.6096 46.6364 33.1369 57.191 32.8914 68.4819ZM32.8914 73.1455C33.1369 84.4364 34.6096 94.7455 37.5551 103.827C31.9096 106.036 27.0005 108.736 22.3369 111.682C13.5005 101.373 7.85508 87.8728 7.36417 73.1455H32.8914ZM37.5551 73.1455H68.2369V97.9364C59.1551 98.1819 50.0733 99.6546 41.9733 102.355C39.2733 93.7637 37.8005 83.7 37.5551 73.1455ZM68.4824 102.846V134.264C58.1733 132.546 49.0914 122.236 43.446 106.773C51.3005 104.318 59.646 103.091 68.4824 102.846ZM115.855 26.0182C111.682 28.7182 107.264 31.1728 102.355 33.1364C98.6733 23.0728 93.5187 14.9728 87.3823 9.57277C98.4278 12.5182 108.246 18.1637 115.855 26.0182ZM53.7551 9.57277C47.8642 14.9728 42.7096 23.0728 39.0278 33.1364C34.1187 31.1728 29.7005 28.9637 25.7733 26.2637C33.1369 18.4091 42.9551 12.5182 53.7551 9.57277ZM25.5278 115.364C29.4551 112.664 34.1187 110.209 38.7824 108.491C42.4642 118.555 47.3733 126.655 53.5096 132.055C42.9551 128.864 33.1369 123.218 25.5278 115.364ZM73.146 134.264V102.846C76.0914 102.846 79.2824 103.091 82.2278 103.582L79.5278 109.964C79.0369 110.945 79.5278 112.173 80.2642 112.664L85.1733 116.591C84.9278 118.8 84.9278 121.009 85.1733 123.218L80.2642 127.145C79.5278 127.882 79.0369 128.864 79.5278 129.846L81.246 133.773C78.546 133.773 75.846 134.018 73.146 134.264ZM150.955 136.964L145.31 136.227C144.573 136.227 143.591 136.473 143.101 137.209C141.628 139.418 139.664 141.136 137.455 142.855C136.719 143.346 136.473 144.082 136.473 145.064C136.719 146.291 137.21 148.746 137.455 150.709L129.11 154.145L125.919 149.727C125.428 148.991 124.691 148.745 123.71 148.745C121.01 149.236 118.31 149.236 115.61 148.745C114.873 148.745 113.891 148.991 113.401 149.727L109.964 154.145L101.864 150.955L102.601 145.309C102.601 144.573 102.355 143.591 101.619 143.1C99.4096 141.382 97.446 139.664 95.9733 137.455C95.4823 136.718 94.746 136.473 93.7642 136.473L88.1187 137.209L84.6824 129.355L89.1005 125.673C89.8369 125.182 90.0824 124.2 90.0824 123.464C89.8369 121.009 89.5914 118.309 90.0824 115.364C90.0824 114.627 89.8369 113.645 89.1005 113.155L84.6824 109.718L87.8733 101.618L93.5187 102.355C94.2551 102.355 95.2369 102.109 95.7278 101.373C97.446 99.1637 99.1642 97.2 101.373 95.7273C102.11 95.2364 102.355 94.5 102.355 93.5182L101.619 87.8728L109.473 84.4364L113.155 88.8546C113.646 89.591 114.628 89.8364 115.364 89.8364C118.064 89.591 120.764 89.591 123.464 89.8364C124.201 89.8364 125.182 89.591 125.673 88.8546L129.11 84.4364L137.21 87.6273L136.473 93.2728C136.473 94.0091 136.719 94.991 137.455 95.4819C139.664 97.2 141.628 98.9182 143.101 101.127C143.591 101.864 144.328 102.109 145.31 102.109L150.955 101.373L154.391 109.227L149.728 113.155C148.991 113.645 148.746 114.627 148.746 115.364C148.991 118.064 149.237 120.518 148.746 123.218C148.746 123.955 148.991 124.936 149.728 125.427L154.146 128.864L150.955 136.964Z" fill="#9154E0"/>
<path d="M119.537 105.055C111.682 105.055 105.055 111.437 105.055 119.291C105.055 127.146 111.437 133.527 119.537 133.527C127.391 133.527 133.773 127.146 133.773 119.291C133.773 111.437 127.391 105.055 119.537 105.055ZM119.537 129.109C114.137 129.109 109.964 124.691 109.964 119.537C109.964 114.382 114.382 109.964 119.537 109.964C124.937 109.964 129.109 114.382 129.109 119.537C129.109 124.691 124.691 129.109 119.537 129.109Z" fill="#9154E0"/>
</svg>
