<svg width="162" height="162" viewBox="0 0 162 162" fill="none" xmlns="http://www.w3.org/2000/svg">
<path d="M158.564 126.409L153.655 122.482C153.9 120.273 153.9 118.064 153.655 115.855L158.564 111.927C159.3 111.191 159.791 110.209 159.3 109.227L154.636 98.1818C154.146 97.2 153.164 96.7091 152.182 96.7091L146.046 97.4454C144.573 95.7273 143.1 94.2545 141.382 92.7818L142.118 86.6454C142.118 85.6636 141.627 84.6818 140.645 84.1909L138.191 83.2091C138.927 79.2818 139.418 75.1091 139.418 70.9363C139.173 33.1363 108.491 2.45453 70.691 2.45453C33.1364 2.45453 2.45459 33.1363 2.45459 70.6909C2.45459 108.245 33.1364 138.927 70.691 138.927C74.8637 138.927 79.0364 138.436 82.9637 137.7L84.191 140.645C84.6819 141.627 85.6637 142.118 86.6455 142.118L92.7819 141.382C94.2546 143.1 95.7273 144.573 97.4455 146.045L96.9546 152.182C96.9546 153.164 97.4455 154.145 98.4273 154.636L109.718 159.3C109.964 159.3 110.209 159.545 110.7 159.545C111.436 159.545 112.173 159.3 112.664 158.564L116.591 153.655C118.8 153.9 121.009 153.9 123.218 153.655L127.145 158.564C127.882 159.3 128.864 159.791 129.846 159.3L141.627 154.391C142.609 153.9 143.345 152.918 143.1 151.691C142.855 150.464 142.364 147.764 141.873 145.8C143.591 144.327 145.064 142.855 146.536 141.136L152.673 141.873C153.655 141.873 154.636 141.382 155.127 140.4L159.791 129.109C159.791 128.127 159.545 127.145 158.564 126.409ZM129.109 79.5273C128.127 79.0364 126.9 79.5273 126.409 80.2636L122.727 85.1727C120.518 84.9273 118.309 84.9273 116.1 85.1727L112.173 80.2636C111.436 79.5273 110.455 79.0364 109.473 79.5273L108.491 80.0182C108.736 77.8091 108.736 75.3545 108.736 73.1454H134.264C134.264 75.8454 134.018 78.5454 133.527 81.2454L129.109 79.5273ZM97.4455 93.0273C95.7273 94.5 94.2546 95.9727 92.7819 97.6909L86.6455 96.9545C85.6637 96.9545 84.6819 97.4454 84.191 98.4273L83.9455 98.9182C80.5091 98.4273 76.8273 98.1818 73.1455 98.1818V73.1454H103.827C103.827 76.0909 103.582 79.2818 103.336 82.2273L98.1819 84.1909C97.2 84.6818 96.7091 85.6636 96.7091 86.6454L97.4455 93.0273ZM108.736 68.4818C108.491 57.4363 106.773 46.8818 104.073 37.8C109.718 35.5909 114.873 32.8909 119.291 29.7C128.127 40.2545 133.773 53.7545 134.264 68.4818H108.736ZM103.827 68.4818H73.1455V43.4454C82.2273 43.2 91.3091 41.7273 99.4091 39.0273C102.109 47.8636 103.582 57.6818 103.827 68.4818ZM73.1455 38.7818V7.36362C83.4546 8.83635 92.5364 19.1454 97.9364 34.6091C90.3273 37.0636 81.7364 38.5363 73.1455 38.7818ZM68.4819 7.36362V38.7818C59.891 38.5363 51.3 37.0636 43.691 34.6091C49.091 19.1454 58.1728 8.83635 68.4819 7.36362ZM68.4819 43.4454V68.2363H37.5546C37.8 57.6818 39.2728 47.6182 41.9728 39.0273C50.3182 41.7273 59.1546 43.2 68.4819 43.4454ZM32.891 68.4818H7.36368C7.85459 53.7545 13.5 40.2545 22.3364 29.7C26.7546 32.8909 31.9091 35.5909 37.3091 37.5545C34.6091 46.6363 33.1364 57.1909 32.891 68.4818ZM32.891 73.1454C33.1364 84.4363 34.6091 94.7454 37.5546 103.827C31.9091 106.036 27 108.736 22.3364 111.682C13.5 101.373 7.85459 87.8727 7.36368 73.1454H32.891ZM37.5546 73.1454H68.2364V97.9364C59.1546 98.1818 50.0728 99.6545 41.9728 102.355C39.2728 93.7636 37.8 83.7 37.5546 73.1454ZM68.4819 102.845V134.264C58.1728 132.545 49.091 122.236 43.4455 106.773C51.3 104.318 59.6455 103.091 68.4819 102.845ZM115.855 26.0182C111.682 28.7182 107.264 31.1727 102.355 33.1363C98.6728 23.0727 93.5182 14.9727 87.3819 9.57271C98.4273 12.5182 108.246 18.1636 115.855 26.0182ZM53.7546 9.57271C47.8637 14.9727 42.7091 23.0727 39.0273 33.1363C34.1182 31.1727 29.7 28.9636 25.7728 26.2636C33.1364 18.4091 42.9546 12.5182 53.7546 9.57271ZM25.5273 115.364C29.4546 112.664 34.1182 110.209 38.7819 108.491C42.4637 118.555 47.3728 126.655 53.5091 132.055C42.9546 128.864 33.1364 123.218 25.5273 115.364ZM73.1455 134.264V102.845C76.091 102.845 79.2819 103.091 82.2273 103.582L79.5273 109.964C79.0364 110.945 79.5273 112.173 80.2637 112.664L85.1728 116.591C84.9273 118.8 84.9273 121.009 85.1728 123.218L80.2637 127.145C79.5273 127.882 79.0364 128.864 79.5273 129.845L81.2455 133.773C78.5455 133.773 75.8455 134.018 73.1455 134.264ZM150.955 136.964L145.309 136.227C144.573 136.227 143.591 136.473 143.1 137.209C141.627 139.418 139.664 141.136 137.455 142.855C136.718 143.345 136.473 144.082 136.473 145.064C136.718 146.291 137.209 148.745 137.455 150.709L129.109 154.145L125.918 149.727C125.427 148.991 124.691 148.745 123.709 148.745C121.009 149.236 118.309 149.236 115.609 148.745C114.873 148.745 113.891 148.991 113.4 149.727L109.964 154.145L101.864 150.955L102.6 145.309C102.6 144.573 102.355 143.591 101.618 143.1C99.4091 141.382 97.4455 139.664 95.9728 137.455C95.4819 136.718 94.7455 136.473 93.7637 136.473L88.1182 137.209L84.6819 129.355L89.1 125.673C89.8364 125.182 90.0819 124.2 90.0819 123.464C89.8364 121.009 89.591 118.309 90.0819 115.364C90.0819 114.627 89.8364 113.645 89.1 113.155L84.6819 109.718L87.8728 101.618L93.5182 102.355C94.2546 102.355 95.2364 102.109 95.7273 101.373C97.4455 99.1636 99.1637 97.2 101.373 95.7273C102.109 95.2363 102.355 94.5 102.355 93.5182L101.618 87.8727L109.473 84.4364L113.155 88.8545C113.645 89.5909 114.627 89.8363 115.364 89.8363C118.064 89.5909 120.764 89.5909 123.464 89.8363C124.2 89.8363 125.182 89.5909 125.673 88.8545L129.109 84.4364L137.209 87.6273L136.473 93.2727C136.473 94.0091 136.718 94.9909 137.455 95.4818C139.664 97.2 141.627 98.9182 143.1 101.127C143.591 101.864 144.327 102.109 145.309 102.109L150.955 101.373L154.391 109.227L149.727 113.155C148.991 113.645 148.745 114.627 148.745 115.364C148.991 118.064 149.236 120.518 148.745 123.218C148.745 123.955 148.991 124.936 149.727 125.427L154.145 128.864L150.955 136.964Z" fill="#9ACC32"/>
<path d="M119.537 105.055C111.682 105.055 105.055 111.436 105.055 119.291C105.055 127.145 111.437 133.527 119.537 133.527C127.391 133.527 133.773 127.145 133.773 119.291C133.773 111.436 127.391 105.055 119.537 105.055ZM119.537 129.109C114.137 129.109 109.964 124.691 109.964 119.536C109.964 114.382 114.382 109.964 119.537 109.964C124.937 109.964 129.109 114.382 129.109 119.536C129.109 124.691 124.691 129.109 119.537 129.109Z" fill="#9ACC32"/>
</svg>
