<svg width="162" height="162" viewBox="0 0 162 162" fill="none" xmlns="http://www.w3.org/2000/svg">
<path d="M146.812 2.53125H15.1875C8.20884 2.53125 2.53125 8.20884 2.53125 15.1875V108.844C2.53125 115.822 8.20884 121.5 15.1875 121.5H62.5548C64.6279 124.462 65.8125 127.985 65.8125 131.625C65.8013 134.254 65.2056 136.848 64.0685 139.219H53.1562C46.1776 139.219 40.5 144.896 40.5 151.875V156.938C40.5 157.609 40.7667 158.253 41.2414 158.727C41.7161 159.202 42.3599 159.469 43.0312 159.469H118.969C119.64 159.469 120.284 159.202 120.759 158.727C121.233 158.253 121.5 157.609 121.5 156.938V151.875C121.5 144.896 115.822 139.219 108.844 139.219H97.9315C96.7936 136.848 96.1978 134.254 96.1875 131.625C96.1875 127.937 97.3418 124.479 99.4351 121.5H146.812C153.791 121.5 159.469 115.822 159.469 108.844V15.1875C159.469 8.20884 153.791 2.53125 146.812 2.53125ZM15.1875 7.59375H146.812C150.999 7.59375 154.406 11.0008 154.406 15.1875V86.0625H149.344V17.7188C149.344 14.9268 147.073 12.6562 144.281 12.6562H17.7188C14.9268 12.6562 12.6562 14.9268 12.6562 17.7188V86.0625H7.59375V15.1875C7.59375 11.0008 11.0008 7.59375 15.1875 7.59375ZM101.675 40.5076C103.808 38.8685 106.42 37.9764 109.11 37.9688C114.334 37.9687 119.022 41.353 120.774 46.3927C121.13 47.4103 122.087 48.0938 123.166 48.0938H144.281V53.1562H123.135C122.611 53.1557 122.1 53.3181 121.672 53.621C121.244 53.924 120.922 54.3525 120.748 54.8471C119.222 59.1857 115.443 62.4333 111.114 63.1193C109.459 63.391 107.766 63.32 106.14 62.9107C104.514 62.5014 102.989 61.7625 101.66 60.7399C104.271 60.6322 106.74 59.5197 108.55 57.6348C110.361 55.7499 111.373 53.2384 111.375 50.625C111.372 48.0142 110.361 45.5053 108.555 43.6207C106.748 41.7361 104.284 40.621 101.675 40.5076ZM144.281 43.0312H124.867C122.004 36.9082 115.881 32.9062 109.11 32.9062C102.89 32.9062 97.0962 36.3083 93.9878 41.7808C93.769 42.1659 93.6551 42.6018 93.6575 43.0447C93.6598 43.4877 93.7784 43.9222 94.0013 44.305C94.2242 44.6878 94.5436 45.0054 94.9277 45.2261C95.3118 45.4467 95.7471 45.5627 96.19 45.5625H101.25C104.042 45.5625 106.312 47.833 106.312 50.625C106.312 53.417 104.042 55.6875 101.247 55.6875L96.185 55.69C95.7421 55.6904 95.307 55.807 94.9233 56.0282C94.5396 56.2493 94.2206 56.5673 93.9982 56.9503C93.7758 57.3333 93.6578 57.768 93.656 58.2109C93.6542 58.6538 93.7686 59.0894 93.9878 59.4743C97.1595 65.0481 102.898 68.3438 109.112 68.3438C110.036 68.3438 110.97 68.2703 111.909 68.1235C117.46 67.2401 122.363 63.4306 124.829 58.2213H144.281V86.065H17.7188V17.7188H144.281V43.0312ZM116.438 151.875V154.406H45.5625V151.875C45.5625 147.688 48.9696 144.281 53.1562 144.281H108.844C113.03 144.281 116.438 147.688 116.438 151.875ZM92.4742 139.219H69.5258C70.3865 136.789 70.875 134.23 70.875 131.625C70.8667 128.11 70.0463 124.645 68.4779 121.5H93.5221C91.956 124.646 91.1357 128.111 91.125 131.625C91.125 134.227 91.6161 136.789 92.4742 139.219ZM146.812 116.438H15.1875C11.0008 116.438 7.59375 113.03 7.59375 108.844V91.125H154.406V108.844C154.406 113.03 150.999 116.438 146.812 116.438Z" fill="#9154E0"/>
<path d="M81 96.1875C76.8133 96.1875 73.4062 99.5946 73.4062 103.781C73.4062 107.968 76.8133 111.375 81 111.375C85.1867 111.375 88.5938 107.968 88.5938 103.781C88.5938 99.5946 85.1867 96.1875 81 96.1875ZM81 106.312C80.3483 106.283 79.7329 106.004 79.282 105.532C78.8311 105.061 78.5794 104.434 78.5794 103.781C78.5794 103.129 78.8311 102.502 79.282 102.03C79.7329 101.559 80.3483 101.279 81 101.25C81.6517 101.279 82.2671 101.559 82.718 102.03C83.1689 102.502 83.4206 103.129 83.4206 103.781C83.4206 104.434 83.1689 105.061 82.718 105.532C82.2671 106.004 81.6517 106.283 81 106.312ZM35.4375 58.2188H38.9357L39.9507 60.2513L36.1792 64.0229C35.9439 64.2578 35.7572 64.5367 35.6299 64.8438C35.5025 65.1509 35.437 65.4801 35.437 65.8125C35.437 66.1449 35.5025 66.4741 35.6299 66.7812C35.7572 67.0883 35.9439 67.3672 36.1792 67.6021L43.7729 75.1958C44.0078 75.4311 44.2867 75.6178 44.5938 75.7451C44.9009 75.8725 45.2301 75.938 45.5625 75.938C45.8949 75.938 46.2241 75.8725 46.5312 75.7451C46.8383 75.6178 47.1172 75.4311 47.3521 75.1958L51.1237 71.4243L53.1562 72.4393V75.9375C53.1562 76.6088 53.4229 77.2527 53.8976 77.7274C54.3723 78.2021 55.0162 78.4688 55.6875 78.4688H65.8125C66.4838 78.4688 67.1277 78.2021 67.6024 77.7274C68.0771 77.2527 68.3438 76.6088 68.3438 75.9375V72.4393L70.3763 71.4243L74.1479 75.1958C74.3828 75.4311 74.6617 75.6178 74.9688 75.7451C75.2759 75.8725 75.6051 75.938 75.9375 75.938C76.2699 75.938 76.5991 75.8725 76.9062 75.7451C77.2133 75.6178 77.4922 75.4311 77.7271 75.1958L85.3208 67.6021C85.5561 67.3672 85.7428 67.0883 85.8701 66.7812C85.9975 66.4741 86.063 66.1449 86.063 65.8125C86.063 65.4801 85.9975 65.1509 85.8701 64.8438C85.7428 64.5367 85.5561 64.2578 85.3208 64.0229L81.5493 60.2513L82.5643 58.2188H86.0625C86.7338 58.2188 87.3777 57.9521 87.8524 57.4774C88.3271 57.0027 88.5938 56.3588 88.5938 55.6875V45.5625C88.5938 44.8912 88.3271 44.2473 87.8524 43.7726C87.3777 43.2979 86.7338 43.0312 86.0625 43.0312H82.5643L81.5493 40.9987L85.3208 37.2271C85.5561 36.9922 85.7428 36.7133 85.8701 36.4062C85.9975 36.0991 86.063 35.7699 86.063 35.4375C86.063 35.1051 85.9975 34.7759 85.8701 34.4688C85.7428 34.1617 85.5561 33.8828 85.3208 33.6479L77.7271 26.0542C77.4922 25.8189 77.2133 25.6322 76.9062 25.5049C76.5991 25.3775 76.2699 25.312 75.9375 25.312C75.6051 25.312 75.2759 25.3775 74.9688 25.5049C74.6617 25.6322 74.3828 25.8189 74.1479 26.0542L70.3763 29.8257L68.3438 28.8107V25.3125C68.3438 24.6412 68.0771 23.9973 67.6024 23.5226C67.1277 23.0479 66.4838 22.7812 65.8125 22.7812H55.6875C55.0162 22.7812 54.3723 23.0479 53.8976 23.5226C53.4229 23.9973 53.1562 24.6412 53.1562 25.3125V28.8107L51.1237 29.8257L47.3521 26.0542C47.1172 25.8189 46.8383 25.6322 46.5312 25.5049C46.2241 25.3775 45.8949 25.312 45.5625 25.312C45.2301 25.312 44.9009 25.3775 44.5938 25.5049C44.2867 25.6322 44.0078 25.8189 43.7729 26.0542L36.1792 33.6479C35.9439 33.8828 35.7572 34.1617 35.6299 34.4688C35.5025 34.7759 35.437 35.1051 35.437 35.4375C35.437 35.7699 35.5025 36.0991 35.6299 36.4062C35.7572 36.7133 35.9439 36.9922 36.1792 37.2271L39.9507 40.9987L38.9357 43.0312H35.4375C34.7662 43.0312 34.1223 43.2979 33.6476 43.7726C33.1729 44.2473 32.9062 44.8912 32.9062 45.5625V55.6875C32.9062 56.3588 33.1729 57.0027 33.6476 57.4774C34.1223 57.9521 34.7662 58.2188 35.4375 58.2188ZM37.9688 48.0938H40.5C41.4593 48.0938 42.3352 47.5521 42.7655 46.694L45.2967 41.6315C45.5339 41.1562 45.6156 40.6184 45.5302 40.0941C45.4448 39.5699 45.1966 39.0858 44.8208 38.7104L41.5479 35.4375L45.5625 31.4229L48.8354 34.6958C49.61 35.4679 50.787 35.6552 51.7565 35.1717L56.819 32.6405C57.6771 32.2102 58.2188 31.3343 58.2188 30.375V27.8438H63.2812V30.375C63.2812 31.3343 63.8229 32.2102 64.681 32.6405L69.7435 35.1717C70.7181 35.6527 71.8926 35.4679 72.6646 34.6958L75.9375 31.4229L79.9521 35.4375L76.6792 38.7104C76.3034 39.0858 76.0552 39.5699 75.9698 40.0941C75.8844 40.6184 75.9661 41.1562 76.2033 41.6315L78.7345 46.694C79.1648 47.5521 80.0407 48.0938 81 48.0938H83.5312V53.1562H81C80.0407 53.1562 79.1648 53.6979 78.7345 54.556L76.2033 59.6185C75.9661 60.0938 75.8844 60.6316 75.9698 61.1559C76.0552 61.6801 76.3034 62.1642 76.6792 62.5396L79.9521 65.8125L75.9375 69.8271L72.6646 66.5542C72.288 66.1804 71.804 65.9336 71.2803 65.8483C70.7566 65.763 70.2193 65.8434 69.7435 66.0783L64.681 68.6095C63.8229 69.0398 63.2812 69.9157 63.2812 70.875V73.4062H58.2188V70.875C58.2188 69.9157 57.6771 69.0398 56.819 68.6095L51.7565 66.0783C51.2812 65.8411 50.7434 65.7594 50.2191 65.8448C49.6949 65.9302 49.2108 66.1784 48.8354 66.5542L45.5625 69.8271L41.5479 65.8125L44.8208 62.5396C45.1966 62.1642 45.4448 61.6801 45.5302 61.1559C45.6156 60.6316 45.5339 60.0938 45.2967 59.6185L42.7655 54.556C42.555 54.1354 42.2316 53.7817 41.8315 53.5345C41.4313 53.2873 40.9703 53.1563 40.5 53.1562H37.9688V48.0938Z" fill="#9154E0"/>
<path d="M60.75 63.2812C67.7287 63.2812 73.4062 57.6037 73.4062 50.625C73.4062 43.6463 67.7287 37.9688 60.75 37.9688C53.7713 37.9688 48.0938 43.6463 48.0938 50.625C48.0938 57.6037 53.7713 63.2812 60.75 63.2812ZM60.75 43.0312C64.9367 43.0312 68.3438 46.4383 68.3438 50.625C68.3438 54.8117 64.9367 58.2188 60.75 58.2188C56.5633 58.2188 53.1562 54.8117 53.1562 50.625C53.1562 46.4383 56.5633 43.0312 60.75 43.0312Z" fill="#9154E0"/>
</svg>
