<svg width="162" height="162" viewBox="0 0 162 162" fill="none" xmlns="http://www.w3.org/2000/svg">
<path d="M145.058 124.663H143.459V50.6263C143.459 45.8204 140.133 41.6917 135.614 40.5326V30.1233C135.614 27.6472 133.6 25.633 131.125 25.633H129.823V18.0197C129.823 16.9782 129.001 16.1218 127.961 16.0802C112.381 15.4432 96.5963 18.6036 81.0337 25.4681C65.4711 18.6036 49.6877 15.4447 34.1065 16.0802C33.0667 16.1232 32.2449 16.9782 32.2449 18.0197V25.633H30.8738C28.3984 25.633 26.3847 27.6472 26.3847 30.1233V40.5326C21.8655 41.6917 18.5396 45.819 18.5396 50.6263V124.663H16.9405C15.8677 124.663 15 125.533 15 126.604V131.179C15 139.352 21.6475 146 29.8168 146H132.183C140.354 146 147 139.351 147 131.179V126.606C147 125.533 146.131 124.663 145.058 124.663ZM139.577 50.6263V124.663H135.614V44.6211C137.947 45.6311 139.577 47.9637 139.577 50.6263ZM68.2463 128.547H93.7522V133.391H68.2463V128.547ZM30.2657 124.663V91.9278C30.465 91.9551 30.6673 91.9737 30.8738 91.9737H50.3632V96.3033C50.3632 98.3433 52.0226 100.002 54.0606 100.002H57.2603C58.4077 100.002 59.3557 100.634 59.7946 101.696C60.2334 102.757 60.0111 103.875 59.1994 104.687L56.9376 106.949C56.2406 107.647 55.8562 108.576 55.8562 109.565C55.8562 110.554 56.2406 111.483 56.9376 112.18L61.7336 116.977C63.175 118.419 65.5213 118.419 66.9627 116.977L69.2245 114.715C70.0362 113.903 71.1549 113.68 72.2148 114.119C73.2761 114.558 73.9086 115.507 73.9086 116.654V119.855C73.9086 121.895 75.5679 123.553 77.606 123.553H84.3883C86.4278 123.553 88.0857 121.893 88.0857 119.855V116.654C88.0857 115.507 88.7182 114.558 89.7795 114.119C90.8408 113.68 91.9581 113.903 92.7698 114.715L95.0316 116.977C96.4729 118.419 98.8193 118.419 100.261 116.977L105.057 112.18C105.754 111.483 106.138 110.553 106.138 109.565C106.138 108.575 105.754 107.647 105.057 106.949L102.793 104.686C101.982 103.874 101.759 102.756 102.198 101.694C102.637 100.634 103.585 100 104.733 100H107.932C109.972 100 111.63 98.3404 111.63 96.3019V91.9723H131.125C131.331 91.9723 131.534 91.9537 131.733 91.9264V124.662L30.2657 124.663ZM93.1886 91.9737C93.2116 92.285 93.2273 92.5978 93.2273 92.9105C93.2273 99.6559 87.7415 105.143 80.9979 105.143C74.2542 105.143 68.7684 99.6559 68.7684 92.9105C68.7684 92.5978 68.7842 92.285 68.8071 91.9737H71.5464C72.7196 96.1125 76.5733 99.1481 80.9964 99.1481C85.4209 99.1481 89.2732 96.1139 90.4478 91.9737H93.1886ZM80.9993 109.027C89.8828 109.027 97.1112 101.798 97.1112 92.9105C97.1112 92.5978 97.0997 92.285 97.081 91.9737H107.753V96.1182H104.738C102.008 96.1182 99.6612 97.6862 98.6171 100.21C97.5715 102.733 98.1223 105.5 100.053 107.433L102.185 109.566L97.6504 114.102L95.5178 111.969C93.5873 110.038 90.8193 109.487 88.2965 110.533C85.7738 111.579 84.2062 113.924 84.2062 116.656V119.671H77.7924V116.656C77.7924 113.924 76.2248 111.577 73.702 110.533C71.1793 109.487 68.4127 110.038 66.4808 111.969L64.3482 114.102L59.8132 109.566L61.9444 107.433C63.8763 105.502 64.4256 102.735 63.3815 100.21C62.336 97.6862 59.991 96.1182 57.2603 96.1182H54.2456V91.9737H64.9175C64.8989 92.285 64.8874 92.5978 64.8874 92.9105C64.8874 101.796 72.1158 109.027 80.9993 109.027ZM125.94 19.9019V76.4215C117.42 76.5506 97.1427 77.6437 82.9412 84.6803V28.8695C97.223 22.6219 111.671 19.6093 125.94 19.9019ZM36.1244 19.9019C50.3661 19.6078 64.7971 22.6118 79.0588 28.8379V84.6459C64.8616 77.6394 44.6321 76.5506 36.1244 76.42V19.9019ZM30.2671 30.1233C30.2671 29.7948 30.5454 29.5165 30.8738 29.5165H32.242V78.3481C32.242 79.4212 33.1112 80.2891 34.1825 80.2891C53.0954 80.2891 70.2255 83.7593 80.0068 89.5722C80.3123 89.753 80.6551 89.8448 80.9979 89.8448C81.3292 89.8448 81.6605 89.7602 81.9573 89.5909C81.9846 89.5751 82.009 89.5565 82.0348 89.5393L82.0549 89.5722C91.8361 83.7593 108.966 80.2891 127.879 80.2891C128.952 80.2891 129.82 79.4197 129.82 78.3481V29.5165H131.122C131.45 29.5165 131.729 29.7948 131.729 30.1233V87.4821C131.729 87.8106 131.45 88.0889 131.122 88.0889H88.8415C87.8361 88.0889 86.9971 88.8564 86.9082 89.8577C86.6372 92.889 84.0398 95.2632 80.9979 95.2632C77.9545 95.2632 75.3586 92.889 75.0875 89.8577C74.9971 88.8564 74.1596 88.0889 73.1542 88.0889H30.8738C30.5454 88.0889 30.2671 87.8106 30.2671 87.4821V30.1233ZM22.422 50.6263C22.422 47.9623 24.0498 45.6297 26.3847 44.6211L26.3833 124.663H22.422V50.6263ZM143.118 131.181C143.118 137.212 138.213 142.118 132.183 142.118H29.8168C23.7874 142.118 18.8824 137.212 18.8824 131.181V128.547H64.3639V135.332C64.3639 136.406 65.2331 137.273 66.3044 137.273H95.6927C96.7655 137.273 97.6332 136.404 97.6332 135.332V128.547H143.116L143.118 131.181ZM74.6372 76.1905C74.3503 76.9795 73.606 77.4716 72.8114 77.4716C72.592 77.4716 72.3682 77.4343 72.1502 77.3554C61.8254 73.6126 50.2169 72.3128 42.2958 71.881C41.2259 71.8222 40.4041 70.9069 40.4629 69.8367C40.5217 68.7665 41.4338 67.9417 42.5066 68.0033C50.6888 68.4495 62.7017 69.8009 73.4726 73.7044C74.4823 74.0688 75.0029 75.182 74.6372 76.1905ZM40.4643 61.1977C40.5217 60.1261 41.4338 59.3055 42.5052 59.3614C54.085 59.974 64.7942 61.9638 73.474 65.1112C74.4823 65.4771 75.0029 66.5903 74.6372 67.5988C74.3503 68.3878 73.606 68.8784 72.8114 68.8784C72.592 68.8784 72.3682 68.8411 72.1502 68.7622C63.8247 65.7425 53.5027 63.833 42.2987 63.2391C41.2288 63.1832 40.407 62.2679 40.4643 61.1977ZM40.4643 52.5615C40.5188 51.4899 41.4281 50.665 42.5023 50.7224C53.9243 51.3091 64.635 53.3147 73.4754 56.521C74.4837 56.8868 75.0043 58 74.6386 59.0085C74.3517 59.7976 73.6074 60.2882 72.8128 60.2882C72.5934 60.2882 72.3697 60.2509 72.1517 60.172C63.6683 57.0948 53.3478 55.1682 42.3044 54.6001C41.2316 54.5441 40.4084 53.6317 40.4643 52.5615ZM74.6372 50.4154C74.3503 51.2044 73.606 51.6965 72.8114 51.6965C72.592 51.6965 72.3682 51.6592 72.1502 51.5803C63.5048 48.4457 53.1843 46.5033 42.3058 45.961C41.2345 45.908 40.4098 44.997 40.4629 43.9254C40.516 42.8537 41.4295 42.0303 42.498 42.0819C53.758 42.6429 64.4701 44.6642 73.4726 47.9278C74.4823 48.2937 75.0029 49.4069 74.6372 50.4154ZM40.4643 35.2878C40.516 34.2161 41.4238 33.3898 42.4966 33.4415C53.7508 33.9837 64.1732 35.9663 73.474 39.3347C74.4823 39.6991 75.0029 40.8138 74.6386 41.8208C74.3532 42.6113 73.6074 43.1019 72.8128 43.1019C72.5934 43.1019 72.3697 43.0646 72.1517 42.9857C63.2151 39.7493 53.1743 37.8428 42.3087 37.3191C41.2388 37.2689 40.4127 36.3594 40.4643 35.2878ZM74.6386 33.2291C74.3532 34.0196 73.6074 34.5117 72.8128 34.5117C72.5934 34.5117 72.3711 34.4744 72.1531 34.3955C63.0445 31.1017 53.0036 29.1779 42.313 28.6815C41.2417 28.6313 40.4141 27.7232 40.4643 26.6516C40.5145 25.58 41.4267 24.7551 42.4937 24.8024C53.5744 25.3174 63.9982 27.3158 73.474 30.743C74.4808 31.1088 75.0029 32.2206 74.6386 33.2291ZM121.6 69.8339C121.659 70.9041 120.839 71.8208 119.767 71.8781C111.846 72.31 100.238 73.6097 89.9129 77.3525C89.6949 77.4314 89.4711 77.4687 89.2517 77.4687C88.4572 77.4687 87.7128 76.9781 87.426 76.1876C87.0602 75.1791 87.5823 74.0659 88.5891 73.7001C99.36 69.7951 111.374 68.4438 119.555 67.999C120.626 67.9431 121.541 68.7637 121.6 69.8339ZM121.6 61.1977C121.656 62.2679 120.834 63.1832 119.764 63.2391C108.562 63.833 98.2384 65.7425 89.9129 68.7622C89.6949 68.8411 89.4711 68.8784 89.2517 68.8784C88.4586 68.8784 87.7128 68.3878 87.426 67.5988C87.0602 66.5903 87.5809 65.4771 88.5891 65.1112C97.2689 61.9623 107.978 59.974 119.558 59.3614C120.629 59.3055 121.543 60.1275 121.6 61.1977ZM87.426 59.0071C87.0602 57.9986 87.5809 56.8854 88.5891 56.5195C97.4296 53.3133 108.139 51.3077 119.562 50.721C120.636 50.6665 121.546 51.4899 121.6 52.5601C121.655 53.6317 120.831 54.5441 119.762 54.5986C108.718 55.1653 98.3962 57.0919 89.9129 60.1705C89.6949 60.2494 89.4711 60.2867 89.2517 60.2867C88.4572 60.2882 87.7128 59.7976 87.426 59.0071ZM88.5891 47.9278C97.5931 44.6627 108.304 42.6414 119.565 42.0819C120.634 42.0289 121.547 42.8537 121.6 43.9254C121.653 44.997 120.829 45.908 119.757 45.961C108.877 46.5019 98.5568 48.4457 89.9114 51.5803C89.6934 51.6592 89.4697 51.6965 89.2503 51.6965C88.4557 51.6965 87.7114 51.2059 87.4245 50.4154C87.0602 49.4069 87.5823 48.2937 88.5891 47.9278ZM87.426 41.8223C87.0602 40.8138 87.5823 39.7005 88.5905 39.3362C97.8928 35.9663 108.315 33.9837 119.568 33.4429C120.634 33.3913 121.549 34.2176 121.6 35.2892C121.652 36.3608 120.826 37.2704 119.754 37.322C108.889 37.8456 98.848 39.7522 89.9114 42.9886C89.6934 43.0675 89.4697 43.1048 89.2503 43.1048C88.4572 43.1034 87.7114 42.6127 87.426 41.8223ZM88.5905 30.743C98.0663 27.3158 108.49 25.3174 119.571 24.8024C120.642 24.7537 121.55 25.5814 121.6 26.6516C121.65 27.7232 120.821 28.6313 119.752 28.6815C109.061 29.1779 99.0201 31.1002 89.9114 34.3955C89.6934 34.4744 89.4711 34.5117 89.2517 34.5117C88.4572 34.5117 87.7114 34.0196 87.426 33.2291C87.0617 32.2206 87.5837 31.1088 88.5905 30.743Z" fill="#9ACC32"/>
</svg>
