<svg width="162" height="162" viewBox="0 0 162 162" fill="none" xmlns="http://www.w3.org/2000/svg">
<path d="M65.7006 18.4585H77.8101C78.4419 18.4585 79.0479 18.2075 79.4947 17.7607C79.9415 17.3139 80.1925 16.708 80.1925 16.0761C80.1925 15.4443 79.9415 14.8383 79.4947 14.3916C79.0479 13.9448 78.4419 13.6938 77.8101 13.6938H65.7006C65.0688 13.6938 64.4628 13.9448 64.016 14.3916C63.5692 14.8383 63.3182 15.4443 63.3182 16.0761C63.3182 16.708 63.5692 17.3139 64.016 17.7607C64.4628 18.2075 65.0688 18.4585 65.7006 18.4585ZM54.9014 146.715H76.4998C77.1316 146.715 77.7376 146.464 78.1844 146.017C78.6312 145.57 78.8822 144.964 78.8822 144.332C78.8822 143.701 78.6312 143.095 78.1844 142.648C77.7376 142.201 77.1316 141.95 76.4998 141.95H54.9014C54.2696 141.95 53.6636 142.201 53.2168 142.648C52.77 143.095 52.519 143.701 52.519 144.332C52.519 144.964 52.77 145.57 53.2168 146.017C53.6636 146.464 54.2696 146.715 54.9014 146.715Z" fill="#9ACC32"/>
<path d="M24.1929 123.01C24.8247 123.01 25.4307 122.759 25.8775 122.313C26.3243 121.866 26.5753 121.26 26.5753 120.628V27.3971H104.824V39.6519C104.824 40.2837 105.075 40.8897 105.521 41.3365C105.968 41.7832 106.574 42.0342 107.206 42.0342C107.838 42.0342 108.444 41.7832 108.891 41.3365C109.337 40.8897 109.588 40.2837 109.588 39.6519L109.598 14.2465C109.598 9.02912 105.333 4.76471 100.099 4.76471H31.2923C26.3132 4.76471 21.8105 8.86236 21.8105 14.2536V120.628C21.8105 121.26 22.0615 121.866 22.5083 122.313C22.9551 122.759 23.5611 123.01 24.1929 123.01ZM100.095 9.52942C102.613 9.52942 104.826 11.5902 104.826 14.2536V22.6324H26.5753V14.2465C26.5753 11.6497 28.7051 9.52942 31.2995 9.52942H100.095Z" fill="#9ACC32"/>
<path d="M80.402 64.7904C80.851 65.2349 81.4581 65.4828 82.0898 65.4796C82.7215 65.4765 83.3261 65.2226 83.7707 64.7738L93.7289 54.725C94.1704 54.2789 94.4181 53.6767 94.4181 53.049C94.4181 52.4214 94.1704 51.8191 93.7289 51.373L83.7707 41.3243C83.3215 40.8986 82.7242 40.6644 82.1054 40.6712C81.4866 40.6781 80.8947 40.9255 80.4551 41.3611C80.0155 41.7967 79.7626 42.3863 79.75 43.0051C79.7375 43.6238 79.9662 44.2232 80.3877 44.6762L88.6807 53.0502L80.3853 61.4218C79.9409 61.8708 79.693 62.4779 79.6961 63.1096C79.6993 63.7413 79.9532 64.3459 80.402 64.7904ZM50.9966 41.3076C50.7746 41.087 50.5113 40.9123 50.2217 40.7937C49.932 40.6751 49.6218 40.6149 49.3088 40.6164C48.9959 40.618 48.6863 40.6813 48.3978 40.8028C48.1094 40.9242 47.8478 41.1015 47.628 41.3243L37.6721 51.373C37.2306 51.8191 36.9829 52.4214 36.9829 53.049C36.9829 53.6767 37.2306 54.2789 37.6721 54.725L47.6304 64.7738C47.8478 65.0074 48.1099 65.195 48.4012 65.3254C48.6925 65.4558 49.0071 65.5264 49.3261 65.5328C49.6452 65.5393 49.9624 65.4816 50.2587 65.3632C50.5551 65.2447 50.8246 65.0679 51.0514 64.8433C51.2781 64.6186 51.4573 64.3507 51.5785 64.0555C51.6997 63.7602 51.7603 63.4436 51.7567 63.1245C51.7532 62.8054 51.6856 62.4902 51.5579 62.1977C51.4301 61.9052 51.245 61.6413 51.0133 61.4218L42.7203 53.0502L51.0133 44.6762C51.4577 44.2273 51.7056 43.6202 51.7025 42.9885C51.6994 42.3567 51.4455 41.7521 50.9966 41.3076ZM69.5409 34.5751L55.5565 69.7624C55.4409 70.0532 55.3837 70.3639 55.3881 70.6768C55.3926 70.9897 55.4587 71.2987 55.5826 71.5861C55.7065 71.8734 55.8857 72.1336 56.1102 72.3517C56.3346 72.5698 56.5998 72.7415 56.8906 72.8571C57.1814 72.9727 57.4921 73.0299 57.805 73.0254C58.1179 73.0209 58.4269 72.9549 58.7142 72.831C59.0016 72.7071 59.2617 72.5278 59.4798 72.3034C59.6979 72.079 59.8697 71.8138 59.9853 71.523L73.9697 36.3356C74.2031 35.748 74.1936 35.0917 73.9432 34.5111C73.6928 33.9306 73.222 33.4732 72.6344 33.2398C72.0467 33.0063 71.3905 33.0158 70.8099 33.2662C70.2293 33.5167 69.772 33.9875 69.5385 34.5751H69.5409ZM107.218 78.7129C100.237 78.7129 94.5675 84.3829 94.5675 91.3632C94.5675 98.4102 100.314 104.014 107.218 104.014C114.093 104.014 119.844 98.4197 119.844 91.3632C119.844 84.3829 114.174 78.7129 107.218 78.7129ZM109.6 98.8676V89.7909C109.6 88.4806 108.528 87.4085 107.218 87.4085C105.884 87.4085 104.835 88.4806 104.835 89.7909V98.8914C103.045 98.3178 101.517 97.1238 100.529 95.5244C99.5398 93.9249 99.1543 92.0251 99.4415 90.1668C99.7288 88.3084 100.67 86.6136 102.095 85.3873C103.521 84.1611 105.337 83.4839 107.218 83.4776C111.554 83.4776 115.08 87.0273 115.08 91.3632C115.08 94.8891 112.769 97.867 109.6 98.8676Z" fill="#9ACC32"/>
<path d="M138.069 83.835L132.209 83.168C131.756 81.7862 131.184 80.4283 130.494 79.118L133.924 74.258C134.615 73.3289 134.496 72.0186 133.686 71.2086L126.848 64.395C126.437 63.9776 125.886 63.7271 125.301 63.6919C124.716 63.6567 124.138 63.8393 123.68 64.2044L119.082 67.8971C117.772 67.23 116.414 66.6821 115.008 66.2533L114.031 60.3689C113.936 59.8136 113.646 59.3102 113.214 58.9482C112.783 58.5862 112.236 58.3889 111.673 58.3915H102.024C100.809 58.3915 99.785 59.2968 99.642 60.5118L98.9988 66.3962C97.5932 66.8489 96.2591 67.4206 94.9726 68.0877L90.0888 64.6333C89.6327 64.3062 89.0748 64.1529 88.5157 64.201C87.9565 64.249 87.433 64.4953 87.0394 64.8953L80.2258 71.7089C79.3682 72.5665 79.2967 73.9244 80.0591 74.8774L83.7279 79.4991C83.0608 80.8094 82.5129 82.1674 82.0841 83.573L76.2235 84.5497C75.08 84.7642 74.2223 85.7409 74.2223 86.9083V96.5568C74.2223 97.7718 75.1514 98.7724 76.3426 98.9153L82.2032 99.5824C82.6558 100.988 83.2514 102.346 83.9185 103.632L80.4879 108.469C79.8208 109.421 79.9161 110.708 80.75 111.542L87.5635 118.355C88.4211 119.213 89.7791 119.284 90.732 118.522L95.3538 114.853C96.6641 115.496 97.9982 116.044 99.4038 116.473L100.381 122.358C100.471 122.917 100.759 123.426 101.191 123.793C101.623 124.16 102.172 124.36 102.739 124.359H104.836V129.624H24.1929C22.8826 129.624 21.8105 130.696 21.8105 132.006V147.754C21.8168 150.266 22.8178 152.674 24.5946 154.451C26.3715 156.228 28.7795 157.229 31.2923 157.235H100.095C105.336 157.235 109.6 152.971 109.6 147.754V124.359H112.388C113.603 124.359 114.627 123.454 114.77 122.239L115.437 116.354C116.822 115.899 118.169 115.334 119.463 114.663L124.323 118.117C125.276 118.784 126.563 118.665 127.396 117.855L134.186 111.018C135.044 110.16 135.115 108.802 134.353 107.873L130.684 103.251C131.351 101.917 131.899 100.559 132.328 99.1774L138.188 98.1768C139.332 97.9862 140.19 96.9856 140.19 95.8421V86.1936C140.19 84.9786 139.284 83.9541 138.069 83.835ZM104.836 147.754C104.836 150.35 102.715 152.471 100.095 152.471H31.2923C28.6955 152.471 26.5753 150.35 26.5753 147.754V134.389H104.836V147.754ZM135.425 93.8171L130.041 94.7224C129.088 94.8891 128.349 95.58 128.111 96.533C127.635 98.5341 126.848 100.464 125.8 102.298C125.3 103.132 125.371 104.204 125.991 104.967L129.302 109.159L125.443 113.066L120.964 109.874C120.582 109.607 120.13 109.458 119.665 109.446C119.199 109.433 118.739 109.557 118.343 109.803C116.604 110.875 114.698 111.685 112.673 112.185C111.697 112.423 110.982 113.257 110.863 114.234L110.267 119.594H104.74L103.835 114.186C103.76 113.727 103.551 113.3 103.232 112.961C102.914 112.621 102.502 112.384 102.048 112.28C100.047 111.78 98.1173 110.994 96.3306 109.946C95.9157 109.7 95.4358 109.586 94.9547 109.62C94.4737 109.654 94.0146 109.834 93.6385 110.136L89.4217 113.472L85.5385 109.588L88.6832 105.181C89.1906 104.464 89.2788 103.404 88.7785 102.513C87.7064 100.774 86.8726 98.8439 86.3485 96.795C86.2334 96.3285 85.9772 95.9089 85.6148 95.5934C85.2523 95.2779 84.8014 95.0818 84.3235 95.0321L78.987 94.4127V88.9333L84.3711 88.028C85.3241 87.8612 86.0864 87.1465 86.3008 86.2174C86.7773 84.1924 87.5635 82.2627 88.6356 80.4997C89.1359 79.6421 89.0882 78.57 88.4688 77.7839L85.1097 73.5671L88.9929 69.6839L93.4479 72.8524C93.8275 73.1229 94.2781 73.2761 94.7439 73.293C95.2097 73.31 95.6703 73.1899 96.0685 72.9477C97.8076 71.8756 99.7373 71.0656 101.786 70.5415C102.739 70.3033 103.43 69.4933 103.549 68.5165L104.145 63.1562H109.672L110.577 68.5403C110.744 69.4933 111.435 70.2556 112.364 70.47C114.389 70.9465 116.318 71.7327 118.105 72.8047C118.963 73.305 120.035 73.2336 120.797 72.6141L124.99 69.255L128.873 73.1621L125.729 77.5933C125.229 78.3008 125.126 79.3348 125.633 80.2377C126.729 82.0244 127.539 83.9541 128.04 85.9315C128.278 86.8844 129.088 87.5991 130.088 87.7183L135.425 88.3139V93.8171Z" fill="#9ACC32"/>
</svg>
