<svg width="162" height="162" viewBox="0 0 162 162" fill="none" xmlns="http://www.w3.org/2000/svg">
<path d="M65.7011 18.4583H77.8106C78.4424 18.4583 79.0484 18.2073 79.4952 17.7605C79.9419 17.3138 80.1929 16.7078 80.1929 16.076C80.1929 15.4441 79.9419 14.8382 79.4952 14.3914C79.0484 13.9446 78.4424 13.6936 77.8106 13.6936H65.7011C65.0692 13.6936 64.4633 13.9446 64.0165 14.3914C63.5697 14.8382 63.3187 15.4441 63.3187 16.076C63.3187 16.7078 63.5697 17.3138 64.0165 17.7605C64.4633 18.2073 65.0692 18.4583 65.7011 18.4583ZM54.9019 146.715H76.5003C77.1321 146.715 77.7381 146.464 78.1849 146.017C78.6317 145.57 78.8826 144.964 78.8826 144.332C78.8826 143.7 78.6317 143.095 78.1849 142.648C77.7381 142.201 77.1321 141.95 76.5003 141.95H54.9019C54.27 141.95 53.6641 142.201 53.2173 142.648C52.7705 143.095 52.5195 143.7 52.5195 144.332C52.5195 144.964 52.7705 145.57 53.2173 146.017C53.6641 146.464 54.27 146.715 54.9019 146.715Z" fill="#9154E0"/>
<path d="M24.1929 123.01C24.8247 123.01 25.4307 122.759 25.8775 122.313C26.3243 121.866 26.5753 121.26 26.5753 120.628V27.397H104.824V39.6518C104.824 40.2837 105.075 40.8896 105.521 41.3364C105.968 41.7832 106.574 42.0342 107.206 42.0342C107.838 42.0342 108.444 41.7832 108.891 41.3364C109.337 40.8896 109.588 40.2837 109.588 39.6518L109.598 14.2464C109.598 9.02906 105.333 4.76465 100.099 4.76465H31.2923C26.3132 4.76465 21.8105 8.8623 21.8105 14.2536V120.628C21.8105 121.26 22.0615 121.866 22.5083 122.313C22.9551 122.759 23.5611 123.01 24.1929 123.01ZM100.095 9.52935C102.613 9.52935 104.826 11.5901 104.826 14.2536V22.6323H26.5753V14.2464C26.5753 11.6496 28.7051 9.52935 31.2995 9.52935H100.095Z" fill="#9154E0"/>
<path d="M80.4015 64.7904C80.8505 65.2349 81.4576 65.4828 82.0893 65.4796C82.721 65.4765 83.3256 65.2226 83.7702 64.7738L93.7284 54.725C94.17 54.2789 94.4176 53.6767 94.4176 53.049C94.4176 52.4214 94.17 51.8191 93.7284 51.373L83.7702 41.3243C83.321 40.8986 82.7238 40.6644 82.1049 40.6712C81.4861 40.6781 80.8942 40.9255 80.4546 41.3611C80.015 41.7967 79.7621 42.3863 79.7495 43.0051C79.737 43.6238 79.9657 44.2232 80.3872 44.6762L88.6802 53.0502L80.3849 61.4218C79.9404 61.8708 79.6925 62.4779 79.6957 63.1096C79.6988 63.7413 79.9527 64.3459 80.4015 64.7904ZM50.9961 41.3076C50.7742 41.087 50.5108 40.9123 50.2212 40.7937C49.9315 40.6751 49.6213 40.6149 49.3084 40.6164C48.9954 40.618 48.6858 40.6813 48.3974 40.8028C48.1089 40.9242 47.8473 41.1015 47.6275 41.3243L37.6716 51.373C37.2301 51.8191 36.9824 52.4214 36.9824 53.049C36.9824 53.6767 37.2301 54.2789 37.6716 54.725L47.6299 64.7738C47.8473 65.0074 48.1094 65.195 48.4007 65.3254C48.692 65.4558 49.0066 65.5264 49.3257 65.5328C49.6448 65.5393 49.9619 65.4816 50.2583 65.3632C50.5546 65.2447 50.8242 65.0679 51.0509 64.8433C51.2776 64.6186 51.4568 64.3507 51.578 64.0555C51.6992 63.7602 51.7598 63.4436 51.7563 63.1245C51.7527 62.8054 51.6851 62.4902 51.5574 62.1977C51.4297 61.9052 51.2445 61.6413 51.0128 61.4218L42.7199 53.0502L51.0128 44.6762C51.4572 44.2273 51.7051 43.6202 51.702 42.9885C51.6989 42.3567 51.445 41.7521 50.9961 41.3076ZM69.5404 34.5751L55.556 69.7624C55.4404 70.0532 55.3832 70.3639 55.3877 70.6768C55.3921 70.9897 55.4582 71.2987 55.5821 71.5861C55.706 71.8734 55.8853 72.1336 56.1097 72.3517C56.3341 72.5698 56.5993 72.7415 56.8901 72.8571C57.1809 72.9727 57.4916 73.0299 57.8045 73.0254C58.1174 73.0209 58.4264 72.9549 58.7137 72.831C59.0011 72.7071 59.2613 72.5278 59.4793 72.3034C59.6974 72.079 59.8692 71.8138 59.9848 71.523L73.9692 36.3356C74.2026 35.748 74.1931 35.0917 73.9427 34.5111C73.6923 33.9306 73.2215 33.4732 72.6339 33.2398C72.0463 33.0063 71.39 33.0158 70.8094 33.2662C70.2288 33.5167 69.7715 33.9875 69.538 34.5751H69.5404ZM107.217 78.7129C100.237 78.7129 94.567 84.3829 94.567 91.3632C94.567 98.4102 100.313 104.014 107.217 104.014C114.093 104.014 119.844 98.4197 119.844 91.3632C119.844 84.3829 114.174 78.7129 107.217 78.7129ZM109.6 98.8676V89.7909C109.6 88.4806 108.528 87.4085 107.217 87.4085C105.883 87.4085 104.835 88.4806 104.835 89.7909V98.8914C103.044 98.3178 101.517 97.1238 100.528 95.5244C99.5393 93.9249 99.1538 92.0251 99.441 90.1668C99.7283 88.3084 100.669 86.6136 102.095 85.3873C103.52 84.1611 105.337 83.4839 107.217 83.4776C111.553 83.4776 115.079 87.0273 115.079 91.3632C115.079 94.8891 112.768 97.867 109.6 98.8676Z" fill="#9154E0"/>
<path d="M138.069 83.8349L132.209 83.1679C131.756 81.7861 131.184 80.4281 130.494 79.1178L133.924 74.2579C134.615 73.3287 134.496 72.0184 133.686 71.2084L126.848 64.3949C126.437 63.9774 125.886 63.727 125.301 63.6918C124.716 63.6566 124.138 63.8392 123.68 64.2043L119.082 67.897C117.772 67.2299 116.414 66.682 115.008 66.2531L114.031 60.3687C113.936 59.8135 113.646 59.3101 113.214 58.9481C112.783 58.5861 112.236 58.3888 111.673 58.3914H102.024C100.809 58.3914 99.785 59.2967 99.642 60.5117L98.9988 66.3961C97.5932 66.8487 96.2591 67.4205 94.9726 68.0876L90.0888 64.6331C89.6327 64.3061 89.0748 64.1528 88.5157 64.2009C87.9565 64.2489 87.433 64.4952 87.0394 64.8952L80.2258 71.7087C79.3682 72.5664 79.2967 73.9243 80.0591 74.8773L83.7279 79.499C83.0608 80.8093 82.5129 82.1673 82.0841 83.5729L76.2235 84.5496C75.08 84.764 74.2223 85.7408 74.2223 86.9081V96.5567C74.2223 97.7717 75.1514 98.7723 76.3426 98.9152L82.2032 99.5823C82.6558 100.988 83.2514 102.346 83.9185 103.632L80.4879 108.468C79.8208 109.421 79.9161 110.708 80.75 111.542L87.5635 118.355C88.4211 119.213 89.7791 119.284 90.732 118.522L95.3538 114.853C96.6641 115.496 97.9982 116.044 99.4038 116.473L100.381 122.358C100.471 122.917 100.759 123.426 101.191 123.793C101.623 124.16 102.172 124.36 102.739 124.359H104.836V129.624H24.1929C22.8826 129.624 21.8105 130.696 21.8105 132.006V147.753C21.8168 150.266 22.8178 152.674 24.5946 154.451C26.3715 156.228 28.7795 157.229 31.2923 157.235H100.095C105.336 157.235 109.6 152.971 109.6 147.753V124.359H112.388C113.603 124.359 114.627 123.453 114.77 122.238L115.437 116.354C116.822 115.899 118.169 115.334 119.463 114.663L124.323 118.117C125.276 118.784 126.563 118.665 127.396 117.855L134.186 111.018C135.044 110.16 135.115 108.802 134.353 107.873L130.684 103.251C131.351 101.917 131.899 100.559 132.328 99.1773L138.188 98.1767C139.332 97.9861 140.19 96.9855 140.19 95.842V86.1934C140.19 84.9784 139.284 83.954 138.069 83.8349ZM104.836 147.753C104.836 150.35 102.715 152.47 100.095 152.47H31.2923C28.6955 152.47 26.5753 150.35 26.5753 147.753V134.388H104.836V147.753ZM135.425 93.817L130.041 94.7223C129.088 94.889 128.349 95.5799 128.111 96.5328C127.635 98.534 126.848 100.464 125.8 102.298C125.3 103.132 125.371 104.204 125.991 104.966L129.302 109.159L125.443 113.066L120.964 109.874C120.582 109.607 120.13 109.458 119.665 109.445C119.199 109.433 118.739 109.557 118.343 109.803C116.604 110.875 114.698 111.685 112.673 112.185C111.697 112.423 110.982 113.257 110.863 114.234L110.267 119.594H104.74L103.835 114.186C103.76 113.727 103.551 113.3 103.232 112.961C102.914 112.621 102.502 112.384 102.048 112.28C100.047 111.78 98.1173 110.994 96.3306 109.945C95.9157 109.7 95.4358 109.586 94.9547 109.62C94.4737 109.654 94.0146 109.834 93.6385 110.136L89.4217 113.471L85.5385 109.588L88.6832 105.181C89.1906 104.464 89.2788 103.404 88.7785 102.513C87.7064 100.773 86.8726 98.8437 86.3485 96.7949C86.2334 96.3284 85.9772 95.9087 85.6148 95.5932C85.2523 95.2777 84.8014 95.0817 84.3235 95.032L78.987 94.4126V88.9331L84.3711 88.0279C85.3241 87.8611 86.0864 87.1464 86.3008 86.2173C86.7773 84.1923 87.5635 82.2626 88.6356 80.4996C89.1359 79.642 89.0882 78.5699 88.4688 77.7837L85.1097 73.567L88.9929 69.6837L93.4479 72.8523C93.8275 73.1228 94.2781 73.276 94.7439 73.2929C95.2097 73.3099 95.6703 73.1898 96.0685 72.9476C97.8076 71.8755 99.7373 71.0655 101.786 70.5414C102.739 70.3031 103.43 69.4931 103.549 68.5164L104.145 63.1561H109.672L110.577 68.5402C110.744 69.4931 111.435 70.2555 112.364 70.4699C114.389 70.9464 116.318 71.7326 118.105 72.8046C118.963 73.3049 120.035 73.2334 120.797 72.614L124.99 69.2549L128.873 73.162L125.729 77.5931C125.229 78.3007 125.126 79.3346 125.633 80.2376C126.729 82.0243 127.539 83.954 128.04 85.9314C128.278 86.8843 129.088 87.599 130.088 87.7181L135.425 88.3137V93.817Z" fill="#9154E0"/>
</svg>
