<svg width="162" height="162" viewBox="0 0 162 162" fill="none" xmlns="http://www.w3.org/2000/svg">
<path d="M72.9921 76.7931C77.2006 76.7931 80.6248 73.3689 80.6248 69.1601C80.6248 64.9513 77.2006 61.5274 72.9921 61.5274C68.7833 61.5274 65.3591 64.9513 65.3591 69.1601C65.3591 73.3689 68.7833 76.7931 72.9921 76.7931ZM72.9921 66.5899C74.4093 66.5899 75.5623 67.7429 75.5623 69.1601C75.5623 70.5773 74.4093 71.7306 72.9921 71.7306C71.5749 71.7306 70.4216 70.5773 70.4216 69.1601C70.4216 67.7429 71.5749 66.5899 72.9921 66.5899ZM72.9921 103.131C77.2006 103.131 80.6248 99.7072 80.6248 95.4984C80.6248 91.2895 77.2006 87.8654 72.9921 87.8654C68.7833 87.8654 65.3591 91.2895 65.3591 95.4984C65.3591 99.7072 68.7833 103.131 72.9921 103.131ZM72.9921 92.9279C74.4093 92.9279 75.5623 94.0812 75.5623 95.4984C75.5623 96.9156 74.4093 98.0685 72.9921 98.0685C71.5749 98.0685 70.4216 96.9156 70.4216 95.4984C70.4216 94.0812 71.5749 92.9279 72.9921 92.9279ZM72.9921 114.949C68.7833 114.949 65.3591 118.373 65.3591 122.582C65.3591 126.791 68.7833 130.215 72.9921 130.215C77.2006 130.215 80.6248 126.791 80.6248 122.582C80.6248 118.373 77.2006 114.949 72.9921 114.949ZM72.9921 125.152C71.5749 125.152 70.4216 123.999 70.4216 122.582C70.4216 121.165 71.5746 120.012 72.9921 120.012C74.4093 120.012 75.5623 121.165 75.5623 122.582C75.5623 123.999 74.4093 125.152 72.9921 125.152ZM157.847 119.935L154.367 118.596C153.826 116.747 153.086 114.961 152.16 113.272L153.674 109.862C153.882 109.395 153.943 108.875 153.849 108.372C153.756 107.869 153.512 107.407 153.15 107.045L147.738 101.633C147.377 101.271 146.914 101.027 146.411 100.934C145.908 100.84 145.388 100.902 144.921 101.11L143.397 101.786V45.5758C143.397 35.2597 121.288 29.8624 99.4484 29.8624C78.9538 29.8624 58.2229 34.6158 55.747 43.7261C54.0063 42.8563 52.1991 42.1266 50.3425 41.5438C55.6739 37.9643 59.1905 31.8811 59.1905 24.9907C59.1905 14.0038 50.252 5.06567 39.2654 5.06567C28.2788 5.06567 19.3404 14.0038 19.3404 24.9907C19.3404 31.8836 22.8594 37.9688 28.1944 41.5476C23.1183 43.141 18.4474 45.8146 14.5028 49.3847C7.75577 55.4863 3.50929 63.8071 2.5452 72.8146C2.50732 73.1677 2.54419 73.5248 2.65341 73.8627C2.76263 74.2007 2.94175 74.5118 3.17913 74.776C3.41651 75.0401 3.70682 75.2513 4.0312 75.3959C4.35558 75.5405 4.70675 75.6152 5.06189 75.6151H55.4996V125.946C55.4996 136.262 77.6085 141.659 99.4481 141.659C100.97 141.659 102.491 141.632 104.001 141.58L103.643 142.386C103.435 142.854 103.374 143.373 103.468 143.876C103.561 144.379 103.805 144.842 104.166 145.204L109.578 150.616C109.94 150.978 110.403 151.221 110.906 151.315C111.409 151.408 111.928 151.347 112.396 151.139L115.807 149.624C117.496 150.55 119.28 151.29 121.129 151.831L122.469 155.311C122.653 155.789 122.977 156.199 123.398 156.489C123.82 156.778 124.32 156.933 124.831 156.933H132.485C132.997 156.933 133.496 156.778 133.918 156.489C134.339 156.199 134.663 155.789 134.847 155.311L136.187 151.832C138.036 151.291 139.821 150.551 141.511 149.625L144.92 151.139C145.388 151.347 145.907 151.408 146.41 151.314C146.913 151.221 147.376 150.977 147.737 150.616L153.15 145.204C153.511 144.842 153.755 144.379 153.848 143.876C153.942 143.373 153.881 142.854 153.673 142.386L152.158 138.975C153.084 137.286 153.824 135.502 154.365 133.653L157.845 132.314C158.323 132.13 158.733 131.806 159.023 131.384C159.312 130.962 159.467 130.463 159.467 129.951V122.297C159.468 121.786 159.313 121.286 159.024 120.864C158.735 120.443 158.324 120.119 157.847 119.935ZM38.6585 44.9291C38.8588 44.9253 39.0578 44.9158 39.2591 44.9158H39.2657L39.2739 44.9155C39.4733 44.9155 39.672 44.9186 39.8707 44.9224L44.8237 60.4963L39.2654 66.7722L33.7071 60.4963L38.6585 44.9291ZM49.5666 62.7772C49.8572 62.4493 50.0576 62.0515 50.1483 61.6228C50.239 61.1941 50.2168 60.7493 50.084 60.3317L45.367 45.5002C48.9416 46.1926 52.3699 47.4967 55.5008 49.3553V70.5529H42.6801L49.5666 62.7772ZM60.563 53.316C68.3406 58.5741 83.9613 61.2895 99.449 61.2895C114.937 61.2895 130.557 58.5741 138.335 53.316V72.3659C138.335 74.0312 135.62 76.8399 127.968 79.2753C120.387 81.6882 110.258 83.0171 99.449 83.0171C88.6397 83.0171 78.5115 81.6882 70.9304 79.2753C63.2781 76.8399 60.563 74.0312 60.563 72.3659V53.316ZM70.9304 38.6671C78.5115 36.2542 88.6397 34.9252 99.449 34.9252C110.258 34.9252 120.387 36.2542 127.968 38.6671C135.62 41.1024 138.335 43.9109 138.335 45.5761C138.335 47.2414 135.62 50.0501 127.968 52.4858C120.387 54.8984 110.258 56.2273 99.449 56.2273C88.6397 56.2273 78.5115 54.8984 70.9304 52.4858C68.1324 51.5951 65.997 50.6548 64.4105 49.7384C63.3574 48.7583 62.2483 47.84 61.0889 46.9882C60.7282 46.4636 60.563 45.9852 60.563 45.5761C60.563 43.9109 63.2781 41.1024 70.9304 38.6671ZM24.4032 24.991C24.4032 16.7961 31.0705 10.1285 39.2657 10.1285C47.461 10.1285 54.1283 16.7958 54.1283 24.991C54.1283 33.1818 47.4673 39.8466 39.2777 39.8533H39.2534C31.0638 39.8466 24.4032 33.1818 24.4032 24.991ZM33.1635 45.503L28.4472 60.3317C28.3143 60.7493 28.2922 61.1941 28.3829 61.6228C28.4735 62.0515 28.6739 62.4492 28.9645 62.7772L35.8514 70.5529H8.00384C10.5212 57.7612 20.5588 47.9352 33.1635 45.503ZM60.563 80.1062C68.3406 85.3642 83.9613 88.0796 99.449 88.0796C114.937 88.0796 130.557 85.3642 138.335 80.1062V99.156C138.335 99.7502 138.013 100.343 137.585 100.868C137.124 100.705 136.658 100.555 136.188 100.417L134.849 96.9364C134.665 96.4591 134.341 96.0486 133.919 95.759C133.497 95.4695 132.998 95.3145 132.486 95.3145H124.832C124.321 95.3146 123.821 95.4696 123.4 95.7591C122.978 96.0486 122.654 96.4591 122.47 96.9364L121.13 100.417C119.281 100.958 117.497 101.698 115.808 102.624L112.397 101.109C111.93 100.901 111.41 100.84 110.907 100.933C110.404 101.027 109.941 101.27 109.58 101.632L104.168 107.044C103.823 107.39 103.585 107.829 103.485 108.307C103.384 108.786 103.424 109.283 103.6 109.739C102.224 109.783 100.837 109.807 99.4494 109.807C88.64 109.807 78.5118 108.478 70.9307 106.065C63.2784 103.63 60.5633 100.821 60.5633 99.156V80.1062H60.563ZM70.9304 132.855C63.2781 130.42 60.563 127.611 60.563 125.946V106.896C68.3406 112.154 83.9613 114.869 99.449 114.869C101.105 114.869 102.759 114.835 104.399 114.774C103.819 116.009 103.335 117.286 102.952 118.595L99.4718 119.935C98.9944 120.119 98.5838 120.443 98.2943 120.865C98.0048 121.286 97.8498 121.786 97.8499 122.297V129.951C97.8499 130.463 98.0049 130.962 98.2944 131.384C98.584 131.806 98.9944 132.13 99.4718 132.314L102.951 133.653C103.236 134.626 103.577 135.581 103.971 136.515C102.472 136.568 100.961 136.597 99.4494 136.597C88.6393 136.597 78.5115 135.268 70.9304 132.855ZM154.406 128.213L151.342 129.393C150.958 129.541 150.616 129.78 150.346 130.089C150.075 130.399 149.884 130.769 149.789 131.169C149.257 133.404 148.372 135.539 147.166 137.494C146.95 137.844 146.823 138.242 146.796 138.652C146.768 139.062 146.841 139.473 147.008 139.849L148.342 142.853L145.387 145.807L142.385 144.474C142.009 144.307 141.598 144.234 141.188 144.262C140.778 144.289 140.38 144.416 140.03 144.632C138.074 145.838 135.938 146.723 133.703 147.255C133.303 147.35 132.932 147.541 132.623 147.812C132.313 148.082 132.075 148.424 131.927 148.808L130.748 151.871H126.569L125.39 148.807C125.242 148.423 125.003 148.081 124.694 147.811C124.384 147.54 124.014 147.349 123.614 147.254C121.379 146.722 119.243 145.837 117.288 144.631C116.938 144.416 116.54 144.289 116.13 144.261C115.72 144.234 115.309 144.306 114.933 144.473L111.929 145.807L108.975 142.853L110.308 139.851C110.475 139.475 110.548 139.064 110.521 138.654C110.493 138.244 110.366 137.846 110.151 137.496C108.945 135.54 108.059 133.404 107.527 131.169C107.432 130.769 107.241 130.398 106.97 130.089C106.7 129.779 106.358 129.54 105.974 129.393L102.911 128.214V124.035L105.975 122.856C106.359 122.708 106.701 122.469 106.971 122.16C107.242 121.85 107.433 121.479 107.528 121.079C108.06 118.845 108.945 116.709 110.151 114.753C110.366 114.403 110.493 114.006 110.521 113.596C110.549 113.185 110.476 112.775 110.309 112.399L108.975 109.396L111.93 106.441L114.933 107.775C115.309 107.942 115.72 108.015 116.13 107.987C116.54 107.96 116.938 107.833 117.288 107.617C119.243 106.412 121.379 105.527 123.614 104.995C124.014 104.9 124.384 104.708 124.694 104.438C125.003 104.167 125.242 103.825 125.39 103.442L126.569 100.377H130.748L131.927 103.442C132.075 103.825 132.314 104.167 132.623 104.438C132.933 104.709 133.304 104.9 133.703 104.995C135.938 105.527 138.074 106.412 140.029 107.617C140.379 107.833 140.777 107.96 141.187 107.988C141.597 108.015 142.008 107.942 142.384 107.775L145.388 106.441L148.342 109.396L147.009 112.398C146.842 112.774 146.769 113.185 146.796 113.595C146.824 114.005 146.951 114.402 147.167 114.753C148.372 116.709 149.258 118.845 149.79 121.08C149.885 121.48 150.076 121.851 150.347 122.16C150.618 122.47 150.959 122.708 151.343 122.856L154.406 124.035V128.213H154.406ZM128.659 110.244C119.903 110.244 112.779 117.368 112.779 126.124C112.779 134.88 119.903 142.004 128.659 142.004C137.415 142.004 144.539 134.881 144.539 126.124C144.539 117.368 137.415 110.244 128.659 110.244ZM128.659 136.942C122.694 136.942 117.842 132.089 117.842 126.124C117.842 120.159 122.694 115.307 128.659 115.307C134.624 115.307 139.476 120.16 139.476 126.124C139.476 132.089 134.624 136.942 128.659 136.942Z" fill="#9ACC32"/>
</svg>
