<svg width="162" height="162" viewBox="0 0 162 162" fill="none" xmlns="http://www.w3.org/2000/svg">
<path d="M72.9926 76.7931C77.2011 76.7931 80.6253 73.3689 80.6253 69.1601C80.6253 64.9513 77.2011 61.5274 72.9926 61.5274C68.7837 61.5274 65.3596 64.9513 65.3596 69.1601C65.3596 73.3689 68.7837 76.7931 72.9926 76.7931ZM72.9926 66.5899C74.4098 66.5899 75.5628 67.7429 75.5628 69.1601C75.5628 70.5773 74.4098 71.7306 72.9926 71.7306C71.5754 71.7306 70.4221 70.5773 70.4221 69.1601C70.4221 67.7429 71.5754 66.5899 72.9926 66.5899ZM72.9926 103.131C77.2011 103.131 80.6253 99.7072 80.6253 95.4984C80.6253 91.2895 77.2011 87.8654 72.9926 87.8654C68.7837 87.8654 65.3596 91.2895 65.3596 95.4984C65.3596 99.7072 68.7837 103.131 72.9926 103.131ZM72.9926 92.9279C74.4098 92.9279 75.5628 94.0812 75.5628 95.4984C75.5628 96.9156 74.4098 98.0685 72.9926 98.0685C71.5754 98.0685 70.4221 96.9156 70.4221 95.4984C70.4221 94.0812 71.5754 92.9279 72.9926 92.9279ZM72.9926 114.949C68.7837 114.949 65.3596 118.373 65.3596 122.582C65.3596 126.791 68.7837 130.215 72.9926 130.215C77.2011 130.215 80.6253 126.791 80.6253 122.582C80.6253 118.373 77.2011 114.949 72.9926 114.949ZM72.9926 125.152C71.5754 125.152 70.4221 123.999 70.4221 122.582C70.4221 121.165 71.5751 120.012 72.9926 120.012C74.4098 120.012 75.5628 121.165 75.5628 122.582C75.5628 123.999 74.4098 125.152 72.9926 125.152ZM157.847 119.935L154.368 118.596C153.827 116.747 153.087 114.961 152.16 113.272L153.675 109.862C153.882 109.395 153.943 108.875 153.85 108.372C153.756 107.869 153.513 107.407 153.151 107.045L147.739 101.633C147.377 101.271 146.914 101.027 146.411 100.934C145.908 100.84 145.389 100.902 144.922 101.11L143.397 101.786V45.5758C143.397 35.2597 121.289 29.8624 99.4489 29.8624C78.9543 29.8624 58.2234 34.6158 55.7475 43.7261C54.0068 42.8563 52.1996 42.1266 50.343 41.5438C55.6744 37.9643 59.1909 31.8811 59.1909 24.9907C59.1909 14.0038 50.2525 5.06567 39.2659 5.06567C28.2793 5.06567 19.3408 14.0038 19.3408 24.9907C19.3408 31.8836 22.8599 37.9688 28.1948 41.5476C23.1188 43.141 18.4479 45.8146 14.5033 49.3847C7.75626 55.4863 3.50977 63.8071 2.54568 72.8146C2.50781 73.1677 2.54468 73.5248 2.6539 73.8627C2.76312 74.2007 2.94224 74.5118 3.17962 74.776C3.41699 75.0401 3.70731 75.2513 4.03169 75.3959C4.35607 75.5405 4.70724 75.6152 5.06238 75.6151H55.5001V125.946C55.5001 136.262 77.609 141.659 99.4486 141.659C100.97 141.659 102.491 141.632 104.001 141.58L103.643 142.386C103.436 142.854 103.375 143.373 103.468 143.876C103.562 144.379 103.805 144.842 104.167 145.204L109.579 150.616C109.941 150.978 110.403 151.221 110.906 151.315C111.409 151.408 111.929 151.347 112.396 151.139L115.807 149.624C117.496 150.55 119.281 151.29 121.13 151.831L122.469 155.311C122.653 155.789 122.977 156.199 123.399 156.489C123.821 156.778 124.32 156.933 124.832 156.933H132.485C132.997 156.933 133.497 156.778 133.918 156.489C134.34 156.199 134.664 155.789 134.848 155.311L136.187 151.832C138.036 151.291 139.822 150.551 141.511 149.625L144.921 151.139C145.388 151.347 145.907 151.408 146.41 151.314C146.913 151.221 147.376 150.977 147.738 150.616L153.15 145.204C153.512 144.842 153.755 144.379 153.849 143.876C153.942 143.373 153.881 142.854 153.674 142.386L152.158 138.975C153.085 137.286 153.824 135.502 154.365 133.653L157.846 132.314C158.323 132.13 158.734 131.806 159.023 131.384C159.313 130.962 159.468 130.463 159.468 129.951V122.297C159.468 121.786 159.314 121.286 159.024 120.864C158.735 120.443 158.324 120.119 157.847 119.935ZM38.659 44.9291C38.8593 44.9253 39.0583 44.9158 39.2596 44.9158H39.2662L39.2744 44.9155C39.4738 44.9155 39.6725 44.9186 39.8712 44.9224L44.8242 60.4963L39.2659 66.7722L33.7076 60.4963L38.659 44.9291ZM49.5671 62.7772C49.8577 62.4493 50.0581 62.0515 50.1488 61.6228C50.2395 61.1941 50.2173 60.7493 50.0845 60.3317L45.3675 45.5002C48.9421 46.1926 52.3704 47.4967 55.5013 49.3553V70.5529H42.6806L49.5671 62.7772ZM60.5635 53.316C68.3411 58.5741 83.9618 61.2895 99.4495 61.2895C114.937 61.2895 130.558 58.5741 138.336 53.316V72.3659C138.336 74.0312 135.62 76.8399 127.968 79.2753C120.387 81.6882 110.259 83.0171 99.4495 83.0171C88.6401 83.0171 78.512 81.6882 70.9309 79.2753C63.2786 76.8399 60.5635 74.0312 60.5635 72.3659V53.316ZM70.9309 38.6671C78.512 36.2542 88.6401 34.9252 99.4495 34.9252C110.259 34.9252 120.387 36.2542 127.968 38.6671C135.62 41.1024 138.336 43.9109 138.336 45.5761C138.336 47.2414 135.62 50.0501 127.968 52.4858C120.387 54.8984 110.259 56.2273 99.4495 56.2273C88.6401 56.2273 78.512 54.8984 70.9309 52.4858C68.1329 51.5951 65.9975 50.6548 64.411 49.7384C63.3579 48.7583 62.2488 47.84 61.0894 46.9882C60.7287 46.4636 60.5635 45.9852 60.5635 45.5761C60.5635 43.9109 63.2786 41.1024 70.9309 38.6671ZM24.4037 24.991C24.4037 16.7961 31.071 10.1285 39.2662 10.1285C47.4614 10.1285 54.1288 16.7958 54.1288 24.991C54.1288 33.1818 47.4678 39.8466 39.2782 39.8533H39.2539C31.0643 39.8466 24.4037 33.1818 24.4037 24.991ZM33.164 45.503L28.4476 60.3317C28.3148 60.7493 28.2927 61.1941 28.3833 61.6228C28.474 62.0515 28.6744 62.4492 28.965 62.7772L35.8519 70.5529H8.00432C10.5217 57.7612 20.5593 47.9352 33.164 45.503ZM60.5635 80.1062C68.3411 85.3642 83.9618 88.0796 99.4495 88.0796C114.937 88.0796 130.558 85.3642 138.336 80.1062V99.156C138.336 99.7502 138.013 100.343 137.586 100.868C137.124 100.705 136.658 100.555 136.189 100.417L134.849 96.9364C134.665 96.4591 134.341 96.0486 133.92 95.759C133.498 95.4695 132.998 95.3145 132.487 95.3145H124.833C124.321 95.3146 123.822 95.4696 123.4 95.7591C122.979 96.0486 122.654 96.4591 122.471 96.9364L121.131 100.417C119.282 100.958 117.498 101.698 115.809 102.624L112.398 101.109C111.93 100.901 111.411 100.84 110.908 100.933C110.405 101.027 109.942 101.27 109.58 101.632L104.168 107.044C103.823 107.39 103.586 107.829 103.485 108.307C103.385 108.786 103.425 109.283 103.601 109.739C102.224 109.783 100.838 109.807 99.4498 109.807C88.6405 109.807 78.5123 108.478 70.9312 106.065C63.2789 103.63 60.5638 100.821 60.5638 99.156V80.1062H60.5635ZM70.9309 132.855C63.2786 130.42 60.5635 127.611 60.5635 125.946V106.896C68.3411 112.154 83.9618 114.869 99.4495 114.869C101.106 114.869 102.759 114.835 104.399 114.774C103.82 116.009 103.336 117.286 102.952 118.595L99.4723 119.935C98.9949 120.119 98.5843 120.443 98.2948 120.865C98.0053 121.286 97.8503 121.786 97.8504 122.297V129.951C97.8504 130.463 98.0054 130.962 98.2949 131.384C98.5844 131.806 98.9949 132.13 99.4723 132.314L102.952 133.653C103.237 134.626 103.577 135.581 103.971 136.515C102.472 136.568 100.962 136.597 99.4498 136.597C88.6398 136.597 78.512 135.268 70.9309 132.855ZM154.407 128.213L151.342 129.393C150.959 129.541 150.617 129.78 150.346 130.089C150.076 130.399 149.884 130.769 149.789 131.169C149.257 133.404 148.372 135.539 147.166 137.494C146.951 137.844 146.824 138.242 146.796 138.652C146.769 139.062 146.841 139.473 147.008 139.849L148.342 142.853L145.388 145.807L142.386 144.474C142.01 144.307 141.599 144.234 141.189 144.262C140.778 144.289 140.381 144.416 140.031 144.632C138.075 145.838 135.939 146.723 133.704 147.255C133.304 147.35 132.933 147.541 132.623 147.812C132.314 148.082 132.075 148.424 131.927 148.808L130.748 151.871H126.57L125.39 148.807C125.243 148.423 125.004 148.081 124.694 147.811C124.385 147.54 124.014 147.349 123.614 147.254C121.379 146.722 119.244 145.837 117.289 144.631C116.938 144.416 116.541 144.289 116.131 144.261C115.72 144.234 115.31 144.306 114.934 144.473L111.93 145.807L108.976 142.853L110.309 139.851C110.476 139.475 110.549 139.064 110.521 138.654C110.494 138.244 110.367 137.846 110.151 137.496C108.945 135.54 108.06 133.404 107.528 131.169C107.433 130.769 107.241 130.398 106.971 130.089C106.7 129.779 106.358 129.54 105.975 129.393L102.912 128.214V124.035L105.975 122.856C106.359 122.708 106.701 122.469 106.972 122.16C107.242 121.85 107.433 121.479 107.529 121.079C108.06 118.845 108.946 116.709 110.151 114.753C110.367 114.403 110.494 114.006 110.521 113.596C110.549 113.185 110.476 112.775 110.31 112.399L108.976 109.396L111.93 106.441L114.934 107.775C115.31 107.942 115.72 108.015 116.131 107.987C116.541 107.96 116.938 107.833 117.288 107.617C119.244 106.412 121.379 105.527 123.614 104.995C124.014 104.9 124.385 104.708 124.694 104.438C125.004 104.167 125.243 103.825 125.39 103.442L126.57 100.377H130.748L131.928 103.442C132.075 103.825 132.314 104.167 132.624 104.438C132.933 104.709 133.304 104.9 133.704 104.995C135.939 105.527 138.074 106.412 140.03 107.617C140.38 107.833 140.777 107.96 141.188 107.988C141.598 108.015 142.009 107.942 142.384 107.775L145.388 106.441L148.343 109.396L147.009 112.398C146.842 112.774 146.769 113.185 146.797 113.595C146.824 114.005 146.951 114.402 147.167 114.753C148.373 116.709 149.258 118.845 149.79 121.08C149.886 121.48 150.077 121.851 150.347 122.16C150.618 122.47 150.96 122.708 151.344 122.856L154.406 124.035V128.213H154.407ZM128.66 110.244C119.904 110.244 112.78 117.368 112.78 126.124C112.78 134.88 119.903 142.004 128.66 142.004C137.416 142.004 144.539 134.881 144.539 126.124C144.539 117.368 137.416 110.244 128.66 110.244ZM128.66 136.942C122.695 136.942 117.842 132.089 117.842 126.124C117.842 120.159 122.695 115.307 128.66 115.307C134.624 115.307 139.477 120.16 139.477 126.124C139.477 132.089 134.624 136.942 128.66 136.942Z" fill="#9154E0"/>
</svg>
