<svg width="162" height="162" viewBox="0 0 162 162" fill="none" xmlns="http://www.w3.org/2000/svg">
<path fill-rule="evenodd" clip-rule="evenodd" d="M83.7622 112.685H78.2378C76.2571 112.685 74.6402 111.128 74.4757 109.065L73.8872 101.769C70.8725 101.041 67.99 99.8463 65.3442 98.2283L59.766 102.974C59.0256 103.604 58.1017 103.952 57.1588 103.952C56.1684 103.952 55.2414 103.569 54.5453 102.873L50.6377 98.9655C49.2391 97.5638 49.1948 95.3205 50.5364 93.7448L55.2857 88.1666C53.6653 85.5216 52.4695 82.6389 51.7419 79.6236L44.4424 79.0351C42.3826 78.8705 40.8259 77.2537 40.8259 75.273V69.7485C40.8259 67.7678 42.3795 66.151 44.4424 65.9865L51.7419 65.398C52.4696 62.3763 53.6593 59.5128 55.2825 56.8518L50.5364 51.2767C49.1948 49.701 49.2391 47.4577 50.6408 46.056L54.5453 42.1516C55.2414 41.4555 56.1684 41.0695 57.1588 41.0695C58.1017 41.0695 59.0256 41.4175 59.766 42.0472L65.3411 46.7933C68.002 45.1701 70.8655 43.9804 73.8872 43.2527L74.4725 35.9532C74.6402 33.8902 76.2571 32.3367 78.2378 32.3367H83.7622C85.7398 32.3367 87.3598 33.8902 87.5243 35.9532L88.1128 43.2527C91.1345 43.9836 93.998 45.1701 96.6558 46.7964L102.234 42.0472C102.974 41.4175 103.898 41.0726 104.841 41.0726C105.828 41.0726 106.759 41.4555 107.455 42.1516L111.359 46.056C112.761 47.4577 112.805 49.701 111.464 51.2767L106.714 56.855C108.334 59.5014 109.53 62.385 110.258 65.4011L117.558 65.9865C119.617 66.151 121.174 67.771 121.174 69.7485V75.2762C121.174 77.2537 119.617 78.8737 117.558 79.0382L110.258 79.6236C109.531 82.6401 108.335 85.5239 106.714 88.1697L111.464 93.748C112.805 95.3237 112.761 97.567 111.359 98.9687L107.455 102.873C107.112 103.217 106.705 103.489 106.256 103.674C105.807 103.859 105.327 103.954 104.841 103.952C103.898 103.952 102.974 103.607 102.234 102.978L96.6558 98.2283C94.0099 99.8484 91.1261 101.043 88.1096 101.769L87.5243 109.068C87.3598 111.128 85.7429 112.685 83.7622 112.685ZM78.2916 108.888H83.7084C83.7211 108.863 83.7369 108.822 83.7432 108.765L84.4425 100.06C84.5121 99.2091 85.1386 98.5099 85.9771 98.3485C89.4892 97.6777 92.7766 96.314 95.7509 94.2985C96.0938 94.0646 96.5042 93.9499 96.9187 93.9722C97.3332 93.9945 97.7289 94.1525 98.0448 94.4219L104.696 100.086C104.74 100.124 104.781 100.143 104.81 100.149L108.638 96.3203C108.626 96.2779 108.605 96.2389 108.575 96.2064L102.914 89.5556C102.645 89.2391 102.487 88.8432 102.464 88.4283C102.441 88.0135 102.555 87.6026 102.788 87.2585C104.803 84.2906 106.167 81.0031 106.841 77.4878C106.919 77.0799 107.128 76.7088 107.438 76.4315C107.747 76.1543 108.139 75.9863 108.553 75.9533L117.254 75.254C117.314 75.2477 117.355 75.2319 117.38 75.2192V69.8023C117.342 69.7807 117.298 69.7688 117.254 69.7675L108.549 69.0683C107.698 68.9987 106.999 68.3722 106.838 67.5337C106.167 64.0216 104.803 60.7341 102.788 57.7599C102.555 57.4167 102.44 57.0065 102.463 56.5921C102.485 56.1778 102.642 55.7822 102.911 55.466L108.575 48.8151C108.613 48.7708 108.632 48.7297 108.638 48.7012L104.81 44.8695C104.781 44.879 104.74 44.898 104.696 44.936L98.0448 50.5965C97.7289 50.8656 97.3335 51.0237 96.9192 51.0466C96.5048 51.0694 96.0944 50.9558 95.7509 50.723C92.7798 48.7044 89.4892 47.3407 85.9771 46.6699C85.5691 46.592 85.198 46.3824 84.9207 46.0731C84.6435 45.7639 84.4755 45.3721 84.4425 44.9581L83.7432 36.2569C83.7369 36.1968 83.7211 36.1557 83.7084 36.1304H78.2916C78.2789 36.1557 78.2631 36.2 78.2568 36.2569L77.5575 44.9581C77.4911 45.8092 76.8614 46.5085 76.0229 46.6699C72.5224 47.3375 69.1959 48.7159 66.2491 50.7199C65.9062 50.9538 65.4958 51.0685 65.0813 51.0462C64.6668 51.0239 64.2711 50.8658 63.9552 50.5965L57.3043 44.936C57.26 44.898 57.2189 44.879 57.1904 44.8695L53.3619 48.7012C53.3682 48.7297 53.3872 48.7708 53.4252 48.8151L59.0857 55.4628C59.3555 55.779 59.514 56.175 59.5369 56.59C59.5598 57.005 59.4457 57.416 59.2123 57.7599C57.1968 60.731 55.833 64.0184 55.1623 67.5337C55.0834 67.9412 54.8735 68.3118 54.5644 68.5888C54.2554 68.8659 53.8642 69.0343 53.4505 69.0683L44.7462 69.7675C44.6892 69.7707 44.6481 69.7865 44.6228 69.8023V75.2192C44.6481 75.2319 44.6892 75.2477 44.7462 75.254L53.4505 75.9533C54.3016 76.0197 55.0009 76.6494 55.1623 77.4878C55.8362 81 57.1999 84.2874 59.2154 87.2585C59.4482 87.6026 59.5618 88.0135 59.5389 88.4283C59.5161 88.8432 59.358 89.2391 59.0889 89.5556L53.4252 96.2064C53.3872 96.2507 53.3682 96.2919 53.3619 96.3172L57.1904 100.149C57.2189 100.139 57.26 100.12 57.3043 100.082L63.9552 94.4219C64.2717 94.1525 64.6679 93.9945 65.0829 93.9722C65.4979 93.9499 65.9088 94.0646 66.2523 94.2985C69.2202 96.314 72.5108 97.6777 76.0229 98.3485C76.8614 98.5099 77.4911 99.2123 77.5575 100.06L78.2568 108.761C78.2631 108.822 78.2789 108.863 78.2916 108.888Z" fill="#9ACC32"/>
<path fill-rule="evenodd" clip-rule="evenodd" d="M81 93.3841C69.4891 93.3841 60.1267 84.0216 60.1267 72.5108C60.1267 60.9999 69.4891 51.6343 81 51.6343C92.5109 51.6343 101.876 60.9999 101.876 72.5108C101.876 84.0216 92.5109 93.3841 81 93.3841ZM81 55.4312C71.5837 55.4312 63.9204 63.0913 63.9204 72.5108C63.9204 81.927 71.5837 89.5904 81 89.5904C90.4194 89.5904 98.0796 81.927 98.0796 72.5108C98.0796 63.0913 90.4194 55.4312 81 55.4312Z" fill="#9ACC32"/>
<path fill-rule="evenodd" clip-rule="evenodd" d="M87.4895 92.245C87.2403 92.245 86.9936 92.1959 86.7635 92.1004C86.5333 92.005 86.3243 91.8651 86.1482 91.6888C85.9722 91.5125 85.8326 91.3032 85.7376 91.0728C85.6425 90.8425 85.5938 90.5957 85.5942 90.3466V74.4155C85.5942 73.3651 86.4422 72.5171 87.4895 72.5171C88.54 72.5171 89.3879 73.3651 89.3879 74.4155V90.3466C89.3879 91.3971 88.54 92.245 87.4895 92.245Z" fill="#9ACC32"/>
<path fill-rule="evenodd" clip-rule="evenodd" d="M87.4895 76.3108C83.9552 76.3108 81.0759 73.4346 81.0759 69.9004C81.0759 66.363 83.9552 63.4868 87.4895 63.4868C91.0269 63.4868 93.903 66.363 93.903 69.9004C93.903 73.4346 91.0269 76.3108 87.4895 76.3108ZM87.4895 67.2805C86.0467 67.2805 84.8728 68.4544 84.8728 69.9004C84.8728 71.3432 86.0467 72.5171 87.4895 72.5171C88.9355 72.5171 90.1093 71.3432 90.1093 69.9004C90.1093 68.4544 88.9355 67.2805 87.4895 67.2805ZM73.8714 91.9982C72.8209 91.9982 71.9729 91.1471 71.9729 90.0998V76.8328C71.9729 75.7855 72.8209 74.9344 73.8714 74.9344C74.9187 74.9344 75.7666 75.7855 75.7666 76.8328V90.0998C75.7666 91.1502 74.9187 91.9982 73.8714 91.9982Z" fill="#9ACC32"/>
<path fill-rule="evenodd" clip-rule="evenodd" d="M73.8714 78.7313C70.6852 78.7313 68.097 76.14 68.097 72.9569C68.097 69.7739 70.6852 67.1825 73.8714 67.1825C77.0544 67.1825 79.6426 69.7739 79.6426 72.9569C79.6426 76.14 77.0544 78.7313 73.8714 78.7313ZM73.8714 70.9794C72.7798 70.9794 71.8907 71.8653 71.8907 72.9569C71.8907 74.0485 72.7798 74.9344 73.8714 74.9344C74.9598 74.9344 75.8489 74.0485 75.8489 72.9569C75.8489 71.8653 74.9598 70.9794 73.8714 70.9794Z" fill="#9ACC32"/>
<path fill-rule="evenodd" clip-rule="evenodd" d="M153.985 120.908H8.01774C6.96727 120.908 6.1193 120.06 6.1193 119.013V27.5273C6.1193 25.6447 7.65071 24.1101 9.53649 24.1101H152.464C154.349 24.1101 155.881 25.6447 155.881 27.5273V119.013C155.881 120.06 155.033 120.908 153.985 120.908ZM9.91301 117.115H152.087V27.907H9.91301V117.115Z" fill="#9ACC32"/>
<path fill-rule="evenodd" clip-rule="evenodd" d="M151.578 137.89H10.4224C4.69547 137.89 0.0379715 133.229 0.0379715 127.502V119.013C0.0379715 117.966 0.88594 117.115 1.93325 117.115H160.067C161.114 117.115 161.965 117.966 161.965 119.013V127.502C161.965 133.229 157.305 137.89 151.578 137.89ZM3.83168 120.911V127.502C3.83168 131.138 6.79008 134.093 10.4224 134.093H151.578C155.213 134.093 158.168 131.138 158.168 127.502V120.911H3.83168Z" fill="#9ACC32"/>
<path fill-rule="evenodd" clip-rule="evenodd" d="M95.6971 128.992H66.3029C65.2556 128.992 64.4045 128.144 64.4045 127.094V119.013C64.4045 117.966 65.2556 117.115 66.3029 117.115H95.6971C96.7476 117.115 97.5955 117.966 97.5955 119.013V127.094C97.5955 128.144 96.7476 128.992 95.6971 128.992ZM68.2014 125.199H93.8018V120.911H68.2014V125.199ZM140.794 129.401H118.656C117.608 129.401 116.757 128.549 116.757 127.502C116.757 126.455 117.608 125.604 118.656 125.604H140.794C141.842 125.604 142.693 126.455 142.693 127.502C142.693 128.549 141.842 129.401 140.794 129.401ZM43.3445 129.401H21.2056C20.1583 129.401 19.3103 128.549 19.3103 127.502C19.3103 126.455 20.1583 125.604 21.2056 125.604H43.3445C44.3918 125.604 45.2429 126.455 45.2429 127.502C45.2429 128.549 44.3918 129.401 43.3445 129.401ZM20.5696 73.1625C19.5223 73.1625 18.6711 72.3146 18.6711 71.2673V45.1796C18.6711 44.1323 19.5223 43.2811 20.5696 43.2811C21.6169 43.2811 22.468 44.1323 22.468 45.1796V71.2673C22.468 72.3146 21.6169 73.1625 20.5696 73.1625ZM20.5696 87.7394C19.5223 87.7394 18.6711 86.8882 18.6711 85.8409V80.8386C18.6711 79.7912 19.5223 78.9433 20.5696 78.9433C21.6169 78.9433 22.468 79.7912 22.468 80.8386V85.8409C22.468 86.8882 21.6169 87.7394 20.5696 87.7394ZM20.5696 101.74C19.5223 101.74 18.6711 100.889 18.6711 99.8419V94.8427C18.6711 93.7954 19.5223 92.9443 20.5696 92.9443C21.6169 92.9443 22.468 93.7954 22.468 94.8427V99.8419C22.468 100.889 21.6169 101.74 20.5696 101.74ZM141.43 73.1625C140.383 73.1625 139.535 72.3146 139.535 71.2673V45.1796C139.535 44.1323 140.383 43.2811 141.43 43.2811C142.478 43.2811 143.329 44.1323 143.329 45.1796V71.2673C143.329 71.5164 143.28 71.7631 143.184 71.9933C143.089 72.2234 142.949 72.4325 142.773 72.6085C142.596 72.7846 142.387 72.9241 142.157 73.0192C141.926 73.1142 141.68 73.163 141.43 73.1625ZM141.43 87.7394C140.383 87.7394 139.535 86.8882 139.535 85.8409V80.8386C139.535 79.7912 140.383 78.9433 141.43 78.9433C142.478 78.9433 143.329 79.7912 143.329 80.8386V85.8409C143.329 86.8882 142.481 87.7394 141.43 87.7394ZM141.43 101.74C140.383 101.74 139.535 100.889 139.535 99.8419V94.8427C139.535 93.7954 140.383 92.9443 141.43 92.9443C142.478 92.9443 143.329 93.7954 143.329 94.8427V99.8419C143.329 100.889 142.481 101.74 141.43 101.74Z" fill="#9ACC32"/>
</svg>
