<?xml version="1.0" encoding="UTF-8" standalone="no"?>
<!DOCTYPE svg PUBLIC "-//W3C//DTD SVG 1.1//EN" "http://www.w3.org/Graphics/SVG/1.1/DTD/svg11.dtd">
<svg width="100%" height="100%" viewBox="0 0 162 162" version="1.1" xmlns="http://www.w3.org/2000/svg" xmlns:xlink="http://www.w3.org/1999/xlink" xml:space="preserve" xmlns:serif="http://www.serif.com/" style="fill-rule:evenodd;clip-rule:evenodd;stroke-linejoin:round;stroke-miterlimit:2;">
    <path d="M83.762,112.685L78.238,112.685C76.257,112.685 74.64,111.128 74.476,109.065L73.887,101.769C70.873,101.041 67.99,99.846 65.344,98.228L59.766,102.974C59.026,103.604 58.102,103.952 57.159,103.952C56.168,103.952 55.241,103.569 54.545,102.873L50.638,98.966C49.239,97.564 49.195,95.321 50.536,93.745L55.286,88.167C53.665,85.522 52.469,82.639 51.742,79.624L44.442,79.035C42.383,78.871 40.826,77.254 40.826,75.273L40.826,69.749C40.826,67.768 42.38,66.151 44.442,65.987L51.742,65.398C52.47,62.376 53.659,59.513 55.283,56.852L50.536,51.277C49.195,49.701 49.239,47.458 50.641,46.056L54.545,42.152C55.241,41.456 56.168,41.07 57.159,41.07C58.102,41.07 59.026,41.417 59.766,42.047L65.341,46.793C68.002,45.17 70.866,43.98 73.887,43.253L74.473,35.953C74.64,33.89 76.257,32.337 78.238,32.337L83.762,32.337C85.74,32.337 87.36,33.89 87.524,35.953L88.113,43.253C91.135,43.984 93.998,45.17 96.656,46.796L102.234,42.047C102.974,41.417 103.898,41.073 104.841,41.073C105.828,41.073 106.759,41.456 107.455,42.152L111.359,46.056C112.761,47.458 112.805,49.701 111.464,51.277L106.714,56.855C108.334,59.501 109.53,62.385 110.258,65.401L117.558,65.987C119.617,66.151 121.174,67.771 121.174,69.749L121.174,75.276C121.174,77.254 119.617,78.874 117.558,79.038L110.258,79.624C109.531,82.64 108.335,85.524 106.714,88.17L111.464,93.748C112.805,95.324 112.761,97.567 111.359,98.969L107.455,102.873C107.112,103.217 106.705,103.489 106.256,103.674C105.807,103.859 105.327,103.954 104.841,103.952C103.898,103.952 102.974,103.607 102.234,102.978L96.656,98.228C94.01,99.848 91.126,101.043 88.11,101.769L87.524,109.068C87.36,111.128 85.743,112.685 83.762,112.685ZM78.292,108.888L83.708,108.888C83.721,108.863 83.737,108.822 83.743,108.765L84.443,100.06C84.512,99.209 85.139,98.51 85.977,98.349C89.489,97.678 92.777,96.314 95.751,94.299C96.094,94.065 96.504,93.95 96.919,93.972C97.333,93.995 97.729,94.153 98.045,94.422L104.696,100.086C104.74,100.124 104.781,100.143 104.81,100.149L108.638,96.32C108.626,96.278 108.605,96.239 108.575,96.206L102.914,89.556C102.645,89.239 102.487,88.843 102.464,88.428C102.441,88.013 102.555,87.603 102.788,87.259C104.803,84.291 106.167,81.003 106.841,77.488C106.919,77.08 107.128,76.709 107.438,76.432C107.747,76.154 108.139,75.986 108.553,75.953L117.254,75.254C117.314,75.248 117.355,75.232 117.38,75.219L117.38,69.802C117.342,69.781 117.298,69.769 117.254,69.768L108.549,69.068C107.698,68.999 106.999,68.372 106.838,67.534C106.167,64.022 104.803,60.734 102.788,57.76C102.555,57.417 102.44,57.007 102.463,56.592C102.485,56.178 102.642,55.782 102.911,55.466L108.575,48.815C108.613,48.771 108.632,48.73 108.638,48.701L104.81,44.87C104.781,44.879 104.74,44.898 104.696,44.936L98.045,50.597C97.729,50.866 97.334,51.024 96.919,51.047C96.505,51.069 96.094,50.956 95.751,50.723C92.78,48.704 89.489,47.341 85.977,46.67C85.569,46.592 85.198,46.382 84.921,46.073C84.644,45.764 84.476,45.372 84.443,44.958L83.743,36.257C83.737,36.197 83.721,36.156 83.708,36.13L78.292,36.13C78.279,36.156 78.263,36.2 78.257,36.257L77.558,44.958C77.491,45.809 76.861,46.509 76.023,46.67C72.522,47.338 69.196,48.716 66.249,50.72C65.906,50.954 65.496,51.069 65.081,51.046C64.667,51.024 64.271,50.866 63.955,50.597L57.304,44.936C57.26,44.898 57.219,44.879 57.19,44.87L53.362,48.701C53.368,48.73 53.387,48.771 53.425,48.815L59.086,55.463C59.356,55.779 59.514,56.175 59.537,56.59C59.56,57.005 59.446,57.416 59.212,57.76C57.197,60.731 55.833,64.018 55.162,67.534C55.083,67.941 54.874,68.312 54.564,68.589C54.255,68.866 53.864,69.034 53.451,69.068L44.746,69.768C44.689,69.771 44.648,69.787 44.623,69.802L44.623,75.219C44.648,75.232 44.689,75.248 44.746,75.254L53.451,75.953C54.302,76.02 55.001,76.649 55.162,77.488C55.836,81 57.2,84.287 59.215,87.259C59.448,87.603 59.562,88.013 59.539,88.428C59.516,88.843 59.358,89.239 59.089,89.556L53.425,96.206C53.387,96.251 53.368,96.292 53.362,96.317L57.19,100.149C57.219,100.139 57.26,100.12 57.304,100.082L63.955,94.422C64.272,94.153 64.668,93.995 65.083,93.972C65.498,93.95 65.909,94.065 66.252,94.299C69.22,96.314 72.511,97.678 76.023,98.349C76.861,98.51 77.491,99.212 77.558,100.06L78.257,108.761C78.263,108.822 78.279,108.863 78.292,108.888Z" style="fill:rgb(145,84,224);"/>
    <path d="M81,93.384C69.489,93.384 60.127,84.022 60.127,72.511C60.127,61 69.489,51.634 81,51.634C92.511,51.634 101.876,61 101.876,72.511C101.876,84.022 92.511,93.384 81,93.384ZM81,55.431C71.584,55.431 63.92,63.091 63.92,72.511C63.92,81.927 71.584,89.59 81,89.59C90.419,89.59 98.08,81.927 98.08,72.511C98.08,63.091 90.419,55.431 81,55.431Z" style="fill:rgb(145,84,224);"/>
    <path d="M87.49,92.245C87.24,92.245 86.994,92.196 86.763,92.1C86.533,92.005 86.324,91.865 86.148,91.689C85.972,91.513 85.833,91.303 85.738,91.073C85.643,90.843 85.594,90.596 85.594,90.347L85.594,74.416C85.594,73.365 86.442,72.517 87.49,72.517C88.54,72.517 89.388,73.365 89.388,74.416L89.388,90.347C89.388,91.397 88.54,92.245 87.49,92.245Z" style="fill:rgb(145,84,224);"/>
    <path d="M87.49,76.311C83.955,76.311 81.076,73.435 81.076,69.9C81.076,66.363 83.955,63.487 87.49,63.487C91.027,63.487 93.903,66.363 93.903,69.9C93.903,73.435 91.027,76.311 87.49,76.311ZM87.49,67.281C86.047,67.281 84.873,68.454 84.873,69.9C84.873,71.343 86.047,72.517 87.49,72.517C88.936,72.517 90.109,71.343 90.109,69.9C90.109,68.454 88.936,67.281 87.49,67.281ZM73.871,91.998C72.821,91.998 71.973,91.147 71.973,90.1L71.973,76.833C71.973,75.786 72.821,74.934 73.871,74.934C74.919,74.934 75.767,75.786 75.767,76.833L75.767,90.1C75.767,91.15 74.919,91.998 73.871,91.998Z" style="fill:rgb(145,84,224);"/>
    <path d="M73.871,78.731C70.685,78.731 68.097,76.14 68.097,72.957C68.097,69.774 70.685,67.183 73.871,67.183C77.054,67.183 79.643,69.774 79.643,72.957C79.643,76.14 77.054,78.731 73.871,78.731ZM73.871,70.979C72.78,70.979 71.891,71.865 71.891,72.957C71.891,74.049 72.78,74.934 73.871,74.934C74.96,74.934 75.849,74.049 75.849,72.957C75.849,71.865 74.96,70.979 73.871,70.979Z" style="fill:rgb(145,84,224);"/>
    <path d="M153.985,120.908L8.018,120.908C6.967,120.908 6.119,120.06 6.119,119.013L6.119,27.527C6.119,25.645 7.651,24.11 9.536,24.11L152.464,24.11C154.349,24.11 155.881,25.645 155.881,27.527L155.881,119.013C155.881,120.06 155.033,120.908 153.985,120.908ZM9.913,117.115L152.087,117.115L152.087,27.907L9.913,27.907L9.913,117.115Z" style="fill:rgb(145,84,224);"/>
    <path d="M151.578,137.89L10.422,137.89C4.695,137.89 0.038,133.229 0.038,127.502L0.038,119.013C0.038,117.966 0.886,117.115 1.933,117.115L160.067,117.115C161.114,117.115 161.965,117.966 161.965,119.013L161.965,127.502C161.965,133.229 157.305,137.89 151.578,137.89ZM3.832,120.911L3.832,127.502C3.832,131.138 6.79,134.093 10.422,134.093L151.578,134.093C155.213,134.093 158.168,131.138 158.168,127.502L158.168,120.911L3.832,120.911Z" style="fill:rgb(145,84,224);"/>
    <path d="M95.697,128.992L66.303,128.992C65.256,128.992 64.405,128.144 64.405,127.094L64.405,119.013C64.405,117.966 65.256,117.115 66.303,117.115L95.697,117.115C96.748,117.115 97.596,117.966 97.596,119.013L97.596,127.094C97.596,128.144 96.748,128.992 95.697,128.992ZM68.201,125.199L93.802,125.199L93.802,120.911L68.201,120.911L68.201,125.199ZM140.794,129.401L118.656,129.401C117.608,129.401 116.757,128.549 116.757,127.502C116.757,126.455 117.608,125.604 118.656,125.604L140.794,125.604C141.842,125.604 142.693,126.455 142.693,127.502C142.693,128.549 141.842,129.401 140.794,129.401ZM43.344,129.401L21.206,129.401C20.158,129.401 19.31,128.549 19.31,127.502C19.31,126.455 20.158,125.604 21.206,125.604L43.344,125.604C44.392,125.604 45.243,126.455 45.243,127.502C45.243,128.549 44.392,129.401 43.344,129.401ZM20.57,73.163C19.522,73.163 18.671,72.315 18.671,71.267L18.671,45.18C18.671,44.132 19.522,43.281 20.57,43.281C21.617,43.281 22.468,44.132 22.468,45.18L22.468,71.267C22.468,72.315 21.617,73.163 20.57,73.163ZM20.57,87.739C19.522,87.739 18.671,86.888 18.671,85.841L18.671,80.839C18.671,79.791 19.522,78.943 20.57,78.943C21.617,78.943 22.468,79.791 22.468,80.839L22.468,85.841C22.468,86.888 21.617,87.739 20.57,87.739ZM20.57,101.74C19.522,101.74 18.671,100.889 18.671,99.842L18.671,94.843C18.671,93.795 19.522,92.944 20.57,92.944C21.617,92.944 22.468,93.795 22.468,94.843L22.468,99.842C22.468,100.889 21.617,101.74 20.57,101.74ZM141.43,73.163C140.383,73.163 139.535,72.315 139.535,71.267L139.535,45.18C139.535,44.132 140.383,43.281 141.43,43.281C142.478,43.281 143.329,44.132 143.329,45.18L143.329,71.267C143.329,71.516 143.28,71.763 143.184,71.993C143.089,72.223 142.949,72.433 142.773,72.609C142.596,72.785 142.387,72.924 142.157,73.019C141.926,73.114 141.68,73.163 141.43,73.163ZM141.43,87.739C140.383,87.739 139.535,86.888 139.535,85.841L139.535,80.839C139.535,79.791 140.383,78.943 141.43,78.943C142.478,78.943 143.329,79.791 143.329,80.839L143.329,85.841C143.329,86.888 142.481,87.739 141.43,87.739ZM141.43,101.74C140.383,101.74 139.535,100.889 139.535,99.842L139.535,94.843C139.535,93.795 140.383,92.944 141.43,92.944C142.478,92.944 143.329,93.795 143.329,94.843L143.329,99.842C143.329,100.889 142.481,101.74 141.43,101.74Z" style="fill:rgb(145,84,224);"/>
</svg>
