<svg width="162" height="162" viewBox="0 0 162 162" fill="none" xmlns="http://www.w3.org/2000/svg">
<g clip-path="url(#clip0_40_287)">
<path d="M155.289 47.4219C151.582 47.4219 148.577 50.4258 148.577 54.1319C148.577 55.3535 148.909 56.4956 149.479 57.482L142.788 64.172H137.677C135.849 55.2068 131.043 47.3302 124.346 41.5995V35.8462H135.082L140.716 30.2131C141.621 30.6514 142.613 30.8795 143.619 30.8804C147.324 30.8804 150.33 27.8765 150.33 24.1691C150.33 20.4637 147.325 17.4591 143.619 17.4591C139.913 17.4591 136.909 20.463 136.909 24.1691C136.909 25.6582 137.399 27.0283 138.219 28.1407L133.743 32.6156H121.115V39.104C114.753 34.6854 107.063 32.0536 98.7623 31.9237V23.9579L105.6 17.1213C106.69 17.8377 107.967 18.2191 109.271 18.2182C112.977 18.2182 115.983 15.2156 115.983 11.5082C115.983 7.80271 112.978 4.79688 109.271 4.79688C105.565 4.79688 102.561 7.80207 102.561 11.5082C102.561 12.6858 102.867 13.7905 103.399 14.7524L95.5323 22.62V31.9999C90.1181 32.3387 84.8289 33.772 79.9844 36.2131V30.5122L75.0819 25.6103C75.6125 24.6309 75.8897 23.5343 75.8881 22.4204C75.8881 18.7137 72.8829 15.7091 69.1768 15.7091C65.4713 15.7091 62.4668 18.713 62.4668 22.4204C62.4668 26.1259 65.4707 29.1304 69.1768 29.1304C70.556 29.1304 71.837 28.7131 72.9036 27.9999L76.7537 31.8494V38.0297C73.621 39.9861 70.7701 42.3612 68.2802 45.0892C69.0181 46.4463 69.6699 47.8485 70.2317 49.2875C70.5369 50.0674 70.8217 50.8552 71.0857 51.65C77.3009 43.5181 87.0955 38.2687 98.1202 38.2687C116.905 38.2687 132.132 53.4962 132.132 72.2806C132.132 91.065 116.905 106.293 98.1202 106.293C88.7784 106.293 80.3184 102.524 74.1717 96.4274C73.5318 98.5348 72.1473 100.337 70.2763 101.499C74.2479 105.292 78.9514 108.236 84.0994 110.149V117.882H76.6136L72.1969 122.3C71.4506 122.02 70.6604 121.876 69.8635 121.875C66.158 121.875 63.1535 124.879 63.1535 128.585C63.1535 132.291 66.1574 135.296 69.8635 135.296C73.5696 135.296 76.5741 132.292 76.5741 128.585C76.5741 126.89 75.9404 125.345 74.9029 124.164L77.9534 121.113H87.3313V111.184C94.9811 113.307 103.087 113.127 110.635 110.667H116.182V122.789L119.435 126.042C119.058 126.894 118.863 127.815 118.863 128.746C118.863 132.453 121.867 135.457 125.573 135.457C129.28 135.457 132.285 132.454 132.285 128.746C132.285 125.041 129.281 122.036 125.573 122.036C124.009 122.036 122.574 122.576 121.434 123.473L119.414 121.453V107.439H117.961C124.397 103.797 129.714 98.4646 133.338 92.0191H136.339V98.6465L141.759 104.067C141.042 105.157 140.661 106.434 140.662 107.739C140.662 111.444 143.666 114.449 147.372 114.449C151.079 114.449 154.083 111.445 154.083 107.739C154.083 104.032 151.079 101.029 147.372 101.029C146.195 101.029 145.09 101.334 144.128 101.866L139.57 97.3079V88.7885H134.963C137.295 83.598 138.498 77.9719 138.494 72.2819C138.49 70.6515 138.389 69.0228 138.19 67.4046H144.128L151.723 59.8102C152.79 60.4861 154.027 60.8447 155.291 60.8445C158.996 60.8445 162.001 57.8393 162.001 54.1332C161.999 50.4264 158.994 47.4219 155.289 47.4219ZM139.575 24.1698C139.575 23.0972 140.001 22.0686 140.76 21.3103C141.518 20.5519 142.547 20.1258 143.619 20.1258C144.692 20.1258 145.72 20.5519 146.479 21.3103C147.237 22.0686 147.663 23.0972 147.663 24.1698C147.663 25.2423 147.237 26.2709 146.479 27.0293C145.72 27.7877 144.692 28.2137 143.619 28.2137C142.547 28.2137 141.518 27.7877 140.76 27.0293C140.001 26.2709 139.575 25.2423 139.575 24.1698ZM105.228 11.5082C105.228 10.4356 105.654 9.40705 106.413 8.64866C107.171 7.89027 108.2 7.46421 109.272 7.46421C110.345 7.46421 111.373 7.89027 112.132 8.64866C112.89 9.40705 113.316 10.4356 113.316 11.5082C113.316 12.5807 112.89 13.6093 112.132 14.3677C111.373 15.1261 110.345 15.5521 109.272 15.5521C108.2 15.5521 107.171 15.1261 106.413 14.3677C105.654 13.6093 105.228 12.5807 105.228 11.5082ZM69.1768 26.4624C68.1044 26.4624 67.076 26.0364 66.3177 25.2782C65.5595 24.5199 65.1335 23.4915 65.1335 22.4191C65.1335 21.3468 65.5595 20.3183 66.3177 19.5601C67.076 18.8018 68.1044 18.3758 69.1768 18.3758C70.2492 18.3758 71.2776 18.8018 72.0359 19.5601C72.7941 20.3183 73.2201 21.3468 73.2201 22.4191C73.2201 23.4915 72.7941 24.5199 72.0359 25.2782C71.2776 26.0364 70.2492 26.4624 69.1768 26.4624ZM73.9062 128.583C73.9062 130.818 72.0954 132.627 69.8622 132.627C69.3252 132.637 68.7916 132.539 68.2926 132.341C67.7936 132.142 67.3393 131.845 66.9561 131.469C66.5729 131.093 66.2685 130.644 66.0607 130.148C65.853 129.653 65.746 129.121 65.746 128.584C65.746 128.047 65.853 127.515 66.0607 127.02C66.2685 126.524 66.5729 126.075 66.9561 125.699C67.3393 125.323 67.7936 125.026 68.2926 124.827C68.7916 124.629 69.3252 124.531 69.8622 124.541C70.9345 124.541 71.9629 124.967 72.7213 125.725C73.4796 126.483 73.9058 127.511 73.9062 128.583ZM125.572 124.702C126.11 124.69 126.646 124.786 127.146 124.984C127.647 125.182 128.104 125.478 128.489 125.855C128.873 126.231 129.179 126.681 129.388 127.177C129.597 127.674 129.704 128.207 129.704 128.745C129.704 129.284 129.597 129.817 129.388 130.313C129.179 130.81 128.873 131.259 128.489 131.636C128.104 132.012 127.647 132.308 127.146 132.506C126.646 132.704 126.11 132.8 125.572 132.788C124.515 132.765 123.509 132.329 122.77 131.573C122.031 130.818 121.617 129.802 121.617 128.745C121.617 127.688 122.031 126.673 122.77 125.917C123.509 125.161 124.515 124.725 125.572 124.702ZM147.37 103.694C148.442 103.694 149.471 104.12 150.229 104.878C150.988 105.636 151.414 106.665 151.414 107.738C151.414 108.81 150.988 109.839 150.229 110.597C149.471 111.356 148.442 111.782 147.37 111.782C146.298 111.781 145.269 111.355 144.511 110.596C143.753 109.838 143.327 108.81 143.326 107.738C143.327 106.665 143.753 105.637 144.511 104.879C145.269 104.121 146.298 103.694 147.37 103.694ZM155.289 58.1759C154.229 58.1569 153.218 57.7225 152.475 56.9662C151.733 56.2099 151.316 55.1921 151.316 54.1319C151.316 53.0717 151.733 52.0539 152.475 51.2976C153.218 50.5413 154.229 50.1069 155.289 50.0879C157.522 50.0879 159.331 51.8987 159.331 54.1319C159.331 56.3651 157.522 58.1759 155.289 58.1759Z" fill="#9154E0"/>
<path d="M37.2627 91.3086H40.2576V149.623C40.2576 154.037 43.8345 157.611 48.2454 157.611C52.655 157.611 56.2319 154.037 56.2319 149.623V52.7211C58.4715 57.3077 60.7526 66.0953 60.7313 81.7394C60.7313 85.3015 60.6163 89.2137 60.3643 93.5115C60.3228 94.2149 60.4256 94.9193 60.6664 95.5815C60.9072 96.2437 61.281 96.8496 61.7646 97.3621C62.2482 97.8745 62.8315 98.2826 63.4787 98.5612C64.1259 98.8399 64.8232 98.9833 65.5278 98.9825C66.8454 98.981 68.1126 98.4765 69.0708 97.572C70.0289 96.6676 70.6055 95.4315 70.6829 94.1162C70.9452 89.6368 71.0666 85.5237 71.0666 81.7401C71.0589 67.103 69.2772 57.4079 66.626 50.703C64.0032 44.0234 60.2577 40.2546 56.7829 38.5311C54.5762 37.4193 52.6395 37.1674 51.4721 37.1532C51.3953 37.1493 51.3184 37.1422 51.2402 37.1422H34.0825C34.085 37.2837 34.0876 37.4497 34.0883 37.6635C34.0779 40.1933 33.7995 47.6785 30.5954 56.2496L27.0178 54.7425C29.9319 46.8451 30.2207 39.8935 30.2123 37.6635C30.2123 37.431 30.2097 37.263 30.2065 37.1422H26.2807C25.9713 37.1422 25.6709 37.1745 25.377 37.2281L25.3776 37.2333C23.3834 37.4587 21.6534 38.2397 20.1411 39.2391C18.3524 40.4342 16.811 41.9924 15.4783 43.8328C12.8375 47.5053 11.0054 52.3897 10.9957 57.9427C10.9893 62.1004 12.0758 66.6043 14.5959 70.9273C17.1088 75.2549 21.0074 79.3719 26.4661 83.0211C27.0299 83.3989 27.6627 83.6618 28.3282 83.7949C28.9937 83.9279 29.6789 83.9285 30.3446 83.7966C31.0103 83.6647 31.6435 83.4028 32.2079 83.026C32.7724 82.6492 33.257 82.1648 33.6341 81.6006C34.3964 80.4611 34.6749 79.0655 34.4082 77.7208C34.1416 76.3761 33.3517 75.1923 32.2123 74.43C27.8343 71.4978 25.1476 68.5074 23.5326 65.7316C21.9222 62.9492 21.3375 60.3543 21.3317 57.9427C21.3311 55.8358 21.7987 53.7551 22.7006 51.851C23.5171 50.1158 24.6502 48.765 25.5385 48.0809C25.8137 47.86 26.0488 47.7204 26.2277 47.6294L26.3466 49.0893C25.6715 49.6093 24.636 50.7734 23.8698 52.4014C23.0481 54.1326 22.622 56.0251 22.6224 57.9415C22.6269 59.2128 22.8091 60.4505 23.1683 61.6734L25.4752 56.196L45.4908 64.6256L34.7349 90.1659L14.7173 81.7369L16.9538 76.4274C15.6198 74.8731 14.4537 73.2555 13.4764 71.5746C11.0009 67.3252 9.69596 62.6101 9.70436 57.9395C9.71211 52.5835 11.3924 47.3057 14.4286 43.0776C15.8956 41.0498 17.5752 39.3987 19.4208 38.1648C21.26 36.9497 23.3841 36.1816 25.271 35.9277L25.2717 35.9387C25.6053 35.8817 25.9429 35.8519 26.2814 35.8495H35.7298C32.3144 35.1202 26.4299 34.0059 22.6328 34.0595C21.6521 34.073 20.8085 34.1628 20.1857 34.3599C16.0952 35.6519 4.68171 43.4039 0.482709 66.3369C-2.67494 83.5799 10.329 97.0787 19.9964 99.4205V86.0625L21.2884 86.6064V149.623C21.2884 154.037 24.8653 157.611 29.2762 157.611C32.6877 157.611 35.5928 155.467 36.7369 152.455C37.0721 151.574 37.2627 150.622 37.2627 149.623V91.3086Z" fill="#9154E0"/>
<path d="M38.7596 33.4599C46.7871 33.4599 53.2946 26.9524 53.2946 18.9249C53.2946 10.8974 46.7871 4.38989 38.7596 4.38989C30.7322 4.38989 24.2246 10.8974 24.2246 18.9249C24.2246 26.9524 30.7322 33.4599 38.7596 33.4599Z" fill="#9154E0"/>
<path d="M26.4497 62.9562L27.0324 61.5718L40.5777 67.2722L39.995 68.6565L26.4497 62.9562ZM25.2559 65.723L25.8373 64.3387L39.3839 70.0248L38.8031 71.4098L25.2559 65.723ZM114.735 68.0842H111.764V61.5602C111.764 54.2817 105.866 48.3812 98.5865 48.3799C91.3068 48.3812 85.4075 54.2824 85.4062 61.5602V68.0842H82.4353V91.9862H114.735V68.0842ZM97.2933 80.7994C96.3415 80.4916 95.5309 79.8542 95.0073 79.0018C94.4838 78.1495 94.2817 77.1382 94.4375 76.1501C94.5933 75.162 95.0967 74.262 95.8571 73.6121C96.6175 72.9622 97.585 72.6051 98.5853 72.6051C99.5856 72.6051 100.553 72.9622 101.313 73.6121C102.074 74.262 102.577 75.162 102.733 76.1501C102.889 77.1382 102.687 78.1495 102.163 79.0018C101.64 79.8542 100.829 80.4916 99.8773 80.7994V86.8175H97.2933V80.7994ZM88.6362 61.5602C88.6465 56.066 93.0917 51.6209 98.5865 51.6112C104.08 51.6215 108.525 56.066 108.534 61.5602L108.534 68.0842H88.6356V61.5602H88.6362Z" fill="#9154E0"/>
</g>
<defs>
<clipPath id="clip0_40_287">
<rect width="162" height="162" fill="white"/>
</clipPath>
</defs>
</svg>
