<svg width="162" height="162" viewBox="0 0 162 162" fill="none" xmlns="http://www.w3.org/2000/svg">
<g clip-path="url(#clip0_90_651)">
<path d="M155.291 47.4219C151.584 47.4219 148.579 50.4258 148.579 54.1319C148.579 55.3535 148.911 56.4956 149.481 57.482L142.79 64.172H137.679C135.851 55.2068 131.045 47.3302 124.348 41.5995V35.8462H135.084L140.718 30.2131C141.623 30.6514 142.615 30.8795 143.621 30.8804C147.326 30.8804 150.332 27.8765 150.332 24.1691C150.332 20.4637 147.327 17.4591 143.621 17.4591C139.915 17.4591 136.911 20.463 136.911 24.1691C136.911 25.6582 137.401 27.0283 138.221 28.1407L133.745 32.6156H121.117V39.104C114.755 34.6854 107.065 32.0536 98.7643 31.9237V23.9579L105.602 17.1213C106.692 17.8377 107.969 18.2191 109.273 18.2182C112.979 18.2182 115.985 15.2156 115.985 11.5082C115.985 7.80271 112.979 4.79688 109.273 4.79688C105.567 4.79688 102.563 7.80207 102.563 11.5082C102.563 12.6858 102.869 13.7905 103.401 14.7524L95.5343 22.62V31.9999C90.1201 32.3387 84.8308 33.772 79.9863 36.2131V30.5122L75.0838 25.6103C75.6145 24.6309 75.8917 23.5343 75.89 22.4204C75.89 18.7137 72.8849 15.7091 69.1788 15.7091C65.4733 15.7091 62.4688 18.713 62.4688 22.4204C62.4688 26.1259 65.4727 29.1304 69.1788 29.1304C70.558 29.1304 71.839 28.7131 72.9055 27.9999L76.7557 31.8494V38.0297C73.6229 39.9861 70.772 42.3612 68.2821 45.0892C69.0201 46.4463 69.6719 47.8485 70.2337 49.2875C70.5389 50.0674 70.8237 50.8552 71.0877 51.65C77.3028 43.5181 87.0975 38.2687 98.1221 38.2687C116.907 38.2687 132.134 53.4962 132.134 72.2806C132.134 91.065 116.907 106.293 98.1221 106.293C88.7803 106.293 80.3203 102.524 74.1736 96.4274C73.5338 98.5348 72.1493 100.337 70.2782 101.499C74.2498 105.292 78.9534 108.236 84.1013 110.149V117.882H76.6155L72.1988 122.3C71.4526 122.02 70.6623 121.876 69.8655 121.875C66.16 121.875 63.1555 124.879 63.1555 128.585C63.1555 132.291 66.1594 135.296 69.8655 135.296C73.5716 135.296 76.5761 132.292 76.5761 128.585C76.5761 126.89 75.9424 125.345 74.9049 124.164L77.9553 121.113H87.3333V111.184C94.983 113.307 103.089 113.127 110.637 110.667H116.184V122.789L119.437 126.042C119.06 126.894 118.865 127.815 118.865 128.746C118.865 132.453 121.869 135.457 125.575 135.457C129.282 135.457 132.286 132.454 132.286 128.746C132.286 125.041 129.283 122.036 125.575 122.036C124.011 122.036 122.576 122.576 121.436 123.473L119.416 121.453V107.439H117.963C124.399 103.797 129.716 98.4646 133.339 92.0191H136.341V98.6465L141.761 104.067C141.044 105.157 140.663 106.434 140.664 107.739C140.664 111.444 143.668 114.449 147.374 114.449C151.081 114.449 154.085 111.445 154.085 107.739C154.085 104.032 151.081 101.029 147.374 101.029C146.197 101.029 145.092 101.334 144.13 101.866L139.572 97.3079V88.7885H134.965C137.297 83.598 138.5 77.9719 138.496 72.2819C138.492 70.6515 138.391 69.0228 138.192 67.4046H144.13L151.725 59.8102C152.792 60.4861 154.029 60.8447 155.292 60.8445C158.998 60.8445 162.002 57.8393 162.002 54.1332C162.001 50.4264 158.996 47.4219 155.291 47.4219ZM139.577 24.1698C139.577 23.0972 140.003 22.0686 140.762 21.3103C141.52 20.5519 142.549 20.1258 143.621 20.1258C144.694 20.1258 145.722 20.5519 146.481 21.3103C147.239 22.0686 147.665 23.0972 147.665 24.1698C147.665 25.2423 147.239 26.2709 146.481 27.0293C145.722 27.7877 144.694 28.2137 143.621 28.2137C142.549 28.2137 141.52 27.7877 140.762 27.0293C140.003 26.2709 139.577 25.2423 139.577 24.1698ZM105.23 11.5082C105.23 10.4356 105.656 9.40705 106.415 8.64866C107.173 7.89027 108.202 7.46421 109.274 7.46421C110.347 7.46421 111.375 7.89027 112.134 8.64866C112.892 9.40705 113.318 10.4356 113.318 11.5082C113.318 12.5807 112.892 13.6093 112.134 14.3677C111.375 15.1261 110.347 15.5521 109.274 15.5521C108.202 15.5521 107.173 15.1261 106.415 14.3677C105.656 13.6093 105.23 12.5807 105.23 11.5082ZM69.1788 26.4624C68.1064 26.4624 67.078 26.0364 66.3197 25.2782C65.5614 24.5199 65.1354 23.4915 65.1354 22.4191C65.1354 21.3468 65.5614 20.3183 66.3197 19.5601C67.078 18.8018 68.1064 18.3758 69.1788 18.3758C70.2511 18.3758 71.2795 18.8018 72.0378 19.5601C72.7961 20.3183 73.2221 21.3468 73.2221 22.4191C73.2221 23.4915 72.7961 24.5199 72.0378 25.2782C71.2795 26.0364 70.2511 26.4624 69.1788 26.4624ZM73.9081 128.583C73.9081 130.818 72.0974 132.627 69.8642 132.627C69.3271 132.637 68.7935 132.539 68.2945 132.341C67.7956 132.142 67.3412 131.845 66.958 131.469C66.5748 131.093 66.2705 130.644 66.0627 130.148C65.8549 129.653 65.7479 129.121 65.7479 128.584C65.7479 128.047 65.8549 127.515 66.0627 127.02C66.2705 126.524 66.5748 126.075 66.958 125.699C67.3412 125.323 67.7956 125.026 68.2945 124.827C68.7935 124.629 69.3271 124.531 69.8642 124.541C70.9365 124.541 71.9649 124.967 72.7232 125.725C73.4816 126.483 73.9078 127.511 73.9081 128.583ZM125.574 124.702C126.112 124.69 126.648 124.786 127.148 124.984C127.649 125.182 128.106 125.478 128.49 125.855C128.875 126.231 129.181 126.681 129.39 127.177C129.599 127.674 129.706 128.207 129.706 128.745C129.706 129.284 129.599 129.817 129.39 130.313C129.181 130.81 128.875 131.259 128.49 131.636C128.106 132.012 127.649 132.308 127.148 132.506C126.648 132.704 126.112 132.8 125.574 132.788C124.517 132.765 123.511 132.329 122.772 131.573C122.032 130.818 121.618 129.802 121.618 128.745C121.618 127.688 122.032 126.673 122.772 125.917C123.511 125.161 124.517 124.725 125.574 124.702ZM147.372 103.694C148.444 103.694 149.473 104.12 150.231 104.878C150.99 105.636 151.416 106.665 151.416 107.738C151.416 108.81 150.99 109.839 150.231 110.597C149.473 111.356 148.444 111.782 147.372 111.782C146.3 111.781 145.271 111.355 144.513 110.596C143.755 109.838 143.329 108.81 143.328 107.738C143.329 106.665 143.755 105.637 144.513 104.879C145.271 104.121 146.3 103.694 147.372 103.694ZM155.291 58.1759C154.231 58.1569 153.22 57.7225 152.477 56.9662C151.734 56.2099 151.318 55.1921 151.318 54.1319C151.318 53.0717 151.734 52.0539 152.477 51.2976C153.22 50.5413 154.231 50.1069 155.291 50.0879C157.524 50.0879 159.333 51.8987 159.333 54.1319C159.333 56.3651 157.524 58.1759 155.291 58.1759Z" fill="#9ACC32"/>
<path d="M37.2637 91.3085H40.2586V149.623C40.2586 154.036 43.8355 157.611 48.2463 157.611C52.6559 157.611 56.2328 154.036 56.2328 149.623V52.721C58.4725 57.3076 60.7535 66.0951 60.7322 81.7393C60.7322 85.3014 60.6172 89.2135 60.3653 93.5114C60.3238 94.2148 60.4266 94.9192 60.6674 95.5814C60.9082 96.2436 61.2819 96.8495 61.7656 97.3619C62.2492 97.8744 62.8325 98.2825 63.4797 98.5611C64.1268 98.8398 64.8242 98.9831 65.5288 98.9823C66.8463 98.9808 68.1136 98.4763 69.0717 97.5719C70.0298 96.6675 70.6065 95.4313 70.6839 94.116C70.9461 89.6367 71.0676 85.5236 71.0676 81.74C71.0598 67.1029 69.2782 57.4077 66.627 50.7029C64.0042 44.0233 60.2587 40.2545 56.7839 38.531C54.5771 37.4192 52.6404 37.1673 51.4731 37.1531C51.3962 37.1492 51.3194 37.1421 51.2412 37.1421H34.0834C34.086 37.2835 34.0886 37.4496 34.0893 37.6634C34.0789 40.1931 33.8005 47.6783 30.5963 56.2495L27.0188 54.7423C29.9329 46.845 30.2216 39.8934 30.2133 37.6634C30.2133 37.4308 30.2107 37.2629 30.2074 37.1421H26.2817C25.9723 37.1421 25.6719 37.1744 25.3779 37.228L25.3786 37.2332C23.3844 37.4586 21.6544 38.2396 20.1421 39.239C18.3533 40.4341 16.812 41.9922 15.4793 43.8327C12.8384 47.5052 11.0064 52.3896 10.9967 57.9426C10.9902 62.1003 12.0768 66.6042 14.5968 70.9272C17.1098 75.2548 21.0084 79.3717 26.4671 83.021C27.0309 83.3988 27.6636 83.6617 28.3291 83.7948C28.9946 83.9278 29.6798 83.9284 30.3456 83.7965C31.0113 83.6645 31.6445 83.4027 32.2089 83.0259C32.7734 82.6491 33.258 82.1647 33.6351 81.6004C34.3974 80.461 34.6758 79.0654 34.4092 77.7207C34.1425 76.3759 33.3527 75.1922 32.2133 74.4298C27.8353 71.4976 25.1486 68.5073 23.5336 65.7314C21.9231 62.9491 21.3385 60.3541 21.3327 57.9426C21.3321 55.8357 21.7997 53.755 22.7016 51.8508C23.5181 50.1157 24.6512 48.7649 25.5394 48.0808C25.8146 47.8599 26.0498 47.7203 26.2287 47.6292L26.3476 49.0892C25.6725 49.6092 24.637 50.7733 23.8708 52.4012C23.049 54.1325 22.6229 56.0249 22.6234 57.9413C22.6279 59.2127 22.8101 60.4504 23.1693 61.6733L25.4761 56.1958L45.4918 64.6255L34.7359 90.1657L14.7183 81.7367L16.9547 76.4273C15.6208 74.873 14.4547 73.2554 13.4773 71.5745C11.0019 67.3251 9.69694 62.61 9.70533 57.9394C9.71309 52.5834 11.3933 47.3056 14.4295 43.0775C15.8966 41.0497 17.5762 39.3985 19.4218 38.1647C21.261 36.9496 23.385 36.1815 25.272 35.9276L25.2726 35.9386C25.6062 35.8816 25.9439 35.8518 26.2823 35.8494H35.7307C32.3153 35.1201 26.4309 34.0057 22.6337 34.0594C21.6531 34.0729 20.8094 34.1627 20.1867 34.3598C16.0962 35.6518 4.68269 43.4037 0.483686 66.3367C-2.67396 83.5798 10.33 97.0786 19.9974 99.4203V86.0624L21.2894 86.6063V149.623C21.2894 154.036 24.8663 157.611 29.2772 157.611C32.6887 157.611 35.5938 155.467 36.7379 152.455C37.0731 151.574 37.2637 150.622 37.2637 149.623V91.3085Z" fill="#9ACC32"/>
<path d="M38.7616 33.4599C46.789 33.4599 53.2966 26.9524 53.2966 18.9249C53.2966 10.8974 46.789 4.38989 38.7616 4.38989C30.7341 4.38989 24.2266 10.8974 24.2266 18.9249C24.2266 26.9524 30.7341 33.4599 38.7616 33.4599Z" fill="#9ACC32"/>
<path d="M26.4506 62.9562L27.0333 61.5718L40.5787 67.2722L39.996 68.6565L26.4506 62.9562ZM25.2568 65.723L25.8382 64.3387L39.3849 70.0248L38.8041 71.4098L25.2568 65.723ZM114.736 68.0842H111.765V61.5602C111.765 54.2817 105.867 48.3812 98.5875 48.3799C91.3077 48.3812 85.4085 54.2824 85.4072 61.5602V68.0842H82.4362V91.9862H114.736V68.0842ZM97.2942 80.7994C96.3425 80.4916 95.5318 79.8542 95.0083 79.0018C94.4847 78.1495 94.2827 77.1382 94.4385 76.1501C94.5943 75.162 95.0977 74.262 95.8581 73.6121C96.6185 72.9622 97.5859 72.6051 98.5862 72.6051C99.5865 72.6051 100.554 72.9622 101.314 73.6121C102.075 74.262 102.578 75.162 102.734 76.1501C102.89 77.1382 102.688 78.1495 102.164 79.0018C101.641 79.8542 100.83 80.4916 99.8782 80.7994V86.8175H97.2942V80.7994ZM88.6372 61.5602C88.6475 56.066 93.0926 51.6209 98.5875 51.6112C104.081 51.6215 108.526 56.066 108.535 61.5602L108.535 68.0842H88.6365V61.5602H88.6372Z" fill="#9ACC32"/>
</g>
<defs>
<clipPath id="clip0_90_651">
<rect width="162" height="162" fill="white"/>
</clipPath>
</defs>
</svg>
