<svg xmlns="http://www.w3.org/2000/svg" xmlns:xlink="http://www.w3.org/1999/xlink" width="162" zoomAndPan="magnify" viewBox="0 0 121.5 121.499994" height="162" preserveAspectRatio="xMidYMid meet" version="1.0"><defs><clipPath id="3c2577b2f6"><path d="M 26 46 L 93 46 L 93 118.988281 L 26 118.988281 Z M 26 46 " clip-rule="nonzero"/></clipPath><clipPath id="ec295ab8ed"><path d="M 3.558594 1.71875 L 117.089844 1.71875 L 117.089844 70 L 3.558594 70 Z M 3.558594 1.71875 " clip-rule="nonzero"/></clipPath></defs><path fill="#9154e0" d="M 63.300781 40.242188 C 63.300781 40.574219 63.367188 40.894531 63.492188 41.203125 C 63.621094 41.511719 63.800781 41.78125 64.039062 42.015625 C 64.273438 42.25 64.542969 42.433594 64.851562 42.558594 C 65.160156 42.6875 65.480469 42.75 65.8125 42.75 C 66.144531 42.75 66.464844 42.6875 66.769531 42.558594 C 67.078125 42.429688 67.347656 42.25 67.585938 42.015625 C 67.820312 41.777344 68 41.507812 68.128906 41.199219 C 68.253906 40.894531 68.320312 40.574219 68.316406 40.242188 C 68.316406 39.910156 68.253906 39.589844 68.128906 39.28125 C 68 38.972656 67.820312 38.703125 67.582031 38.46875 C 67.347656 38.234375 67.078125 38.050781 66.769531 37.925781 C 66.460938 37.796875 66.144531 37.734375 65.808594 37.734375 C 65.476562 37.734375 65.15625 37.796875 64.851562 37.925781 C 64.542969 38.054688 64.273438 38.234375 64.035156 38.46875 C 63.800781 38.703125 63.621094 38.976562 63.492188 39.285156 C 63.367188 39.589844 63.300781 39.910156 63.300781 40.242188 Z M 63.300781 40.242188 " fill-opacity="1" fill-rule="nonzero"/><path fill="#9154e0" d="M 53.902344 40.242188 C 53.902344 40.574219 53.964844 40.894531 54.09375 41.203125 C 54.21875 41.511719 54.402344 41.78125 54.636719 42.015625 C 54.871094 42.253906 55.144531 42.433594 55.449219 42.5625 C 55.757812 42.6875 56.078125 42.75 56.410156 42.75 C 56.742188 42.75 57.0625 42.6875 57.371094 42.5625 C 57.679688 42.433594 57.949219 42.253906 58.183594 42.015625 C 58.417969 41.78125 58.601562 41.511719 58.726562 41.203125 C 58.855469 40.894531 58.917969 40.574219 58.917969 40.242188 C 58.917969 39.910156 58.855469 39.589844 58.726562 39.28125 C 58.601562 38.976562 58.417969 38.703125 58.183594 38.46875 C 57.949219 38.234375 57.675781 38.054688 57.371094 37.925781 C 57.0625 37.796875 56.742188 37.734375 56.410156 37.734375 C 56.078125 37.734375 55.757812 37.796875 55.449219 37.925781 C 55.144531 38.054688 54.871094 38.234375 54.636719 38.46875 C 54.402344 38.703125 54.21875 38.976562 54.09375 39.285156 C 53.964844 39.589844 53.902344 39.910156 53.902344 40.242188 Z M 53.902344 40.242188 " fill-opacity="1" fill-rule="nonzero"/><path fill="#9154e0" d="M 56.71875 13.113281 C 56.464844 12.996094 56.199219 12.933594 55.921875 12.921875 C 55.640625 12.914062 55.371094 12.957031 55.113281 13.054688 C 54.851562 13.152344 54.617188 13.296875 54.414062 13.484375 C 54.210938 13.675781 54.050781 13.894531 53.9375 14.148438 L 49.257812 24.386719 L 44.285156 14.109375 C 44.164062 13.855469 44 13.636719 43.792969 13.453125 C 43.585938 13.265625 43.347656 13.128906 43.085938 13.035156 C 42.824219 12.945312 42.550781 12.90625 42.273438 12.921875 C 41.996094 12.9375 41.730469 13.007812 41.480469 13.128906 C 41.230469 13.25 41.011719 13.414062 40.828125 13.625 C 40.640625 13.832031 40.503906 14.066406 40.410156 14.332031 C 40.320312 14.59375 40.28125 14.863281 40.300781 15.144531 C 40.316406 15.421875 40.386719 15.683594 40.507812 15.9375 L 47.421875 30.234375 C 47.597656 30.59375 47.855469 30.882812 48.199219 31.097656 C 48.539062 31.3125 48.910156 31.417969 49.3125 31.417969 C 49.320312 31.417969 49.328125 31.417969 49.335938 31.417969 C 49.742188 31.414062 50.117188 31.300781 50.457031 31.078125 C 50.800781 30.855469 51.054688 30.5625 51.222656 30.191406 L 57.753906 15.894531 C 57.871094 15.640625 57.933594 15.375 57.945312 15.097656 C 57.953125 14.820312 57.910156 14.550781 57.8125 14.289062 C 57.714844 14.027344 57.570312 13.796875 57.382812 13.589844 C 57.191406 13.386719 56.972656 13.226562 56.71875 13.113281 Z M 56.71875 13.113281 " fill-opacity="1" fill-rule="nonzero"/><path fill="#9154e0" d="M 74.96875 14.378906 C 71.738281 11.804688 65.628906 12.742188 64.4375 12.957031 C 64.195312 13 63.96875 13.082031 63.757812 13.207031 C 63.542969 13.328125 63.359375 13.484375 63.199219 13.675781 C 63.042969 13.863281 62.921875 14.074219 62.835938 14.304688 C 62.753906 14.535156 62.710938 14.777344 62.710938 15.023438 L 62.710938 29.320312 C 62.710938 29.597656 62.765625 29.863281 62.871094 30.121094 C 62.976562 30.378906 63.128906 30.605469 63.324219 30.804688 C 63.523438 31 63.75 31.152344 64.007812 31.257812 C 64.265625 31.363281 64.53125 31.417969 64.808594 31.417969 C 65.089844 31.417969 65.355469 31.363281 65.613281 31.257812 C 65.871094 31.152344 66.097656 31 66.292969 30.804688 C 66.492188 30.605469 66.644531 30.378906 66.75 30.121094 C 66.855469 29.863281 66.910156 29.597656 66.910156 29.320312 L 66.910156 16.878906 C 68.636719 16.75 72.65625 16.722656 72.738281 18.453125 C 72.765625 19.027344 72.382812 19.925781 71.207031 20.566406 C 70.96875 20.699219 70.746094 20.855469 70.539062 21.035156 C 70.335938 21.214844 70.152344 21.417969 69.996094 21.640625 C 69.835938 21.863281 69.703125 22.097656 69.597656 22.351562 C 69.492188 22.601562 69.414062 22.863281 69.367188 23.132812 C 69.320312 23.402344 69.304688 23.671875 69.320312 23.945312 C 69.332031 24.21875 69.378906 24.484375 69.453125 24.746094 C 69.527344 25.011719 69.628906 25.261719 69.761719 25.5 C 69.890625 25.742188 70.050781 25.960938 70.230469 26.167969 L 74.265625 30.710938 C 74.449219 30.921875 74.667969 31.085938 74.917969 31.207031 C 75.167969 31.328125 75.433594 31.398438 75.710938 31.414062 C 75.988281 31.429688 76.257812 31.394531 76.523438 31.300781 C 76.785156 31.210938 77.019531 31.074219 77.230469 30.890625 C 77.4375 30.703125 77.601562 30.488281 77.722656 30.234375 C 77.84375 29.984375 77.914062 29.722656 77.929688 29.445312 C 77.949219 29.164062 77.910156 28.894531 77.820312 28.632812 C 77.726562 28.367188 77.589844 28.132812 77.40625 27.925781 L 73.824219 23.890625 C 77.730469 21.300781 77.789062 16.628906 74.96875 14.378906 Z M 74.96875 14.378906 " fill-opacity="1" fill-rule="nonzero"/><g clip-path="url(#3c2577b2f6)"><path fill="#9154e0" d="M 70.90625 92.675781 L 70.90625 85.851562 C 74.035156 83.261719 76.039062 79.40625 76.925781 75.441406 C 77.335938 75.390625 77.734375 75.304688 78.125 75.183594 C 78.519531 75.058594 78.894531 74.902344 79.257812 74.710938 C 79.621094 74.519531 79.964844 74.296875 80.289062 74.042969 C 80.613281 73.789062 80.910156 73.511719 81.179688 73.203125 C 81.453125 72.894531 81.695312 72.566406 81.910156 72.214844 C 82.121094 71.863281 82.300781 71.496094 82.445312 71.109375 C 82.59375 70.726562 82.703125 70.332031 82.777344 69.929688 C 82.851562 69.527344 82.886719 69.117188 82.890625 68.707031 L 82.890625 66.417969 C 82.886719 65.675781 82.769531 64.957031 82.53125 64.253906 C 82.296875 63.550781 81.953125 62.90625 81.503906 62.316406 C 81.058594 61.726562 80.527344 61.222656 79.914062 60.808594 C 79.300781 60.390625 78.640625 60.082031 77.925781 59.882812 C 76.292969 51.992188 70.488281 46.4375 61.097656 46.488281 C 51.132812 46.550781 45.53125 51.796875 43.859375 59.8125 C 43.117188 59.988281 42.421875 60.285156 41.777344 60.695312 C 41.132812 61.105469 40.574219 61.609375 40.097656 62.207031 C 39.625 62.808594 39.261719 63.46875 39.007812 64.1875 C 38.757812 64.910156 38.632812 65.652344 38.628906 66.417969 L 38.628906 68.707031 C 38.628906 69.113281 38.667969 69.511719 38.738281 69.910156 C 38.8125 70.308594 38.917969 70.695312 39.058594 71.074219 C 39.199219 71.453125 39.375 71.816406 39.578125 72.160156 C 39.785156 72.507812 40.019531 72.835938 40.285156 73.140625 C 40.546875 73.449219 40.835938 73.726562 41.152344 73.980469 C 41.464844 74.234375 41.796875 74.460938 42.152344 74.652344 C 42.507812 74.847656 42.875 75.011719 43.257812 75.140625 C 43.640625 75.269531 44.03125 75.363281 44.429688 75.421875 C 45.335938 79.488281 47.40625 83.414062 50.664062 86.015625 L 50.664062 92.726562 C 35.984375 91.71875 25.546875 99.945312 26.21875 117.261719 C 26.230469 117.53125 26.292969 117.792969 26.402344 118.039062 C 26.515625 118.285156 26.667969 118.503906 26.863281 118.691406 C 27.058594 118.878906 27.28125 119.027344 27.535156 119.125 C 27.785156 119.226562 28.046875 119.277344 28.320312 119.277344 L 90.769531 119.277344 C 91.039062 119.277344 91.300781 119.226562 91.550781 119.125 C 91.800781 119.023438 92.023438 118.878906 92.21875 118.691406 C 92.414062 118.503906 92.570312 118.285156 92.679688 118.039062 C 92.792969 117.789062 92.851562 117.53125 92.863281 117.261719 C 93.527344 100.238281 84.132812 92.207031 70.90625 92.675781 Z M 62.023438 85.0625 L 59.359375 85.0625 C 53.824219 84.582031 50.253906 80.804688 48.765625 75.492188 L 55.847656 75.492188 C 56.242188 75.492188 56.601562 75.390625 56.9375 75.191406 L 60.175781 73.226562 L 63.292969 75.175781 C 63.632812 75.386719 64.003906 75.492188 64.40625 75.492188 L 72.59375 75.492188 C 71.726562 78.59375 69.15625 84.433594 62.023438 85.0625 Z M 61.242188 50.683594 C 69.773438 50.683594 72.621094 56.355469 73.554688 59.632812 L 48.21875 59.632812 C 50.117188 52.933594 55.003906 50.667969 61.242188 50.683594 Z M 42.828125 68.707031 L 42.828125 66.417969 C 42.828125 66.074219 42.894531 65.746094 43.027344 65.429688 C 43.15625 65.113281 43.34375 64.832031 43.585938 64.589844 C 43.828125 64.347656 44.109375 64.160156 44.425781 64.027344 C 44.742188 63.898438 45.074219 63.832031 45.417969 63.832031 L 76.101562 63.832031 C 76.445312 63.832031 76.777344 63.898438 77.09375 64.027344 C 77.410156 64.160156 77.6875 64.347656 77.933594 64.589844 C 78.175781 64.832031 78.359375 65.113281 78.492188 65.429688 C 78.625 65.746094 78.691406 66.074219 78.691406 66.417969 L 78.691406 68.707031 C 78.691406 69.050781 78.625 69.378906 78.492188 69.695312 C 78.359375 70.015625 78.175781 70.292969 77.933594 70.535156 C 77.6875 70.777344 77.410156 70.964844 77.09375 71.097656 C 76.777344 71.230469 76.445312 71.292969 76.101562 71.296875 L 65.007812 71.296875 L 61.304688 68.980469 C 60.96875 68.773438 60.601562 68.664062 60.207031 68.664062 C 59.808594 68.660156 59.441406 68.761719 59.101562 68.96875 L 55.261719 71.296875 L 45.417969 71.296875 C 45.074219 71.292969 44.742188 71.230469 44.425781 71.097656 C 44.109375 70.964844 43.828125 70.777344 43.585938 70.535156 C 43.34375 70.292969 43.15625 70.015625 43.027344 69.695312 C 42.894531 69.378906 42.828125 69.050781 42.828125 68.707031 Z M 66.707031 88.277344 L 66.707031 93.597656 C 61.230469 97.007812 56.855469 95.402344 54.859375 94.253906 L 54.859375 88.355469 C 56.78125 89.011719 58.757812 89.335938 60.789062 89.320312 C 62.824219 89.308594 64.796875 88.960938 66.707031 88.277344 Z M 51.417969 97.015625 C 54.488281 99.382812 61.359375 101.921875 69.015625 97.109375 C 82.207031 95.8125 88.550781 102.792969 88.691406 115.082031 L 30.390625 115.082031 C 30.597656 101.496094 39.222656 95.648438 51.417969 97.015625 Z M 51.417969 97.015625 " fill-opacity="1" fill-rule="nonzero"/></g><g clip-path="url(#ec295ab8ed)"><path fill="#9154e0" d="M 117.40625 54.894531 L 117.417969 19.160156 C 117.417969 4.710938 75.058594 1.71875 60.5 1.71875 C 45.941406 1.71875 3.578125 4.710938 3.578125 19.160156 C 3.578125 19.183594 3.621094 56.347656 3.625 56.375 C 3.625 63.484375 18.230469 67.871094 25.21875 69.480469 C 26.445312 69.765625 27.78125 69.003906 27.78125 67.09375 L 27.78125 45.5 C 33.503906 44.265625 39.285156 43.417969 45.125 42.960938 C 45.402344 42.9375 45.664062 42.863281 45.910156 42.734375 C 46.160156 42.609375 46.375 42.4375 46.554688 42.226562 C 46.734375 42.015625 46.867188 41.777344 46.953125 41.511719 C 47.035156 41.246094 47.066406 40.972656 47.046875 40.695312 C 47.023438 40.417969 46.945312 40.15625 46.820312 39.90625 C 46.691406 39.660156 46.523438 39.445312 46.308594 39.265625 C 46.097656 39.085938 45.859375 38.953125 45.59375 38.871094 C 45.328125 38.785156 45.054688 38.753906 44.777344 38.777344 C 39.0625 39.226562 33.394531 40.035156 27.78125 41.203125 C 27.78125 31.328125 27.789062 31.539062 27.765625 31.324219 C 27.804688 31.0625 27.792969 30.804688 27.734375 30.546875 C 27.679688 30.289062 27.574219 30.050781 27.425781 29.832031 C 27.277344 29.613281 27.09375 29.425781 26.875 29.277344 C 26.65625 29.128906 26.417969 29.023438 26.160156 28.964844 C 20.625 27.691406 8.761719 24.539062 7.789062 18.945312 C 8.300781 13.433594 28.253906 5.917969 60.5 5.917969 C 93.160156 5.917969 113.21875 13.628906 113.21875 19.160156 C 113.21875 21.472656 109.105469 25.253906 97.519531 28.304688 C 96.296875 28.625 95.757812 30.023438 95.757812 30.746094 L 95.757812 41.683594 C 89.246094 40.242188 82.664062 39.265625 76.011719 38.761719 C 75.734375 38.738281 75.460938 38.769531 75.199219 38.855469 C 74.933594 38.941406 74.695312 39.070312 74.480469 39.253906 C 74.269531 39.433594 74.101562 39.648438 73.972656 39.894531 C 73.847656 40.140625 73.769531 40.40625 73.75 40.683594 C 73.726562 40.960938 73.757812 41.230469 73.84375 41.496094 C 73.929688 41.761719 74.0625 42 74.242188 42.210938 C 74.421875 42.421875 74.636719 42.59375 74.882812 42.71875 C 75.128906 42.847656 75.394531 42.921875 75.671875 42.945312 C 83.035156 43.542969 89.9375 44.597656 95.757812 45.996094 L 95.757812 66.570312 C 95.757812 67.878906 97.128906 69.171875 98.585938 68.789062 C 106.394531 66.730469 117.40625 62.972656 117.40625 54.894531 Z M 23.582031 32.664062 L 23.582031 64.757812 C 12.667969 61.910156 8.304688 58.429688 7.824219 56.027344 L 7.824219 26.195312 C 11.761719 29.15625 17.855469 31.242188 23.582031 32.664062 Z M 99.957031 64.042969 L 99.957031 31.988281 C 105.824219 30.339844 110.269531 28.371094 113.207031 26.140625 L 113.207031 54.894531 C 113.207031 59.644531 104.507812 62.679688 99.957031 64.042969 Z M 99.957031 64.042969 " fill-opacity="1" fill-rule="nonzero"/></g></svg>