<svg width="162" height="162" viewBox="0 0 162 162" fill="none" xmlns="http://www.w3.org/2000/svg">
<g clip-path="url(#clip0_40_201)">
<mask id="mask0_40_201" style="mask-type:luminance" maskUnits="userSpaceOnUse" x="0" y="0" width="162" height="162">
<path d="M0 0.000473022H162V162H0V0.000473022Z" fill="white"/>
</mask>
<g mask="url(#mask0_40_201)">
<path d="M3.16406 49.1465H147.293" stroke="#9154E0" stroke-width="4" stroke-miterlimit="10" stroke-linecap="round" stroke-linejoin="round"/>
<path d="M29.5862 35.6821C33.7298 35.6821 37.111 32.3118 37.111 28.1704C37.111 24.0289 33.7298 20.6586 29.5862 20.6586C25.4517 20.6586 22.0703 24.0289 22.0703 28.1704C22.0703 32.3118 25.4517 35.6821 29.5862 35.6821Z" stroke="#9154E0" stroke-width="4" stroke-miterlimit="10" stroke-linecap="round" stroke-linejoin="round"/>
<path d="M94.9055 20.6586H123.211C127.346 20.6586 130.727 24.0381 130.727 28.1704C130.727 32.3029 127.346 35.6821 123.211 35.6821H94.9055C90.7711 35.6821 87.3896 32.3029 87.3896 28.1704C87.3896 24.0381 90.7711 20.6586 94.9055 20.6586Z" stroke="#9154E0" stroke-width="4" stroke-miterlimit="10" stroke-linecap="round" stroke-linejoin="round"/>
<path d="M57.3352 35.6821C61.4789 35.6821 64.86 32.3118 64.86 28.1704C64.86 24.0289 61.4789 20.6586 57.3352 20.6586C53.2008 20.6586 49.8193 24.0289 49.8193 28.1704C49.8193 32.3118 53.2008 35.6821 57.3352 35.6821Z" stroke="#9154E0" stroke-width="4" stroke-miterlimit="10" stroke-linecap="round" stroke-linejoin="round"/>
<path d="M51.3889 73.4837L45.0566 99.9817" stroke="#9154E0" stroke-width="4" stroke-miterlimit="10" stroke-linecap="round" stroke-linejoin="round"/>
<path d="M65.9727 97.5884L74.9323 87.5305C75.3269 87.0913 75.3269 86.3743 74.9323 85.9352L65.9727 75.8773" stroke="#9154E0" stroke-width="4" stroke-miterlimit="10" stroke-linecap="round" stroke-linejoin="round"/>
<path d="M30.4746 97.5884L21.5149 87.5305C21.12 87.0913 21.12 86.3743 21.5149 85.9352L30.4746 75.8773" stroke="#9154E0" stroke-width="4" stroke-miterlimit="10" stroke-linecap="round" stroke-linejoin="round"/>
<path d="M127.992 87.4675C131.454 88.2386 134.691 89.6011 137.606 91.4296L140.198 88.848C141.732 87.3062 144.252 87.3062 145.795 88.848L149.876 92.9268C151.418 94.4686 151.418 96.9875 149.876 98.5205L147.293 101.111C149.138 104.038 150.472 107.257 151.239 110.631H154.871C157.051 110.631 158.835 112.415 158.835 114.584V120.366C158.835 122.535 157.051 124.319 154.871 124.319H151.221C150.452 127.672 149.124 130.873 147.293 133.785L149.876 136.367C151.418 137.909 151.418 140.427 149.876 141.96L145.795 146.048C144.252 147.59 141.732 147.59 140.198 146.048L137.606 143.466C134.682 145.305 131.468 146.636 128.099 147.402V151.077C128.099 153.255 126.315 155.039 124.144 155.039H118.36C116.189 155.039 114.404 153.255 114.404 151.077V147.393C110.996 146.622 107.794 145.268 104.915 143.466L102.332 146.048C100.789 147.59 98.2694 147.59 96.7354 146.048L92.6459 141.96C91.112 140.427 91.112 137.909 92.6459 136.367L95.2376 133.785C93.3997 130.875 92.0685 127.674 91.3005 124.319H87.6321C85.4531 124.319 83.6768 122.535 83.6768 120.366V114.584C83.6768 112.415 85.4531 110.631 87.6321 110.631H91.2917C92.0507 107.296 93.3633 104.111 95.1749 101.21L92.5741 98.6012C91.0316 97.0682 91.0316 94.5493 92.5741 93.0075L96.6548 88.9287C98.1975 87.3869 100.718 87.3869 102.251 88.9287L104.825 91.4925C107.738 89.6476 110.939 88.3052 114.297 87.5213V83.8732C114.297 81.6947 116.072 79.9108 118.252 79.9108H124.028C126.207 79.9108 127.992 81.6947 127.992 83.8732V87.4675Z" stroke="#9154E0" stroke-width="4" stroke-miterlimit="10" stroke-linecap="round" stroke-linejoin="round"/>
<path d="M121.256 101.174C130.26 101.174 137.561 108.471 137.561 117.48C137.561 126.48 130.26 133.776 121.256 133.776C112.242 133.776 104.941 126.48 104.941 117.48C104.941 108.471 112.242 101.174 121.256 101.174Z" stroke="#9154E0" stroke-width="4" stroke-miterlimit="10" stroke-linecap="round" stroke-linejoin="round"/>
<path d="M33.676 124.319H14.9489C8.47398 124.319 3.16406 117.982 3.16406 110.246V21.0352C3.16406 13.2905 8.46448 6.96176 14.9489 6.96176H135.508C141.992 6.96176 147.293 13.2994 147.293 21.0352V90.3456M87.6323 124.319H61.9547" stroke="#9154E0" stroke-width="4" stroke-miterlimit="10" stroke-linecap="round" stroke-linejoin="round"/>
<path d="M47.8467 124.319H47.9093" stroke="#9154E0" stroke-width="4" stroke-miterlimit="10" stroke-linecap="round" stroke-linejoin="round"/>
</g>
</g>
<defs>
<clipPath id="clip0_40_201">
<rect width="162" height="162" fill="white"/>
</clipPath>
</defs>
</svg>
