<?xml version="1.0" encoding="UTF-8" standalone="no"?>
<!DOCTYPE svg PUBLIC "-//W3C//DTD SVG 1.1//EN" "http://www.w3.org/Graphics/SVG/1.1/DTD/svg11.dtd">
<svg width="100%" height="100%" viewBox="0 0 255 39" version="1.1" xmlns="http://www.w3.org/2000/svg" xmlns:xlink="http://www.w3.org/1999/xlink" xml:space="preserve" xmlns:serif="http://www.serif.com/" style="fill-rule:evenodd;clip-rule:evenodd;stroke-linejoin:round;stroke-miterlimit:2;">
    <path d="M192.812,4.221C172.41,8.681 80.075,9.016 59.928,1.146C59.877,0.673 60.089,0.621 60.353,0.621C62.572,0.62 100.983,3.714 128.5,3.194C137.415,3.026 147.118,2.578 156.328,2.716C165.537,2.855 192.812,4.221 192.812,4.221Z" style="fill:rgb(145,84,224);fill-rule:nonzero;"/>
    <path d="M253.987,11.906C253.987,11.906 254.168,11.791 253.878,11.343C253.744,11.294 253.218,11.032 251.916,10.598C249.982,9.659 178.051,20.029 135.842,20.207L14.335,21.979C13.213,22.006 14.136,22.814 14.136,22.814C30.104,25.988 46.494,29.409 88.88,28.406C118.035,28.597 171.973,25.972 182.906,24.538C199.259,22.766 233.835,16.691 253.987,11.906Z" style="fill:rgb(145,84,224);fill-rule:nonzero;"/>
</svg>
