<svg width="255" height="39" viewBox="0 0 255 39" fill="none" xmlns="http://www.w3.org/2000/svg">
<path d="M192.812 4.22065C172.41 8.68114 80.0747 9.01559 59.9278 1.14569C59.8765 0.672537 60.0885 0.621007 60.3533 0.620881C62.572 0.619841 100.983 3.71395 128.5 3.19443C137.415 3.0261 147.118 2.57764 156.328 2.71642C165.537 2.85521 192.812 4.22065 192.812 4.22065Z" fill="#9ACC32"/>
<path d="M253.987 11.9058C253.987 11.9058 254.168 11.7905 253.878 11.3431C253.744 11.2936 253.218 11.0318 251.916 10.5983C249.982 9.65907 178.051 20.029 135.842 20.2068L14.3353 21.9785C13.2131 22.0064 14.1364 22.8138 14.1364 22.8138C30.1039 25.9882 46.4935 29.4087 88.8804 28.4064C118.035 28.5969 171.973 25.9719 182.906 24.5377C199.259 22.766 233.835 16.6911 253.987 11.9058Z" fill="#9ACC32"/>
</svg>
