<svg width="60" height="60" viewBox="0 0 60 60" fill="none" xmlns="http://www.w3.org/2000/svg">
<path d="M20.2795 7.43762C17.6493 5.02079 13.6064 5.02079 10.9762 7.43762C10.8685 7.5366 10.7535 7.65162 10.6042 7.80098L8.36042 10.0447C6.10264 12.3025 5.15484 15.5573 5.8475 18.6742C9.77742 36.3589 23.5888 50.1702 41.2734 54.1002C44.3904 54.7928 47.6452 53.845 49.903 51.5872L52.1465 49.3437C52.2959 49.1943 52.411 49.0792 52.51 48.9715C54.9269 46.3412 54.9269 42.2984 52.51 39.6681C52.411 39.5604 52.2959 39.4453 52.1465 39.2959L48.4733 35.6227C45.9231 33.0725 42.0717 32.3431 38.7656 33.7843C36.8728 34.6093 34.668 34.1917 33.2079 32.7317L27.2159 26.7397C25.7559 25.2797 25.3383 23.0748 26.1634 21.1821C27.6045 17.8759 26.8752 14.0246 24.3249 11.4743L20.6516 7.80102C20.5023 7.65164 20.3872 7.53661 20.2795 7.43762Z" fill="#9ACC32"/>
</svg>
