<?xml version="1.0" encoding="UTF-8" standalone="no"?>
<!DOCTYPE svg PUBLIC "-//W3C//DTD SVG 1.1//EN" "http://www.w3.org/Graphics/SVG/1.1/DTD/svg11.dtd">
<svg width="100%" height="100%" viewBox="0 0 60 60" version="1.1" xmlns="http://www.w3.org/2000/svg" xmlns:xlink="http://www.w3.org/1999/xlink" xml:space="preserve" xmlns:serif="http://www.serif.com/" style="fill-rule:evenodd;clip-rule:evenodd;stroke-linejoin:round;stroke-miterlimit:2;">
    <path d="M20.28,7.438C17.649,5.021 13.606,5.021 10.976,7.438C10.868,7.537 10.754,7.652 10.604,7.801L8.36,10.045C6.103,12.303 5.155,15.557 5.848,18.674C9.777,36.359 23.589,50.17 41.273,54.1C44.39,54.793 47.645,53.845 49.903,51.587L52.147,49.344C52.296,49.194 52.411,49.079 52.51,48.972C54.927,46.341 54.927,42.298 52.51,39.668C52.411,39.56 52.296,39.445 52.147,39.296L48.473,35.623C45.923,33.073 42.072,32.343 38.766,33.784C36.873,34.609 34.668,34.192 33.208,32.732L27.216,26.74C25.756,25.28 25.338,23.075 26.163,21.182C27.605,17.876 26.875,14.025 24.325,11.474L20.652,7.801C20.502,7.652 20.387,7.537 20.28,7.438Z" style="fill:rgb(145,84,224);fill-rule:nonzero;"/>
</svg>
