<svg width="37" height="38" viewBox="0 0 37 38" fill="none" xmlns="http://www.w3.org/2000/svg">
<path d="M10.7605 8.35348C10.7601 9.1636 10.444 9.94039 9.88166 10.5129C9.31934 11.0855 8.5569 11.4069 7.76205 11.4065C6.96721 11.4061 6.20509 11.0839 5.64333 10.5108C5.08157 9.93765 4.7662 9.16055 4.7666 8.35042C4.767 7.5403 5.08313 6.76351 5.64545 6.19095C6.20777 5.61839 6.97021 5.29696 7.76505 5.29736C8.55989 5.29777 9.32202 5.61998 9.88378 6.19311C10.4455 6.76624 10.7609 7.54335 10.7605 8.35348ZM10.8504 13.6685H4.85651V32.7902H10.8504V13.6685ZM20.3208 13.6685H14.3568V32.7902H20.2608V22.7558C20.2608 17.166 27.4086 16.6467 27.4086 22.7558V32.7902H33.3275V20.6787C33.3275 11.2553 22.7483 11.6066 20.2608 16.2343L20.3208 13.6685Z" fill="white"/>
</svg>
