<?xml version="1.0" encoding="UTF-8" standalone="no"?>
<!DOCTYPE svg PUBLIC "-//W3C//DTD SVG 1.1//EN" "http://www.w3.org/Graphics/SVG/1.1/DTD/svg11.dtd">
<svg width="100%" height="100%" viewBox="0 0 60 60" version="1.1" xmlns="http://www.w3.org/2000/svg" xmlns:xlink="http://www.w3.org/1999/xlink" xml:space="preserve" xmlns:serif="http://www.serif.com/" style="fill-rule:evenodd;clip-rule:evenodd;stroke-linejoin:round;stroke-miterlimit:2;">
    <path d="M36.952,49.251C42.726,41.888 50,31.19 50,24.022C50,12.136 41.046,2.5 30,2.5C18.954,2.5 10,12.136 10,24.022C10,31.19 17.274,41.888 23.048,49.251C26.061,53.093 27.567,55.014 30,55.014C32.433,55.014 33.939,53.093 36.952,49.251ZM30,32.5C25.858,32.5 22.5,29.142 22.5,25C22.5,20.858 25.858,17.5 30,17.5C34.142,17.5 37.5,20.858 37.5,25C37.5,29.142 34.142,32.5 30,32.5Z" style="fill:rgb(145,84,224);"/>
</svg>
