<svg width="60" height="60" viewBox="0 0 60 60" fill="none" xmlns="http://www.w3.org/2000/svg">
<path fill-rule="evenodd" clip-rule="evenodd" d="M36.952 49.2512C42.7264 41.8877 50 31.1898 50 24.0217C50 12.1356 41.0457 2.5 30 2.5C18.9543 2.5 10 12.1356 10 24.0217C10 31.1898 17.2736 41.8877 23.048 49.2512C26.0606 53.0929 27.5669 55.0137 30 55.0137C32.4331 55.0137 33.9394 53.0929 36.952 49.2512ZM30 32.5C25.8579 32.5 22.5 29.1421 22.5 25C22.5 20.8579 25.8579 17.5 30 17.5C34.1421 17.5 37.5 20.8579 37.5 25C37.5 29.1421 34.1421 32.5 30 32.5Z" fill="#9ACC32"/>
</svg>
