<?xml version="1.0" encoding="UTF-8" standalone="no"?>
<!DOCTYPE svg PUBLIC "-//W3C//DTD SVG 1.1//EN" "http://www.w3.org/Graphics/SVG/1.1/DTD/svg11.dtd">
<svg width="100%" height="100%" viewBox="0 0 60 60" version="1.1" xmlns="http://www.w3.org/2000/svg" xmlns:xlink="http://www.w3.org/1999/xlink" xml:space="preserve" xmlns:serif="http://www.serif.com/" style="fill-rule:evenodd;clip-rule:evenodd;stroke-linejoin:round;stroke-miterlimit:2;">
    <path d="M9.906,19.425C9.436,21.339 9.093,23.81 8.616,27.249C7.525,35.1 6.98,39.025 8.179,42.074C9.231,44.751 11.174,46.983 13.681,48.393C16.536,50 20.499,50 28.425,50L32.486,50C40.412,50 44.376,50 47.231,48.393C49.737,46.983 51.68,44.751 52.733,42.074C53.931,39.025 53.386,35.1 52.296,27.249C51.777,23.515 51.417,20.921 50.881,18.943L49.054,20.769C44.974,24.85 41.776,28.048 38.945,30.208C36.048,32.418 33.316,33.717 30.153,33.717C26.989,33.717 24.257,32.418 21.36,30.208C18.529,28.048 15.331,24.85 11.25,20.769L9.906,19.425Z" style="fill:rgb(145,84,224);fill-rule:nonzero;"/>
    <path d="M11.437,15.653L13.801,18.016C18.005,22.22 21.027,25.237 23.634,27.226C26.198,29.182 28.138,29.967 30.153,29.967C32.167,29.967 34.107,29.182 36.671,27.226C39.278,25.237 42.3,22.22 46.504,18.016L49.229,15.292C47.959,13.493 46.234,12.058 44.225,11.137C41.745,10 38.658,10 32.486,10L28.425,10C22.253,10 19.166,10 16.686,11.137C14.545,12.118 12.726,13.684 11.437,15.653Z" style="fill:rgb(145,84,224);fill-rule:nonzero;"/>
</svg>
