<svg width="60" height="60" viewBox="0 0 60 60" fill="none" xmlns="http://www.w3.org/2000/svg">
<path d="M9.90627 19.4251C9.4363 21.3389 9.09303 23.8104 8.6155 27.2486C7.52507 35.0998 6.97985 39.0253 8.17867 42.0742C9.23111 44.7507 11.1743 46.9825 13.6807 48.3932C16.5356 50 20.4988 50 28.4253 50H32.4858C40.4123 50 44.3756 50 47.2305 48.3932C49.7368 46.9825 51.6801 44.7507 52.7325 42.0742C53.9313 39.0253 53.3861 35.0998 52.2957 27.2486C51.7771 23.5146 51.4168 20.9207 50.8806 18.9432L49.0545 20.7693C44.9739 24.85 41.7759 28.0479 38.9453 30.2076C36.048 32.4182 33.3161 33.717 30.1525 33.717C26.9889 33.717 24.257 32.4182 21.3597 30.2076C18.529 28.0479 15.3311 24.85 11.2504 20.7693L9.90627 19.4251Z" fill="#9ACC32"/>
<path d="M11.4372 15.6528L13.8006 18.0162C18.0048 22.2203 21.0273 25.2372 23.6344 27.2263C26.1981 29.1824 28.1384 29.967 30.1525 29.967C32.1665 29.967 34.1068 29.1824 36.6706 27.2263C39.2776 25.2372 42.3002 22.2203 46.5043 18.0162L49.2286 15.2919C47.9586 13.4926 46.2335 12.0577 44.2252 11.1371C41.7448 10 38.6585 10 32.4858 10H28.4254C22.2527 10 19.1664 10 16.686 11.1371C14.5452 12.1185 12.7261 13.6842 11.4372 15.6528Z" fill="#9ACC32"/>
</svg>
